<svg width="494" height="300" viewBox="0 0 494 300" fill="none" xmlns="http://www.w3.org/2000/svg">
<rect width="494" height="300" fill="#FCF1E9"/>
<path d="M107.549 282.668C69.6559 302.311 20.0609 287.276 0 277.304V300H494V282.668C475.518 289.615 429.192 299.34 391.745 282.668C354.298 265.997 315.216 275.722 300.356 282.668C258.674 303.962 220.391 291.541 206.46 282.668C171.465 259.725 125.938 273.109 107.549 282.668Z" fill="#638439"/>
<path d="M398.363 151.828L397.695 152.461C397.215 151.988 396.688 151.631 396.113 151.389C395.543 151.143 394.986 151.02 394.443 151.02C393.768 151.02 393.123 151.186 392.51 151.518C391.9 151.85 391.428 152.301 391.092 152.871C390.756 153.438 390.588 154.037 390.588 154.67C390.588 155.318 390.762 155.936 391.109 156.521C391.457 157.104 391.938 157.562 392.551 157.898C393.164 158.23 393.836 158.396 394.566 158.396C395.453 158.396 396.203 158.146 396.816 157.646C397.43 157.146 397.793 156.498 397.906 155.701H395.158V154.869H398.873C398.865 156.201 398.469 157.26 397.684 158.045C396.902 158.826 395.855 159.217 394.543 159.217C392.949 159.217 391.688 158.674 390.758 157.588C390.043 156.752 389.686 155.785 389.686 154.688C389.686 153.871 389.891 153.111 390.301 152.408C390.711 151.705 391.273 151.156 391.988 150.762C392.703 150.363 393.512 150.164 394.414 150.164C395.145 150.164 395.832 150.297 396.477 150.562C397.121 150.824 397.75 151.246 398.363 151.828ZM400.273 152.625H401.1V155.602C401.1 156.328 401.139 156.828 401.217 157.102C401.334 157.492 401.557 157.801 401.885 158.027C402.217 158.254 402.611 158.367 403.068 158.367C403.525 158.367 403.912 158.258 404.229 158.039C404.549 157.816 404.77 157.525 404.891 157.166C404.973 156.92 405.014 156.398 405.014 155.602V152.625H405.852V155.754C405.852 156.633 405.748 157.295 405.541 157.74C405.338 158.186 405.029 158.535 404.615 158.789C404.205 159.039 403.689 159.164 403.068 159.164C402.447 159.164 401.928 159.039 401.51 158.789C401.096 158.535 400.785 158.184 400.578 157.734C400.375 157.281 400.273 156.602 400.273 155.695V152.625ZM414.031 152.625V159H413.223V157.904C412.879 158.322 412.492 158.637 412.062 158.848C411.637 159.059 411.17 159.164 410.662 159.164C409.76 159.164 408.988 158.838 408.348 158.186C407.711 157.529 407.393 156.732 407.393 155.795C407.393 154.877 407.715 154.092 408.359 153.439C409.004 152.787 409.779 152.461 410.686 152.461C411.209 152.461 411.682 152.572 412.104 152.795C412.529 153.018 412.902 153.352 413.223 153.797V152.625H414.031ZM410.75 153.252C410.293 153.252 409.871 153.365 409.484 153.592C409.098 153.814 408.789 154.129 408.559 154.535C408.332 154.941 408.219 155.371 408.219 155.824C408.219 156.273 408.334 156.703 408.564 157.113C408.795 157.523 409.104 157.844 409.49 158.074C409.881 158.301 410.299 158.414 410.744 158.414C411.193 158.414 411.619 158.301 412.021 158.074C412.424 157.848 412.732 157.541 412.947 157.154C413.166 156.768 413.275 156.332 413.275 155.848C413.275 155.109 413.031 154.492 412.543 153.996C412.059 153.5 411.461 153.252 410.75 153.252ZM415.936 159V150.164H416.75V153.721C417.094 153.299 417.479 152.984 417.904 152.777C418.33 152.566 418.797 152.461 419.305 152.461C420.207 152.461 420.977 152.789 421.613 153.445C422.254 154.098 422.574 154.891 422.574 155.824C422.574 156.746 422.252 157.533 421.607 158.186C420.963 158.838 420.188 159.164 419.281 159.164C418.762 159.164 418.291 159.053 417.869 158.83C417.447 158.607 417.074 158.273 416.75 157.828V159H415.936ZM419.217 158.373C419.674 158.373 420.096 158.262 420.482 158.039C420.869 157.812 421.176 157.496 421.402 157.09C421.633 156.684 421.748 156.254 421.748 155.801C421.748 155.348 421.633 154.916 421.402 154.506C421.172 154.096 420.861 153.777 420.471 153.551C420.084 153.32 419.67 153.205 419.229 153.205C418.779 153.205 418.352 153.32 417.945 153.551C417.543 153.777 417.232 154.084 417.014 154.471C416.799 154.857 416.691 155.293 416.691 155.777C416.691 156.516 416.934 157.133 417.418 157.629C417.906 158.125 418.506 158.373 419.217 158.373ZM424.361 150C424.549 150 424.709 150.066 424.842 150.199C424.975 150.332 425.041 150.492 425.041 150.68C425.041 150.863 424.975 151.021 424.842 151.154C424.709 151.287 424.549 151.354 424.361 151.354C424.178 151.354 424.02 151.287 423.887 151.154C423.754 151.021 423.688 150.863 423.688 150.68C423.688 150.492 423.754 150.332 423.887 150.199C424.02 150.066 424.178 150 424.361 150ZM423.951 152.625H424.777V159H423.951V152.625ZM426.166 152.625H427.004V153.557C427.254 153.189 427.518 152.916 427.795 152.736C428.072 152.553 428.361 152.461 428.662 152.461C428.889 152.461 429.131 152.533 429.389 152.678L428.961 153.369C428.789 153.295 428.645 153.258 428.527 153.258C428.254 153.258 427.99 153.371 427.736 153.598C427.482 153.82 427.289 154.168 427.156 154.641C427.055 155.004 427.004 155.738 427.004 156.844V159H426.166V152.625ZM433.104 152.461C434.084 152.461 434.896 152.816 435.541 153.527C436.127 154.176 436.42 154.943 436.42 155.83C436.42 156.721 436.109 157.5 435.488 158.168C434.871 158.832 434.076 159.164 433.104 159.164C432.127 159.164 431.328 158.832 430.707 158.168C430.09 157.5 429.781 156.721 429.781 155.83C429.781 154.947 430.074 154.182 430.66 153.533C431.305 152.818 432.119 152.461 433.104 152.461ZM433.104 153.264C432.424 153.264 431.84 153.516 431.352 154.02C430.863 154.523 430.619 155.133 430.619 155.848C430.619 156.309 430.73 156.738 430.953 157.137C431.176 157.535 431.477 157.844 431.855 158.062C432.234 158.277 432.65 158.385 433.104 158.385C433.557 158.385 433.973 158.277 434.352 158.062C434.73 157.844 435.031 157.535 435.254 157.137C435.477 156.738 435.588 156.309 435.588 155.848C435.588 155.133 435.342 154.523 434.85 154.02C434.361 153.516 433.779 153.264 433.104 153.264ZM438.002 159V150.164H438.816V153.721C439.16 153.299 439.545 152.984 439.971 152.777C440.396 152.566 440.863 152.461 441.371 152.461C442.273 152.461 443.043 152.789 443.68 153.445C444.32 154.098 444.641 154.891 444.641 155.824C444.641 156.746 444.318 157.533 443.674 158.186C443.029 158.838 442.254 159.164 441.348 159.164C440.828 159.164 440.357 159.053 439.936 158.83C439.514 158.607 439.141 158.273 438.816 157.828V159H438.002ZM441.283 158.373C441.74 158.373 442.162 158.262 442.549 158.039C442.936 157.812 443.242 157.496 443.469 157.09C443.699 156.684 443.814 156.254 443.814 155.801C443.814 155.348 443.699 154.916 443.469 154.506C443.238 154.096 442.928 153.777 442.537 153.551C442.15 153.32 441.736 153.205 441.295 153.205C440.846 153.205 440.418 153.32 440.012 153.551C439.609 153.777 439.299 154.084 439.08 154.471C438.865 154.857 438.758 155.293 438.758 155.777C438.758 156.516 439 157.133 439.484 157.629C439.973 158.125 440.572 158.373 441.283 158.373ZM452.492 152.625V159H451.684V157.904C451.34 158.322 450.953 158.637 450.523 158.848C450.098 159.059 449.631 159.164 449.123 159.164C448.221 159.164 447.449 158.838 446.809 158.186C446.172 157.529 445.854 156.732 445.854 155.795C445.854 154.877 446.176 154.092 446.82 153.439C447.465 152.787 448.24 152.461 449.146 152.461C449.67 152.461 450.143 152.572 450.564 152.795C450.99 153.018 451.363 153.352 451.684 153.797V152.625H452.492ZM449.211 153.252C448.754 153.252 448.332 153.365 447.945 153.592C447.559 153.814 447.25 154.129 447.02 154.535C446.793 154.941 446.68 155.371 446.68 155.824C446.68 156.273 446.795 156.703 447.025 157.113C447.256 157.523 447.564 157.844 447.951 158.074C448.342 158.301 448.76 158.414 449.205 158.414C449.654 158.414 450.08 158.301 450.482 158.074C450.885 157.848 451.193 157.541 451.408 157.154C451.627 156.768 451.736 156.332 451.736 155.848C451.736 155.109 451.492 154.492 451.004 153.996C450.52 153.5 449.922 153.252 449.211 153.252Z" fill="#E57D25"/>
<path d="M401.544 139.104C401.555 138.88 401.613 138.704 401.72 138.576C401.837 138.448 401.992 138.384 402.184 138.384C402.28 138.384 402.381 138.4 402.488 138.432C403.075 138.613 403.693 138.768 404.344 138.896C405.005 139.024 405.603 139.088 406.136 139.088C406.477 139.088 406.701 139.024 406.808 138.896C406.915 138.757 406.968 138.64 406.968 138.544C406.979 138.448 406.936 138.325 406.84 138.176C406.744 138.027 406.552 137.947 406.264 137.936C404.643 137.883 403.411 137.563 402.568 136.976C401.725 136.379 401.304 135.477 401.304 134.272C401.304 133.579 401.437 133.003 401.704 132.544C401.971 132.085 402.328 131.717 402.776 131.44C403.224 131.163 403.736 130.965 404.312 130.848C404.888 130.731 405.485 130.672 406.104 130.672C406.755 130.672 407.336 130.725 407.848 130.832C408.36 130.939 408.893 131.088 409.448 131.28C409.725 131.376 409.944 131.541 410.104 131.776C410.264 132.011 410.333 132.277 410.312 132.576L410.28 133.696C410.259 134.165 410.051 134.4 409.656 134.4C409.56 134.4 409.453 134.384 409.336 134.352C408.771 134.171 408.179 134.021 407.56 133.904C406.952 133.776 406.387 133.712 405.864 133.712C405.533 133.712 405.309 133.781 405.192 133.92C405.085 134.048 405.032 134.16 405.032 134.256C405.032 134.352 405.075 134.475 405.16 134.624C405.245 134.773 405.437 134.859 405.736 134.88C407.357 134.933 408.589 135.253 409.432 135.84C410.275 136.416 410.696 137.301 410.696 138.496C410.696 139.211 410.547 139.803 410.248 140.272C409.96 140.731 409.576 141.099 409.096 141.376C408.627 141.653 408.099 141.851 407.512 141.968C406.925 142.075 406.339 142.128 405.752 142.128C405.165 142.128 404.595 142.075 404.04 141.968C403.485 141.851 402.931 141.701 402.376 141.52C402.099 141.424 401.88 141.259 401.72 141.024C401.56 140.789 401.491 140.523 401.512 140.224L401.544 139.104ZM411.4 131.76C411.4 131.472 411.485 131.243 411.656 131.072C411.837 130.891 412.072 130.8 412.36 130.8H414.168C414.456 130.8 414.685 130.891 414.856 131.072C415.037 131.243 415.128 131.472 415.128 131.76V137.712C415.128 138.149 415.213 138.496 415.384 138.752C415.555 138.997 415.885 139.12 416.376 139.12C416.867 139.12 417.197 138.997 417.368 138.752C417.539 138.496 417.624 138.149 417.624 137.712V131.76C417.624 131.472 417.709 131.243 417.88 131.072C418.061 130.891 418.296 130.8 418.584 130.8H420.392C420.68 130.8 420.909 130.891 421.08 131.072C421.261 131.243 421.352 131.472 421.352 131.76V137.712C421.352 138.395 421.261 139.013 421.08 139.568C420.899 140.112 420.611 140.576 420.216 140.96C419.821 141.344 419.304 141.643 418.664 141.856C418.035 142.059 417.272 142.16 416.376 142.16C415.469 142.16 414.701 142.059 414.072 141.856C413.443 141.643 412.931 141.344 412.536 140.96C412.141 140.576 411.853 140.112 411.672 139.568C411.491 139.013 411.4 138.395 411.4 137.712V131.76ZM430.71 141.008C430.71 141.371 430.635 141.637 430.486 141.808C430.337 141.979 430.091 142.075 429.75 142.096C429.547 142.117 429.339 142.128 429.126 142.128C428.923 142.139 428.731 142.144 428.55 142.144C428.379 142.155 428.23 142.16 428.102 142.16C427.974 142.16 427.889 142.16 427.846 142.16C426.715 142.16 425.771 142.059 425.014 141.856C424.267 141.643 423.665 141.312 423.206 140.864C422.758 140.405 422.438 139.813 422.246 139.088C422.065 138.352 421.974 137.456 421.974 136.4C421.974 135.344 422.065 134.453 422.246 133.728C422.438 132.992 422.758 132.4 423.206 131.952C423.665 131.493 424.267 131.163 425.014 130.96C425.771 130.747 426.715 130.64 427.846 130.64C427.889 130.64 427.974 130.64 428.102 130.64C428.23 130.64 428.379 130.645 428.55 130.656C428.731 130.656 428.923 130.661 429.126 130.672C429.339 130.672 429.547 130.683 429.75 130.704C430.091 130.725 430.337 130.821 430.486 130.992C430.635 131.163 430.71 131.429 430.71 131.792V132.912C430.71 133.253 430.635 133.488 430.486 133.616C430.347 133.733 430.102 133.781 429.75 133.76C429.387 133.728 429.03 133.707 428.678 133.696C428.326 133.685 428.075 133.68 427.926 133.68C427.553 133.68 427.238 133.712 426.982 133.776C426.726 133.829 426.518 133.952 426.358 134.144C426.198 134.336 426.081 134.613 426.006 134.976C425.931 135.328 425.894 135.803 425.894 136.4C425.894 136.987 425.931 137.461 426.006 137.824C426.081 138.176 426.198 138.448 426.358 138.64C426.518 138.832 426.726 138.96 426.982 139.024C427.238 139.088 427.553 139.12 427.926 139.12C428.075 139.12 428.326 139.115 428.678 139.104C429.03 139.093 429.387 139.072 429.75 139.04C430.102 139.019 430.347 139.072 430.486 139.2C430.635 139.317 430.71 139.547 430.71 139.888V141.008ZM436.111 142.16C434.361 142.16 433.06 141.691 432.207 140.752C431.364 139.813 430.943 138.363 430.943 136.4C430.943 134.437 431.364 132.987 432.207 132.048C433.06 131.109 434.361 130.64 436.111 130.64C437.871 130.64 439.172 131.109 440.015 132.048C440.868 132.976 441.295 134.427 441.295 136.4C441.295 138.373 440.868 139.829 440.015 140.768C439.172 141.696 437.871 142.16 436.111 142.16ZM436.127 139.12C436.372 139.12 436.575 139.083 436.735 139.008C436.895 138.933 437.023 138.795 437.119 138.592C437.215 138.389 437.279 138.112 437.311 137.76C437.353 137.397 437.375 136.933 437.375 136.368C437.375 135.835 437.353 135.397 437.311 135.056C437.279 134.704 437.215 134.427 437.119 134.224C437.023 134.021 436.895 133.883 436.735 133.808C436.575 133.723 436.367 133.68 436.111 133.68C435.865 133.68 435.663 133.717 435.503 133.792C435.343 133.867 435.215 134.005 435.119 134.208C435.023 134.411 434.953 134.688 434.911 135.04C434.879 135.392 434.863 135.845 434.863 136.4C434.863 136.955 434.879 137.408 434.911 137.76C434.953 138.112 435.023 138.389 435.119 138.592C435.215 138.795 435.343 138.933 435.503 139.008C435.673 139.083 435.881 139.12 436.127 139.12Z" fill="#E57D25"/>
<path d="M204.01 150.381L208.029 159H207.104L205.75 156.164H202.035L200.688 159H199.727L203.799 150.381H204.01ZM203.904 152.209L202.422 155.332H205.369L203.904 152.209ZM209.418 150.381H211.135C212.092 150.381 212.74 150.42 213.08 150.498C213.592 150.615 214.008 150.867 214.328 151.254C214.648 151.637 214.809 152.109 214.809 152.672C214.809 153.141 214.697 153.553 214.475 153.908C214.256 154.264 213.941 154.533 213.531 154.717C213.121 154.896 212.555 154.988 211.832 154.992L214.932 159H213.865L210.771 154.992H210.279V159H209.418V150.381ZM210.279 151.225V154.154L211.762 154.166C212.336 154.166 212.76 154.111 213.033 154.002C213.311 153.893 213.525 153.719 213.678 153.48C213.834 153.238 213.912 152.969 213.912 152.672C213.912 152.383 213.834 152.121 213.678 151.887C213.521 151.648 213.316 151.479 213.062 151.377C212.809 151.275 212.387 151.225 211.797 151.225H210.279ZM216.707 150.381H218.424C219.381 150.381 220.029 150.42 220.369 150.498C220.881 150.615 221.297 150.867 221.617 151.254C221.938 151.637 222.098 152.109 222.098 152.672C222.098 153.141 221.986 153.553 221.764 153.908C221.545 154.264 221.23 154.533 220.82 154.717C220.41 154.896 219.844 154.988 219.121 154.992L222.221 159H221.154L218.061 154.992H217.568V159H216.707V150.381ZM217.568 151.225V154.154L219.051 154.166C219.625 154.166 220.049 154.111 220.322 154.002C220.6 153.893 220.814 153.719 220.967 153.48C221.123 153.238 221.201 152.969 221.201 152.672C221.201 152.383 221.123 152.121 220.967 151.887C220.811 151.648 220.605 151.479 220.352 151.377C220.098 151.275 219.676 151.225 219.086 151.225H217.568ZM228.057 150.164C229.361 150.164 230.453 150.6 231.332 151.471C232.211 152.342 232.65 153.414 232.65 154.688C232.65 155.949 232.211 157.02 231.332 157.898C230.457 158.777 229.389 159.217 228.127 159.217C226.85 159.217 225.771 158.779 224.893 157.904C224.014 157.029 223.574 155.971 223.574 154.729C223.574 153.9 223.773 153.133 224.172 152.426C224.574 151.719 225.121 151.166 225.812 150.768C226.504 150.365 227.252 150.164 228.057 150.164ZM228.098 151.008C227.461 151.008 226.857 151.174 226.287 151.506C225.717 151.838 225.271 152.285 224.951 152.848C224.631 153.41 224.471 154.037 224.471 154.729C224.471 155.752 224.824 156.617 225.531 157.324C226.242 158.027 227.098 158.379 228.098 158.379C228.766 158.379 229.383 158.217 229.949 157.893C230.52 157.568 230.963 157.125 231.279 156.562C231.6 156 231.76 155.375 231.76 154.688C231.76 154.004 231.6 153.387 231.279 152.836C230.963 152.281 230.516 151.838 229.938 151.506C229.359 151.174 228.746 151.008 228.098 151.008ZM234.045 151.213V150.381H238.592L234.988 158.162H238.41V159H233.658L237.285 151.213H234.045ZM243.496 150.381H245.195C245.879 150.381 246.404 150.463 246.771 150.627C247.139 150.787 247.428 151.035 247.639 151.371C247.854 151.707 247.961 152.08 247.961 152.49C247.961 152.873 247.867 153.223 247.68 153.539C247.492 153.852 247.217 154.105 246.854 154.301C247.303 154.453 247.648 154.633 247.891 154.84C248.133 155.043 248.32 155.291 248.453 155.584C248.59 155.873 248.658 156.188 248.658 156.527C248.658 157.219 248.404 157.805 247.896 158.285C247.393 158.762 246.715 159 245.863 159H243.496V150.381ZM244.34 151.225V153.984H244.832C245.43 153.984 245.869 153.93 246.15 153.82C246.432 153.707 246.654 153.531 246.818 153.293C246.982 153.051 247.064 152.783 247.064 152.49C247.064 152.096 246.926 151.787 246.648 151.564C246.375 151.338 245.938 151.225 245.336 151.225H244.34ZM244.34 154.852V158.156H245.406C246.035 158.156 246.496 158.096 246.789 157.975C247.082 157.85 247.316 157.656 247.492 157.395C247.672 157.133 247.762 156.85 247.762 156.545C247.762 156.162 247.637 155.828 247.387 155.543C247.137 155.258 246.793 155.062 246.355 154.957C246.062 154.887 245.553 154.852 244.826 154.852H244.34ZM250.41 150.381H252.127C253.084 150.381 253.732 150.42 254.072 150.498C254.584 150.615 255 150.867 255.32 151.254C255.641 151.637 255.801 152.109 255.801 152.672C255.801 153.141 255.689 153.553 255.467 153.908C255.248 154.264 254.934 154.533 254.523 154.717C254.113 154.896 253.547 154.988 252.824 154.992L255.924 159H254.857L251.764 154.992H251.271V159H250.41V150.381ZM251.271 151.225V154.154L252.754 154.166C253.328 154.166 253.752 154.111 254.025 154.002C254.303 153.893 254.518 153.719 254.67 153.48C254.826 153.238 254.904 152.969 254.904 152.672C254.904 152.383 254.826 152.121 254.67 151.887C254.514 151.648 254.309 151.479 254.055 151.377C253.801 151.275 253.379 151.225 252.789 151.225H251.271ZM261.174 150.381L265.193 159H264.268L262.914 156.164H259.199L257.852 159H256.891L260.963 150.381H261.174ZM261.068 152.209L259.586 155.332H262.533L261.068 152.209ZM266.541 159V150.381H266.729L272.459 156.979V150.381H273.309V159H273.115L267.432 152.484V159H266.541ZM283.445 151.98L282.766 152.502C282.391 152.014 281.939 151.645 281.412 151.395C280.889 151.141 280.312 151.014 279.684 151.014C278.996 151.014 278.359 151.18 277.773 151.512C277.188 151.84 276.732 152.283 276.408 152.842C276.088 153.396 275.928 154.021 275.928 154.717C275.928 155.768 276.287 156.645 277.006 157.348C277.729 158.051 278.639 158.402 279.736 158.402C280.943 158.402 281.953 157.93 282.766 156.984L283.445 157.5C283.016 158.047 282.479 158.471 281.834 158.771C281.193 159.068 280.477 159.217 279.684 159.217C278.176 159.217 276.986 158.715 276.115 157.711C275.385 156.863 275.02 155.84 275.02 154.641C275.02 153.379 275.461 152.318 276.344 151.459C277.23 150.596 278.34 150.164 279.672 150.164C280.477 150.164 281.203 150.324 281.852 150.645C282.5 150.961 283.031 151.406 283.445 151.98ZM289.287 150.164C290.592 150.164 291.684 150.6 292.562 151.471C293.441 152.342 293.881 153.414 293.881 154.688C293.881 155.949 293.441 157.02 292.562 157.898C291.688 158.777 290.619 159.217 289.357 159.217C288.08 159.217 287.002 158.779 286.123 157.904C285.244 157.029 284.805 155.971 284.805 154.729C284.805 153.9 285.004 153.133 285.402 152.426C285.805 151.719 286.352 151.166 287.043 150.768C287.734 150.365 288.482 150.164 289.287 150.164ZM289.328 151.008C288.691 151.008 288.088 151.174 287.518 151.506C286.947 151.838 286.502 152.285 286.182 152.848C285.861 153.41 285.701 154.037 285.701 154.729C285.701 155.752 286.055 156.617 286.762 157.324C287.473 158.027 288.328 158.379 289.328 158.379C289.996 158.379 290.613 158.217 291.18 157.893C291.75 157.568 292.193 157.125 292.51 156.562C292.83 156 292.99 155.375 292.99 154.688C292.99 154.004 292.83 153.387 292.51 152.836C292.193 152.281 291.746 151.838 291.168 151.506C290.59 151.174 289.977 151.008 289.328 151.008ZM202.416 165.381L206.436 174H205.51L204.156 171.164H200.441L199.094 174H198.133L202.205 165.381H202.416ZM202.311 167.209L200.828 170.332H203.775L202.311 167.209ZM207.824 165.381H209.541C210.498 165.381 211.146 165.42 211.486 165.498C211.998 165.615 212.414 165.867 212.734 166.254C213.055 166.637 213.215 167.109 213.215 167.672C213.215 168.141 213.104 168.553 212.881 168.908C212.662 169.264 212.348 169.533 211.938 169.717C211.527 169.896 210.961 169.988 210.238 169.992L213.338 174H212.271L209.178 169.992H208.686V174H207.824V165.381ZM208.686 166.225V169.154L210.168 169.166C210.742 169.166 211.166 169.111 211.439 169.002C211.717 168.893 211.932 168.719 212.084 168.48C212.24 168.238 212.318 167.969 212.318 167.672C212.318 167.383 212.24 167.121 212.084 166.887C211.928 166.648 211.723 166.479 211.469 166.377C211.215 166.275 210.793 166.225 210.203 166.225H208.686ZM215.113 165.381H216.83C217.787 165.381 218.436 165.42 218.775 165.498C219.287 165.615 219.703 165.867 220.023 166.254C220.344 166.637 220.504 167.109 220.504 167.672C220.504 168.141 220.393 168.553 220.17 168.908C219.951 169.264 219.637 169.533 219.227 169.717C218.816 169.896 218.25 169.988 217.527 169.992L220.627 174H219.561L216.467 169.992H215.975V174H215.113V165.381ZM215.975 166.225V169.154L217.457 169.166C218.031 169.166 218.455 169.111 218.729 169.002C219.006 168.893 219.221 168.719 219.373 168.48C219.529 168.238 219.607 167.969 219.607 167.672C219.607 167.383 219.529 167.121 219.373 166.887C219.217 166.648 219.012 166.479 218.758 166.377C218.504 166.275 218.082 166.225 217.492 166.225H215.975ZM226.463 165.164C227.768 165.164 228.859 165.6 229.738 166.471C230.617 167.342 231.057 168.414 231.057 169.688C231.057 170.949 230.617 172.02 229.738 172.898C228.863 173.777 227.795 174.217 226.533 174.217C225.256 174.217 224.178 173.779 223.299 172.904C222.42 172.029 221.98 170.971 221.98 169.729C221.98 168.9 222.18 168.133 222.578 167.426C222.98 166.719 223.527 166.166 224.219 165.768C224.91 165.365 225.658 165.164 226.463 165.164ZM226.504 166.008C225.867 166.008 225.264 166.174 224.693 166.506C224.123 166.838 223.678 167.285 223.357 167.848C223.037 168.41 222.877 169.037 222.877 169.729C222.877 170.752 223.23 171.617 223.938 172.324C224.648 173.027 225.504 173.379 226.504 173.379C227.172 173.379 227.789 173.217 228.355 172.893C228.926 172.568 229.369 172.125 229.686 171.562C230.006 171 230.166 170.375 230.166 169.688C230.166 169.004 230.006 168.387 229.686 167.836C229.369 167.281 228.922 166.838 228.344 166.506C227.766 166.174 227.152 166.008 226.504 166.008ZM232.451 166.213V165.381H236.998L233.395 173.162H236.816V174H232.064L235.691 166.213H232.451ZM241.756 165.381H242.617V174H241.756V165.381ZM244.604 174V165.381H244.791L250.521 171.979V165.381H251.371V174H251.178L245.494 167.484V174H244.604ZM252.625 166.219V165.381H257.354V166.219H255.432V174H254.553V166.219H252.625ZM258.596 165.381H263.535V166.23H259.457V168.926H263.5V169.77H259.457V173.15H263.5V174H258.596V165.381ZM273.338 166.828L272.67 167.461C272.189 166.988 271.662 166.631 271.088 166.389C270.518 166.143 269.961 166.02 269.418 166.02C268.742 166.02 268.098 166.186 267.484 166.518C266.875 166.85 266.402 167.301 266.066 167.871C265.73 168.438 265.562 169.037 265.562 169.67C265.562 170.318 265.736 170.936 266.084 171.521C266.432 172.104 266.912 172.562 267.525 172.898C268.139 173.23 268.811 173.396 269.541 173.396C270.428 173.396 271.178 173.146 271.791 172.646C272.404 172.146 272.768 171.498 272.881 170.701H270.133V169.869H273.848C273.84 171.201 273.443 172.26 272.658 173.045C271.877 173.826 270.83 174.217 269.518 174.217C267.924 174.217 266.662 173.674 265.732 172.588C265.018 171.752 264.66 170.785 264.66 169.688C264.66 168.871 264.865 168.111 265.275 167.408C265.686 166.705 266.248 166.156 266.963 165.762C267.678 165.363 268.486 165.164 269.389 165.164C270.119 165.164 270.807 165.297 271.451 165.562C272.096 165.824 272.725 166.246 273.338 166.828ZM275.535 165.381H277.252C278.209 165.381 278.857 165.42 279.197 165.498C279.709 165.615 280.125 165.867 280.445 166.254C280.766 166.637 280.926 167.109 280.926 167.672C280.926 168.141 280.814 168.553 280.592 168.908C280.373 169.264 280.059 169.533 279.648 169.717C279.238 169.896 278.672 169.988 277.949 169.992L281.049 174H279.982L276.889 169.992H276.396V174H275.535V165.381ZM276.396 166.225V169.154L277.879 169.166C278.453 169.166 278.877 169.111 279.15 169.002C279.428 168.893 279.643 168.719 279.795 168.48C279.951 168.238 280.029 167.969 280.029 167.672C280.029 167.383 279.951 167.121 279.795 166.887C279.639 166.648 279.434 166.479 279.18 166.377C278.926 166.275 278.504 166.225 277.914 166.225H276.396ZM286.299 165.381L290.318 174H289.393L288.039 171.164H284.324L282.977 174H282.016L286.088 165.381H286.299ZM286.193 167.209L284.711 170.332H287.658L286.193 167.209ZM291.66 165.381H292.527V173.168H295.838V174H291.66V165.381ZM208.164 180.381H212.482V181.23H209.02V183.926H212.482V184.775H209.02V189H208.164V180.381ZM213.994 180.381H218.934V181.23H214.855V183.926H218.898V184.77H214.855V188.15H218.898V189H213.994V180.381ZM220.299 180.381H221.16V189H220.299V180.381ZM225.959 180.381H226.826V186.199C226.826 187.094 226.756 187.717 226.615 188.068C226.479 188.416 226.248 188.695 225.924 188.906C225.6 189.113 225.207 189.217 224.746 189.217C224.398 189.217 224.055 189.148 223.715 189.012C223.379 188.879 223.006 188.643 222.596 188.303L223.053 187.617C223.502 187.934 223.875 188.156 224.172 188.285C224.367 188.371 224.559 188.414 224.746 188.414C224.992 188.414 225.215 188.34 225.414 188.191C225.617 188.043 225.758 187.846 225.836 187.6C225.918 187.354 225.959 186.877 225.959 186.17V180.381ZM232.451 180.381L236.471 189H235.545L234.191 186.164H230.477L229.129 189H228.168L232.24 180.381H232.451ZM232.346 182.209L230.863 185.332H233.811L232.346 182.209ZM234.057 178.518L234.467 179.086C234.186 179.289 233.947 179.426 233.752 179.496C233.561 179.566 233.357 179.602 233.143 179.602C232.861 179.602 232.572 179.529 232.275 179.385C232.021 179.26 231.859 179.188 231.789 179.168C231.695 179.141 231.594 179.127 231.484 179.127C231.348 179.127 231.217 179.152 231.092 179.203C230.971 179.25 230.793 179.359 230.559 179.531L230.172 178.934C230.527 178.555 230.967 178.365 231.49 178.365C231.74 178.365 232.039 178.443 232.387 178.6C232.719 178.752 232.98 178.828 233.172 178.828C233.387 178.828 233.682 178.725 234.057 178.518ZM241.92 180.164C243.225 180.164 244.316 180.6 245.195 181.471C246.074 182.342 246.514 183.414 246.514 184.688C246.514 185.949 246.074 187.02 245.195 187.898C244.32 188.777 243.252 189.217 241.99 189.217C240.713 189.217 239.635 188.779 238.756 187.904C237.877 187.029 237.438 185.971 237.438 184.729C237.438 183.9 237.637 183.133 238.035 182.426C238.438 181.719 238.984 181.166 239.676 180.768C240.367 180.365 241.115 180.164 241.92 180.164ZM241.961 181.008C241.324 181.008 240.721 181.174 240.15 181.506C239.58 181.838 239.135 182.285 238.814 182.848C238.494 183.41 238.334 184.037 238.334 184.729C238.334 185.752 238.688 186.617 239.395 187.324C240.105 188.027 240.961 188.379 241.961 188.379C242.629 188.379 243.246 188.217 243.812 187.893C244.383 187.568 244.826 187.125 245.143 186.562C245.463 186 245.623 185.375 245.623 184.688C245.623 184.004 245.463 183.387 245.143 182.836C244.826 182.281 244.379 181.838 243.801 181.506C243.223 181.174 242.609 181.008 241.961 181.008ZM251.564 180.381H253.281C254.266 180.381 254.93 180.424 255.273 180.51C255.766 180.631 256.168 180.881 256.48 181.26C256.793 181.635 256.949 182.107 256.949 182.678C256.949 183.252 256.797 183.727 256.492 184.102C256.188 184.473 255.768 184.723 255.232 184.852C254.842 184.945 254.111 184.992 253.041 184.992H252.426V189H251.564V180.381ZM252.426 181.219V184.148L253.885 184.166C254.475 184.166 254.906 184.113 255.18 184.008C255.453 183.898 255.668 183.725 255.824 183.486C255.98 183.244 256.059 182.975 256.059 182.678C256.059 182.389 255.98 182.125 255.824 181.887C255.668 181.645 255.461 181.473 255.203 181.371C254.949 181.27 254.531 181.219 253.949 181.219H252.426ZM258.719 180.381H260.436C261.393 180.381 262.041 180.42 262.381 180.498C262.893 180.615 263.309 180.867 263.629 181.254C263.949 181.637 264.109 182.109 264.109 182.672C264.109 183.141 263.998 183.553 263.775 183.908C263.557 184.264 263.242 184.533 262.832 184.717C262.422 184.896 261.855 184.988 261.133 184.992L264.232 189H263.166L260.072 184.992H259.58V189H258.719V180.381ZM259.58 181.225V184.154L261.062 184.166C261.637 184.166 262.061 184.111 262.334 184.002C262.611 183.893 262.826 183.719 262.979 183.48C263.135 183.238 263.213 182.969 263.213 182.672C263.213 182.383 263.135 182.121 262.979 181.887C262.822 181.648 262.617 181.479 262.363 181.377C262.109 181.275 261.688 181.225 261.098 181.225H259.58ZM265.967 180.381H270.906V181.23H266.828V183.926H270.871V184.77H266.828V188.15H270.871V189H265.967V180.381ZM271.539 181.219V180.381H276.268V181.219H274.346V189H273.467V181.219H271.539ZM281.611 180.164C282.916 180.164 284.008 180.6 284.887 181.471C285.766 182.342 286.205 183.414 286.205 184.688C286.205 185.949 285.766 187.02 284.887 187.898C284.012 188.777 282.943 189.217 281.682 189.217C280.404 189.217 279.326 188.779 278.447 187.904C277.568 187.029 277.129 185.971 277.129 184.729C277.129 183.9 277.328 183.133 277.727 182.426C278.129 181.719 278.676 181.166 279.367 180.768C280.059 180.365 280.807 180.164 281.611 180.164ZM281.652 181.008C281.016 181.008 280.412 181.174 279.842 181.506C279.271 181.838 278.826 182.285 278.506 182.848C278.186 183.41 278.025 184.037 278.025 184.729C278.025 185.752 278.379 186.617 279.086 187.324C279.797 188.027 280.652 188.379 281.652 188.379C282.32 188.379 282.938 188.217 283.504 187.893C284.074 187.568 284.518 187.125 284.834 186.562C285.154 186 285.314 185.375 285.314 184.688C285.314 184.004 285.154 183.387 284.834 182.836C284.518 182.281 284.07 181.838 283.492 181.506C282.914 181.174 282.301 181.008 281.652 181.008ZM178.445 196.98L177.766 197.502C177.391 197.014 176.939 196.645 176.412 196.395C175.889 196.141 175.312 196.014 174.684 196.014C173.996 196.014 173.359 196.18 172.773 196.512C172.188 196.84 171.732 197.283 171.408 197.842C171.088 198.396 170.928 199.021 170.928 199.717C170.928 200.768 171.287 201.645 172.006 202.348C172.729 203.051 173.639 203.402 174.736 203.402C175.943 203.402 176.953 202.93 177.766 201.984L178.445 202.5C178.016 203.047 177.479 203.471 176.834 203.771C176.193 204.068 175.477 204.217 174.684 204.217C173.176 204.217 171.986 203.715 171.115 202.711C170.385 201.863 170.02 200.84 170.02 199.641C170.02 198.379 170.461 197.318 171.344 196.459C172.23 195.596 173.34 195.164 174.672 195.164C175.477 195.164 176.203 195.324 176.852 195.645C177.5 195.961 178.031 196.406 178.445 196.98ZM184.287 195.164C185.592 195.164 186.684 195.6 187.562 196.471C188.441 197.342 188.881 198.414 188.881 199.688C188.881 200.949 188.441 202.02 187.562 202.898C186.688 203.777 185.619 204.217 184.357 204.217C183.08 204.217 182.002 203.779 181.123 202.904C180.244 202.029 179.805 200.971 179.805 199.729C179.805 198.9 180.004 198.133 180.402 197.426C180.805 196.719 181.352 196.166 182.043 195.768C182.734 195.365 183.482 195.164 184.287 195.164ZM184.328 196.008C183.691 196.008 183.088 196.174 182.518 196.506C181.947 196.838 181.502 197.285 181.182 197.848C180.861 198.41 180.701 199.037 180.701 199.729C180.701 200.752 181.055 201.617 181.762 202.324C182.473 203.027 183.328 203.379 184.328 203.379C184.996 203.379 185.613 203.217 186.18 202.893C186.75 202.568 187.193 202.125 187.51 201.562C187.83 201 187.99 200.375 187.99 199.688C187.99 199.004 187.83 198.387 187.51 197.836C187.193 197.281 186.746 196.838 186.168 196.506C185.59 196.174 184.977 196.008 184.328 196.008ZM190.152 195.381H191.16L193.223 198.744L195.303 195.381H196.299L193.732 199.559L196.469 204H195.461L193.223 200.385L190.973 204H189.965L192.713 199.559L190.152 195.381ZM197.799 195.381H198.66V204H197.799V195.381ZM200.646 204V195.381H200.834L206.564 201.979V195.381H207.414V204H207.221L201.537 197.484V204H200.646ZM209.512 195.381H210.379V198.996H214.762V195.381H215.629V204H214.762V199.84H210.379V204H209.512V195.381ZM221.248 195.381L225.268 204H224.342L222.988 201.164H219.273L217.926 204H216.965L221.037 195.381H221.248ZM221.143 197.209L219.66 200.332H222.607L221.143 197.209ZM229.938 204V195.381H231.725C233.014 195.381 233.949 195.484 234.531 195.691C235.367 195.984 236.02 196.492 236.488 197.215C236.961 197.938 237.197 198.799 237.197 199.799C237.197 200.662 237.01 201.422 236.635 202.078C236.264 202.734 235.779 203.219 235.182 203.531C234.588 203.844 233.754 204 232.68 204H229.938ZM230.764 203.186H231.76C232.951 203.186 233.777 203.111 234.238 202.963C234.887 202.752 235.396 202.373 235.768 201.826C236.139 201.275 236.324 200.604 236.324 199.811C236.324 198.979 236.123 198.268 235.721 197.678C235.318 197.088 234.758 196.684 234.039 196.465C233.5 196.301 232.611 196.219 231.373 196.219H230.764V203.186ZM242.389 195.381L246.408 204H245.482L244.129 201.164H240.414L239.066 204H238.105L242.178 195.381H242.389ZM242.283 197.209L240.801 200.332H243.748L242.283 197.209ZM254.6 195.381L258.619 204H257.693L256.34 201.164H252.625L251.277 204H250.316L254.389 195.381H254.6ZM254.494 197.209L253.012 200.332H255.959L254.494 197.209ZM259.07 202.395L259.803 201.955C260.318 202.904 260.914 203.379 261.59 203.379C261.879 203.379 262.15 203.312 262.404 203.18C262.658 203.043 262.852 202.861 262.984 202.635C263.117 202.408 263.184 202.168 263.184 201.914C263.184 201.625 263.086 201.342 262.891 201.064C262.621 200.682 262.129 200.221 261.414 199.682C260.695 199.139 260.248 198.746 260.072 198.504C259.768 198.098 259.615 197.658 259.615 197.186C259.615 196.811 259.705 196.469 259.885 196.16C260.064 195.852 260.316 195.609 260.641 195.434C260.969 195.254 261.324 195.164 261.707 195.164C262.113 195.164 262.492 195.266 262.844 195.469C263.199 195.668 263.574 196.037 263.969 196.576L263.266 197.109C262.941 196.68 262.664 196.396 262.434 196.26C262.207 196.123 261.959 196.055 261.689 196.055C261.342 196.055 261.057 196.16 260.834 196.371C260.615 196.582 260.506 196.842 260.506 197.15C260.506 197.338 260.545 197.52 260.623 197.695C260.701 197.871 260.844 198.062 261.051 198.27C261.164 198.379 261.535 198.666 262.164 199.131C262.91 199.682 263.422 200.172 263.699 200.602C263.977 201.031 264.115 201.463 264.115 201.896C264.115 202.521 263.877 203.064 263.4 203.525C262.928 203.986 262.352 204.217 261.672 204.217C261.148 204.217 260.674 204.078 260.248 203.801C259.822 203.52 259.43 203.051 259.07 202.395ZM269.459 195.381L273.479 204H272.553L271.199 201.164H267.484L266.137 204H265.176L269.248 195.381H269.459ZM269.354 197.209L267.871 200.332H270.818L269.354 197.209ZM281.67 195.381L285.689 204H284.764L283.41 201.164H279.695L278.348 204H277.387L281.459 195.381H281.67ZM281.564 197.209L280.082 200.332H283.029L281.564 197.209ZM286.141 202.395L286.873 201.955C287.389 202.904 287.984 203.379 288.66 203.379C288.949 203.379 289.221 203.312 289.475 203.18C289.729 203.043 289.922 202.861 290.055 202.635C290.188 202.408 290.254 202.168 290.254 201.914C290.254 201.625 290.156 201.342 289.961 201.064C289.691 200.682 289.199 200.221 288.484 199.682C287.766 199.139 287.318 198.746 287.143 198.504C286.838 198.098 286.686 197.658 286.686 197.186C286.686 196.811 286.775 196.469 286.955 196.16C287.135 195.852 287.387 195.609 287.711 195.434C288.039 195.254 288.395 195.164 288.777 195.164C289.184 195.164 289.562 195.266 289.914 195.469C290.27 195.668 290.645 196.037 291.039 196.576L290.336 197.109C290.012 196.68 289.734 196.396 289.504 196.26C289.277 196.123 289.029 196.055 288.76 196.055C288.412 196.055 288.127 196.16 287.904 196.371C287.686 196.582 287.576 196.842 287.576 197.15C287.576 197.338 287.615 197.52 287.693 197.695C287.771 197.871 287.914 198.062 288.121 198.27C288.234 198.379 288.605 198.666 289.234 199.131C289.98 199.682 290.492 200.172 290.77 200.602C291.047 201.031 291.186 201.463 291.186 201.896C291.186 202.521 290.947 203.064 290.471 203.525C289.998 203.986 289.422 204.217 288.742 204.217C288.219 204.217 287.744 204.078 287.318 203.801C286.893 203.52 286.5 203.051 286.141 202.395ZM292.117 202.395L292.85 201.955C293.365 202.904 293.961 203.379 294.637 203.379C294.926 203.379 295.197 203.312 295.451 203.18C295.705 203.043 295.898 202.861 296.031 202.635C296.164 202.408 296.23 202.168 296.23 201.914C296.23 201.625 296.133 201.342 295.938 201.064C295.668 200.682 295.176 200.221 294.461 199.682C293.742 199.139 293.295 198.746 293.119 198.504C292.814 198.098 292.662 197.658 292.662 197.186C292.662 196.811 292.752 196.469 292.932 196.16C293.111 195.852 293.363 195.609 293.688 195.434C294.016 195.254 294.371 195.164 294.754 195.164C295.16 195.164 295.539 195.266 295.891 195.469C296.246 195.668 296.621 196.037 297.016 196.576L296.312 197.109C295.988 196.68 295.711 196.396 295.48 196.26C295.254 196.123 295.006 196.055 294.736 196.055C294.389 196.055 294.104 196.16 293.881 196.371C293.662 196.582 293.553 196.842 293.553 197.15C293.553 197.338 293.592 197.52 293.67 197.695C293.748 197.871 293.891 198.062 294.098 198.27C294.211 198.379 294.582 198.666 295.211 199.131C295.957 199.682 296.469 200.172 296.746 200.602C297.023 201.031 297.162 201.463 297.162 201.896C297.162 202.521 296.924 203.064 296.447 203.525C295.975 203.986 295.398 204.217 294.719 204.217C294.195 204.217 293.721 204.078 293.295 203.801C292.869 203.52 292.477 203.051 292.117 202.395ZM302.506 195.381L306.525 204H305.6L304.246 201.164H300.531L299.184 204H298.223L302.295 195.381H302.506ZM302.4 197.209L300.918 200.332H303.865L302.4 197.209ZM307.867 204V195.381H309.654C310.943 195.381 311.879 195.484 312.461 195.691C313.297 195.984 313.949 196.492 314.418 197.215C314.891 197.938 315.127 198.799 315.127 199.799C315.127 200.662 314.939 201.422 314.564 202.078C314.193 202.734 313.709 203.219 313.111 203.531C312.518 203.844 311.684 204 310.609 204H307.867ZM308.693 203.186H309.689C310.881 203.186 311.707 203.111 312.168 202.963C312.816 202.752 313.326 202.373 313.697 201.826C314.068 201.275 314.254 200.604 314.254 199.811C314.254 198.979 314.053 198.268 313.65 197.678C313.248 197.088 312.688 196.684 311.969 196.465C311.43 196.301 310.541 196.219 309.303 196.219H308.693V203.186ZM320.318 195.381L324.338 204H323.412L322.059 201.164H318.344L316.996 204H316.035L320.107 195.381H320.318ZM320.213 197.209L318.73 200.332H321.678L320.213 197.209ZM181.082 219L182.307 210.381H182.447L185.951 217.453L189.42 210.381H189.561L190.797 219H189.947L189.104 212.836L186.057 219H185.84L182.752 212.789L181.914 219H181.082ZM196.023 210.381L200.043 219H199.117L197.764 216.164H194.049L192.701 219H191.74L195.812 210.381H196.023ZM195.918 212.209L194.436 215.332H197.383L195.918 212.209ZM209.412 211.98L208.732 212.502C208.357 212.014 207.906 211.645 207.379 211.395C206.855 211.141 206.279 211.014 205.65 211.014C204.963 211.014 204.326 211.18 203.74 211.512C203.154 211.84 202.699 212.283 202.375 212.842C202.055 213.396 201.895 214.021 201.895 214.717C201.895 215.768 202.254 216.645 202.973 217.348C203.695 218.051 204.605 218.402 205.703 218.402C206.91 218.402 207.92 217.93 208.732 216.984L209.412 217.5C208.982 218.047 208.445 218.471 207.801 218.771C207.16 219.068 206.443 219.217 205.65 219.217C204.143 219.217 202.953 218.715 202.082 217.711C201.352 216.863 200.986 215.84 200.986 214.641C200.986 213.379 201.428 212.318 202.311 211.459C203.197 210.596 204.307 210.164 205.639 210.164C206.443 210.164 207.17 210.324 207.818 210.645C208.467 210.961 208.998 211.406 209.412 211.98ZM214.668 210.381L218.688 219H217.762L216.408 216.164H212.693L211.346 219H210.385L214.457 210.381H214.668ZM214.562 212.209L213.08 215.332H216.027L214.562 212.209ZM220.076 210.381H221.793C222.75 210.381 223.398 210.42 223.738 210.498C224.25 210.615 224.666 210.867 224.986 211.254C225.307 211.637 225.467 212.109 225.467 212.672C225.467 213.141 225.355 213.553 225.133 213.908C224.914 214.264 224.6 214.533 224.189 214.717C223.779 214.896 223.213 214.988 222.49 214.992L225.59 219H224.523L221.43 214.992H220.938V219H220.076V210.381ZM220.938 211.225V214.154L222.42 214.166C222.994 214.166 223.418 214.111 223.691 214.002C223.969 213.893 224.184 213.719 224.336 213.48C224.492 213.238 224.57 212.969 224.57 212.672C224.57 212.383 224.492 212.121 224.336 211.887C224.18 211.648 223.975 211.479 223.721 211.377C223.467 211.275 223.045 211.225 222.455 211.225H220.938ZM227.365 210.381H229.082C230.039 210.381 230.688 210.42 231.027 210.498C231.539 210.615 231.955 210.867 232.275 211.254C232.596 211.637 232.756 212.109 232.756 212.672C232.756 213.141 232.645 213.553 232.422 213.908C232.203 214.264 231.889 214.533 231.479 214.717C231.068 214.896 230.502 214.988 229.779 214.992L232.879 219H231.812L228.719 214.992H228.227V219H227.365V210.381ZM228.227 211.225V214.154L229.709 214.166C230.283 214.166 230.707 214.111 230.98 214.002C231.258 213.893 231.473 213.719 231.625 213.48C231.781 213.238 231.859 212.969 231.859 212.672C231.859 212.383 231.781 212.121 231.625 211.887C231.469 211.648 231.264 211.479 231.01 211.377C230.756 211.275 230.334 211.225 229.744 211.225H228.227ZM238.129 210.381L242.148 219H241.223L239.869 216.164H236.154L234.807 219H233.846L237.918 210.381H238.129ZM238.023 212.209L236.541 215.332H239.488L238.023 212.209ZM239.734 208.518L240.145 209.086C239.863 209.289 239.625 209.426 239.43 209.496C239.238 209.566 239.035 209.602 238.82 209.602C238.539 209.602 238.25 209.529 237.953 209.385C237.699 209.26 237.537 209.188 237.467 209.168C237.373 209.141 237.271 209.127 237.162 209.127C237.025 209.127 236.895 209.152 236.77 209.203C236.648 209.25 236.471 209.359 236.236 209.531L235.85 208.934C236.205 208.555 236.645 208.365 237.168 208.365C237.418 208.365 237.717 208.443 238.064 208.6C238.396 208.752 238.658 208.828 238.85 208.828C239.064 208.828 239.359 208.725 239.734 208.518ZM247.598 210.164C248.902 210.164 249.994 210.6 250.873 211.471C251.752 212.342 252.191 213.414 252.191 214.688C252.191 215.949 251.752 217.02 250.873 217.898C249.998 218.777 248.93 219.217 247.668 219.217C246.391 219.217 245.312 218.779 244.434 217.904C243.555 217.029 243.115 215.971 243.115 214.729C243.115 213.9 243.314 213.133 243.713 212.426C244.115 211.719 244.662 211.166 245.354 210.768C246.045 210.365 246.793 210.164 247.598 210.164ZM247.639 211.008C247.002 211.008 246.398 211.174 245.828 211.506C245.258 211.838 244.812 212.285 244.492 212.848C244.172 213.41 244.012 214.037 244.012 214.729C244.012 215.752 244.365 216.617 245.072 217.324C245.783 218.027 246.639 218.379 247.639 218.379C248.307 218.379 248.924 218.217 249.49 217.893C250.061 217.568 250.504 217.125 250.82 216.562C251.141 216 251.301 215.375 251.301 214.688C251.301 214.004 251.141 213.387 250.82 212.836C250.504 212.281 250.057 211.838 249.479 211.506C248.9 211.174 248.287 211.008 247.639 211.008ZM260.77 210.381L264.789 219H263.863L262.51 216.164H258.795L257.447 219H256.486L260.559 210.381H260.77ZM260.664 212.209L259.182 215.332H262.129L260.664 212.209ZM270.238 210.164C271.543 210.164 272.635 210.6 273.514 211.471C274.393 212.342 274.832 213.414 274.832 214.688C274.832 215.949 274.393 217.02 273.514 217.898C272.639 218.777 271.57 219.217 270.309 219.217C269.031 219.217 267.953 218.779 267.074 217.904C266.195 217.029 265.756 215.971 265.756 214.729C265.756 213.9 265.955 213.133 266.354 212.426C266.756 211.719 267.303 211.166 267.994 210.768C268.686 210.365 269.434 210.164 270.238 210.164ZM270.279 211.008C269.643 211.008 269.039 211.174 268.469 211.506C267.898 211.838 267.453 212.285 267.133 212.848C266.812 213.41 266.652 214.037 266.652 214.729C266.652 215.752 267.006 216.617 267.713 217.324C268.424 218.027 269.279 218.379 270.279 218.379C270.947 218.379 271.564 218.217 272.131 217.893C272.701 217.568 273.145 217.125 273.461 216.562C273.781 216 273.941 215.375 273.941 214.688C273.941 214.004 273.781 213.387 273.461 212.836C273.145 212.281 272.697 211.838 272.119 211.506C271.541 211.174 270.928 211.008 270.279 211.008ZM278.998 217.395L279.73 216.955C280.246 217.904 280.842 218.379 281.518 218.379C281.807 218.379 282.078 218.312 282.332 218.18C282.586 218.043 282.779 217.861 282.912 217.635C283.045 217.408 283.111 217.168 283.111 216.914C283.111 216.625 283.014 216.342 282.818 216.064C282.549 215.682 282.057 215.221 281.342 214.682C280.623 214.139 280.176 213.746 280 213.504C279.695 213.098 279.543 212.658 279.543 212.186C279.543 211.811 279.633 211.469 279.812 211.16C279.992 210.852 280.244 210.609 280.568 210.434C280.896 210.254 281.252 210.164 281.635 210.164C282.041 210.164 282.42 210.266 282.771 210.469C283.127 210.668 283.502 211.037 283.896 211.576L283.193 212.109C282.869 211.68 282.592 211.396 282.361 211.26C282.135 211.123 281.887 211.055 281.617 211.055C281.27 211.055 280.984 211.16 280.762 211.371C280.543 211.582 280.434 211.842 280.434 212.15C280.434 212.338 280.473 212.52 280.551 212.695C280.629 212.871 280.771 213.062 280.979 213.27C281.092 213.379 281.463 213.666 282.092 214.131C282.838 214.682 283.35 215.172 283.627 215.602C283.904 216.031 284.043 216.463 284.043 216.896C284.043 217.521 283.805 218.064 283.328 218.525C282.855 218.986 282.279 219.217 281.6 219.217C281.076 219.217 280.602 219.078 280.176 218.801C279.75 218.52 279.357 218.051 278.998 217.395ZM285.895 210.381H286.756V215.584C286.756 216.201 286.768 216.586 286.791 216.738C286.834 217.078 286.934 217.363 287.09 217.594C287.246 217.82 287.486 218.012 287.811 218.168C288.135 218.32 288.461 218.396 288.789 218.396C289.074 218.396 289.348 218.336 289.609 218.215C289.871 218.094 290.09 217.926 290.266 217.711C290.441 217.496 290.57 217.236 290.652 216.932C290.711 216.713 290.74 216.264 290.74 215.584V210.381H291.602V215.584C291.602 216.354 291.525 216.977 291.373 217.453C291.225 217.926 290.924 218.338 290.471 218.689C290.021 219.041 289.477 219.217 288.836 219.217C288.141 219.217 287.545 219.051 287.049 218.719C286.553 218.387 286.221 217.947 286.053 217.4C285.947 217.064 285.895 216.459 285.895 215.584V210.381ZM302.043 211.828L301.375 212.461C300.895 211.988 300.367 211.631 299.793 211.389C299.223 211.143 298.666 211.02 298.123 211.02C297.447 211.02 296.803 211.186 296.189 211.518C295.58 211.85 295.107 212.301 294.771 212.871C294.436 213.438 294.268 214.037 294.268 214.67C294.268 215.318 294.441 215.936 294.789 216.521C295.137 217.104 295.617 217.562 296.23 217.898C296.844 218.23 297.516 218.396 298.246 218.396C299.133 218.396 299.883 218.146 300.496 217.646C301.109 217.146 301.473 216.498 301.586 215.701H298.838V214.869H302.553C302.545 216.201 302.148 217.26 301.363 218.045C300.582 218.826 299.535 219.217 298.223 219.217C296.629 219.217 295.367 218.674 294.438 217.588C293.723 216.752 293.365 215.785 293.365 214.688C293.365 213.871 293.57 213.111 293.98 212.408C294.391 211.705 294.953 211.156 295.668 210.762C296.383 210.363 297.191 210.164 298.094 210.164C298.824 210.164 299.512 210.297 300.156 210.562C300.801 210.824 301.43 211.246 302.043 211.828ZM308.301 210.164C309.605 210.164 310.697 210.6 311.576 211.471C312.455 212.342 312.895 213.414 312.895 214.688C312.895 215.949 312.455 217.02 311.576 217.898C310.701 218.777 309.633 219.217 308.371 219.217C307.094 219.217 306.016 218.779 305.137 217.904C304.258 217.029 303.818 215.971 303.818 214.729C303.818 213.9 304.018 213.133 304.416 212.426C304.818 211.719 305.365 211.166 306.057 210.768C306.748 210.365 307.496 210.164 308.301 210.164ZM308.342 211.008C307.705 211.008 307.102 211.174 306.531 211.506C305.961 211.838 305.516 212.285 305.195 212.848C304.875 213.41 304.715 214.037 304.715 214.729C304.715 215.752 305.068 216.617 305.775 217.324C306.486 218.027 307.342 218.379 308.342 218.379C309.01 218.379 309.627 218.217 310.193 217.893C310.764 217.568 311.207 217.125 311.523 216.562C311.844 216 312.004 215.375 312.004 214.688C312.004 214.004 311.844 213.387 311.523 212.836C311.207 212.281 310.76 211.838 310.182 211.506C309.604 211.174 308.99 211.008 308.342 211.008Z" fill="#E57D25"/>
<path d="M197.36 142C197.072 142 196.837 141.915 196.656 141.744C196.485 141.563 196.4 141.328 196.4 141.04V131.76C196.4 131.472 196.485 131.243 196.656 131.072C196.837 130.891 197.072 130.8 197.36 130.8H200.96C201.152 130.8 201.312 130.816 201.44 130.848C201.579 130.869 201.691 130.917 201.776 130.992C201.872 131.056 201.952 131.152 202.016 131.28C202.08 131.397 202.139 131.547 202.192 131.728L203.056 134.656C203.141 134.891 203.269 135.008 203.44 135.008C203.515 135.008 203.584 134.981 203.648 134.928C203.723 134.864 203.776 134.773 203.808 134.656L204.672 131.728C204.725 131.547 204.784 131.397 204.848 131.28C204.912 131.152 204.987 131.056 205.072 130.992C205.168 130.917 205.28 130.869 205.408 130.848C205.547 130.816 205.712 130.8 205.904 130.8H209.504C209.792 130.8 210.021 130.891 210.192 131.072C210.373 131.243 210.464 131.472 210.464 131.76V141.04C210.464 141.328 210.373 141.563 210.192 141.744C210.021 141.915 209.792 142 209.504 142H207.696C207.408 142 207.173 141.915 206.992 141.744C206.821 141.563 206.736 141.328 206.736 141.04V137.264C206.736 137.136 206.677 137.072 206.56 137.072C206.453 137.072 206.395 137.125 206.384 137.232L205.504 141.072C205.429 141.435 205.312 141.68 205.152 141.808C204.992 141.936 204.72 142 204.336 142H202.528C202.144 142 201.872 141.936 201.712 141.808C201.563 141.68 201.445 141.435 201.36 141.072L200.48 137.232C200.469 137.125 200.411 137.072 200.304 137.072C200.187 137.072 200.128 137.136 200.128 137.264V141.04C200.128 141.328 200.037 141.563 199.856 141.744C199.685 141.915 199.456 142 199.168 142H197.36ZM211.275 131.76C211.275 131.472 211.361 131.243 211.531 131.072C211.713 130.891 211.947 130.8 212.235 130.8H217.995C218.283 130.8 218.513 130.891 218.683 131.072C218.865 131.243 218.955 131.472 218.955 131.76V132.88C218.955 133.168 218.865 133.403 218.683 133.584C218.513 133.755 218.283 133.84 217.995 133.84H215.595C215.414 133.84 215.27 133.893 215.163 134C215.057 134.096 215.003 134.235 215.003 134.416V134.464C215.003 134.645 215.057 134.789 215.163 134.896C215.27 134.992 215.414 135.04 215.595 135.04H217.083C217.371 135.04 217.601 135.131 217.771 135.312C217.953 135.483 218.043 135.712 218.043 136V136.8C218.043 137.088 217.953 137.323 217.771 137.504C217.601 137.675 217.371 137.76 217.083 137.76H215.595C215.414 137.76 215.27 137.813 215.163 137.92C215.057 138.016 215.003 138.155 215.003 138.336V138.384C215.003 138.565 215.057 138.709 215.163 138.816C215.27 138.912 215.414 138.96 215.595 138.96H217.995C218.283 138.96 218.513 139.051 218.683 139.232C218.865 139.403 218.955 139.632 218.955 139.92V141.04C218.955 141.328 218.865 141.563 218.683 141.744C218.513 141.915 218.283 142 217.995 142H212.235C211.947 142 211.713 141.915 211.531 141.744C211.361 141.563 211.275 141.328 211.275 141.04V131.76ZM229.027 130.784C229.315 130.784 229.55 130.875 229.731 131.056C229.912 131.237 230.003 131.472 230.003 131.76V141.04C230.003 141.328 229.912 141.563 229.731 141.744C229.55 141.925 229.315 142.016 229.027 142.016H227.219C227.027 142.016 226.862 142.005 226.723 141.984C226.584 141.952 226.462 141.904 226.355 141.84C226.248 141.776 226.147 141.691 226.051 141.584C225.955 141.477 225.859 141.344 225.763 141.184L224.083 138.352C223.987 138.213 223.87 138.144 223.731 138.144C223.635 138.144 223.55 138.181 223.475 138.256C223.4 138.32 223.363 138.416 223.363 138.544V141.04C223.363 141.328 223.272 141.563 223.091 141.744C222.91 141.925 222.675 142.016 222.387 142.016H220.579C220.291 142.016 220.056 141.925 219.875 141.744C219.694 141.563 219.603 141.328 219.603 141.04V131.76C219.603 131.472 219.694 131.237 219.875 131.056C220.056 130.875 220.291 130.784 220.579 130.784H222.723C222.979 130.784 223.166 130.821 223.283 130.896C223.411 130.971 223.544 131.12 223.683 131.344L225.523 134.448C225.619 134.587 225.736 134.656 225.875 134.656C225.971 134.656 226.056 134.624 226.131 134.56C226.206 134.485 226.243 134.384 226.243 134.256V131.76C226.243 131.472 226.334 131.237 226.515 131.056C226.696 130.875 226.931 130.784 227.219 130.784H229.027ZM230.806 131.76C230.806 131.472 230.892 131.243 231.062 131.072C231.244 130.891 231.478 130.8 231.766 130.8H233.574C233.862 130.8 234.092 130.891 234.262 131.072C234.444 131.243 234.534 131.472 234.534 131.76V137.712C234.534 138.149 234.62 138.496 234.79 138.752C234.961 138.997 235.292 139.12 235.782 139.12C236.273 139.12 236.604 138.997 236.774 138.752C236.945 138.496 237.03 138.149 237.03 137.712V131.76C237.03 131.472 237.116 131.243 237.286 131.072C237.468 130.891 237.702 130.8 237.99 130.8H239.798C240.086 130.8 240.316 130.891 240.486 131.072C240.668 131.243 240.758 131.472 240.758 131.76V137.712C240.758 138.395 240.668 139.013 240.486 139.568C240.305 140.112 240.017 140.576 239.622 140.96C239.228 141.344 238.71 141.643 238.07 141.856C237.441 142.059 236.678 142.16 235.782 142.16C234.876 142.16 234.108 142.059 233.478 141.856C232.849 141.643 232.337 141.344 231.942 140.96C231.548 140.576 231.26 140.112 231.078 139.568C230.897 139.013 230.806 138.395 230.806 137.712V131.76ZM245.713 131.76C245.713 131.472 245.798 131.243 245.969 131.072C246.15 130.891 246.385 130.8 246.673 130.8H250.961C252.646 130.8 253.905 131.243 254.737 132.128C255.569 133.013 255.985 134.437 255.985 136.4C255.985 138.363 255.563 139.787 254.72 140.672C253.878 141.557 252.582 142 250.833 142H246.673C246.385 142 246.15 141.915 245.969 141.744C245.798 141.563 245.713 141.328 245.713 141.04V131.76ZM249.441 134.64V138.16C249.441 138.469 249.531 138.709 249.713 138.88C249.905 139.04 250.15 139.12 250.449 139.12C250.801 139.12 251.083 139.029 251.297 138.848C251.51 138.667 251.675 138.437 251.793 138.16C251.921 137.883 252.001 137.584 252.033 137.264C252.075 136.944 252.097 136.651 252.097 136.384C252.097 136.117 252.075 135.829 252.033 135.52C251.99 135.2 251.91 134.907 251.793 134.64C251.675 134.363 251.51 134.133 251.297 133.952C251.083 133.771 250.801 133.68 250.449 133.68C250.15 133.68 249.905 133.765 249.713 133.936C249.531 134.096 249.441 134.331 249.441 134.64ZM261.595 142.16C259.846 142.16 258.544 141.691 257.691 140.752C256.848 139.813 256.427 138.363 256.427 136.4C256.427 134.437 256.848 132.987 257.691 132.048C258.544 131.109 259.846 130.64 261.595 130.64C263.355 130.64 264.656 131.109 265.499 132.048C266.352 132.976 266.779 134.427 266.779 136.4C266.779 138.373 266.352 139.829 265.499 140.768C264.656 141.696 263.355 142.16 261.595 142.16ZM261.611 139.12C261.856 139.12 262.059 139.083 262.219 139.008C262.379 138.933 262.507 138.795 262.603 138.592C262.699 138.389 262.763 138.112 262.795 137.76C262.838 137.397 262.859 136.933 262.859 136.368C262.859 135.835 262.838 135.397 262.795 135.056C262.763 134.704 262.699 134.427 262.603 134.224C262.507 134.021 262.379 133.883 262.219 133.808C262.059 133.723 261.851 133.68 261.595 133.68C261.35 133.68 261.147 133.717 260.987 133.792C260.827 133.867 260.699 134.005 260.603 134.208C260.507 134.411 260.438 134.688 260.395 135.04C260.363 135.392 260.347 135.845 260.347 136.4C260.347 136.955 260.363 137.408 260.395 137.76C260.438 138.112 260.507 138.389 260.603 138.592C260.699 138.795 260.827 138.933 260.987 139.008C261.158 139.083 261.366 139.12 261.611 139.12ZM271.556 131.76C271.556 131.472 271.642 131.243 271.812 131.072C271.994 130.891 272.228 130.8 272.516 130.8H276.804C278.49 130.8 279.748 131.243 280.58 132.128C281.412 133.013 281.828 134.437 281.828 136.4C281.828 138.363 281.407 139.787 280.564 140.672C279.722 141.557 278.426 142 276.676 142H272.516C272.228 142 271.994 141.915 271.812 141.744C271.642 141.563 271.556 141.328 271.556 141.04V131.76ZM275.284 134.64V138.16C275.284 138.469 275.375 138.709 275.556 138.88C275.748 139.04 275.994 139.12 276.292 139.12C276.644 139.12 276.927 139.029 277.14 138.848C277.354 138.667 277.519 138.437 277.636 138.16C277.764 137.883 277.844 137.584 277.876 137.264C277.919 136.944 277.94 136.651 277.94 136.384C277.94 136.117 277.919 135.829 277.876 135.52C277.834 135.2 277.754 134.907 277.636 134.64C277.519 134.363 277.354 134.133 277.14 133.952C276.927 133.771 276.644 133.68 276.292 133.68C275.994 133.68 275.748 133.765 275.556 133.936C275.375 134.096 275.284 134.331 275.284 134.64ZM283.407 142C283.119 142 282.884 141.915 282.703 141.744C282.532 141.563 282.447 141.328 282.447 141.04V131.76C282.447 131.472 282.532 131.243 282.703 131.072C282.884 130.891 283.119 130.8 283.407 130.8H285.215C285.503 130.8 285.732 130.891 285.903 131.072C286.084 131.243 286.175 131.472 286.175 131.76V141.04C286.175 141.328 286.084 141.563 285.903 141.744C285.732 141.915 285.503 142 285.215 142H283.407ZM287.65 142C287.266 142 287.02 141.936 286.914 141.808C286.818 141.68 286.812 141.429 286.898 141.056L288.914 131.744C288.978 131.456 289.116 131.227 289.33 131.056C289.543 130.885 289.794 130.8 290.082 130.8H294.338C294.626 130.8 294.876 130.885 295.09 131.056C295.303 131.227 295.442 131.456 295.506 131.744L297.522 141.056C297.607 141.429 297.596 141.68 297.49 141.808C297.394 141.936 297.154 142 296.77 142H294.77C294.471 142 294.252 141.947 294.114 141.84C293.975 141.733 293.884 141.536 293.842 141.248C293.778 140.939 293.682 140.736 293.554 140.64C293.426 140.544 293.207 140.496 292.898 140.496H291.522C291.212 140.496 290.994 140.544 290.866 140.64C290.748 140.736 290.658 140.939 290.594 141.248C290.519 141.536 290.428 141.733 290.322 141.84C290.215 141.947 289.991 142 289.65 142H287.65ZM292.274 137.456C292.775 137.456 292.967 137.195 292.85 136.672L292.418 134.688C292.386 134.539 292.316 134.464 292.21 134.464C292.103 134.464 292.034 134.539 292.002 134.688L291.586 136.672C291.468 137.195 291.655 137.456 292.146 137.456H292.274Z" fill="#E57D25"/>
<path d="M50.0996 159L51.3242 150.381H51.4648L54.9688 157.453L58.4375 150.381H58.5781L59.8145 159H58.9648L58.1211 152.836L55.0742 159H54.8574L51.7695 152.789L50.9316 159H50.0996ZM61.6719 150C61.8594 150 62.0195 150.066 62.1523 150.199C62.2852 150.332 62.3516 150.492 62.3516 150.68C62.3516 150.863 62.2852 151.021 62.1523 151.154C62.0195 151.287 61.8594 151.354 61.6719 151.354C61.4883 151.354 61.3301 151.287 61.1973 151.154C61.0645 151.021 60.998 150.863 60.998 150.68C60.998 150.492 61.0645 150.332 61.1973 150.199C61.3301 150.066 61.4883 150 61.6719 150ZM61.2617 152.625H62.0879V159H61.2617V152.625ZM63.0605 152.625H64.0449L65.7324 154.986L67.4199 152.625H68.4043L66.2246 155.654L68.6797 159H67.6836L65.7324 156.322L63.8105 159H62.832L65.2461 155.654L63.0605 152.625ZM79.2441 150.164V159H78.4355V157.904C78.0918 158.322 77.7051 158.637 77.2754 158.848C76.8496 159.059 76.3828 159.164 75.875 159.164C74.9727 159.164 74.2012 158.838 73.5605 158.186C72.9238 157.529 72.6055 156.732 72.6055 155.795C72.6055 154.877 72.9277 154.092 73.5723 153.439C74.2168 152.787 74.9922 152.461 75.8984 152.461C76.4219 152.461 76.8945 152.572 77.3164 152.795C77.7422 153.018 78.1152 153.352 78.4355 153.797V150.164H79.2441ZM75.9629 153.252C75.5059 153.252 75.084 153.365 74.6973 153.592C74.3105 153.814 74.002 154.129 73.7715 154.535C73.5449 154.941 73.4316 155.371 73.4316 155.824C73.4316 156.273 73.5469 156.703 73.7773 157.113C74.0078 157.523 74.3164 157.844 74.7031 158.074C75.0938 158.301 75.5117 158.414 75.957 158.414C76.4062 158.414 76.832 158.301 77.2344 158.074C77.6367 157.848 77.9453 157.541 78.1602 157.154C78.3789 156.768 78.4883 156.332 78.4883 155.848C78.4883 155.109 78.2441 154.492 77.7559 153.996C77.2715 153.5 76.6738 153.252 75.9629 153.252ZM86.4746 156.885L87.166 157.248C86.9395 157.693 86.6777 158.053 86.3809 158.326C86.084 158.6 85.75 158.809 85.3789 158.953C85.0078 159.094 84.5879 159.164 84.1191 159.164C83.0801 159.164 82.2676 158.824 81.6816 158.145C81.0957 157.461 80.8027 156.689 80.8027 155.83C80.8027 155.021 81.0508 154.301 81.5469 153.668C82.1758 152.863 83.0176 152.461 84.0723 152.461C85.1582 152.461 86.0254 152.873 86.6738 153.697C87.1348 154.279 87.3691 155.006 87.377 155.877H81.6465C81.6621 156.619 81.8984 157.229 82.3555 157.705C82.8125 158.178 83.377 158.414 84.0488 158.414C84.373 158.414 84.6875 158.357 84.9922 158.244C85.3008 158.131 85.5625 157.98 85.7773 157.793C85.9922 157.605 86.2246 157.303 86.4746 156.885ZM86.4746 155.168C86.3652 154.73 86.2051 154.381 85.9941 154.119C85.7871 153.857 85.5117 153.646 85.168 153.486C84.8242 153.326 84.4629 153.246 84.084 153.246C83.459 153.246 82.9219 153.447 82.4727 153.85C82.1445 154.143 81.8965 154.582 81.7285 155.168H86.4746ZM94.8652 150.164V150.967C94.5645 150.838 94.3066 150.773 94.0918 150.773C93.9316 150.773 93.7988 150.807 93.6934 150.873C93.5879 150.936 93.5215 151.01 93.4941 151.096C93.4668 151.178 93.4531 151.4 93.4531 151.764V152.625H94.7832V153.328H93.4473V159H92.627V153.328H91.7891V152.625H92.627V151.629C92.627 151.172 92.668 150.846 92.75 150.65C92.8359 150.455 92.9785 150.299 93.1777 150.182C93.3809 150.061 93.625 150 93.9102 150C94.1758 150 94.4941 150.055 94.8652 150.164ZM99.0312 152.461C100.012 152.461 100.824 152.816 101.469 153.527C102.055 154.176 102.348 154.943 102.348 155.83C102.348 156.721 102.037 157.5 101.416 158.168C100.799 158.832 100.004 159.164 99.0312 159.164C98.0547 159.164 97.2559 158.832 96.6348 158.168C96.0176 157.5 95.709 156.721 95.709 155.83C95.709 154.947 96.002 154.182 96.5879 153.533C97.2324 152.818 98.0469 152.461 99.0312 152.461ZM99.0312 153.264C98.3516 153.264 97.7676 153.516 97.2793 154.02C96.791 154.523 96.5469 155.133 96.5469 155.848C96.5469 156.309 96.6582 156.738 96.8809 157.137C97.1035 157.535 97.4043 157.844 97.7832 158.062C98.1621 158.277 98.5781 158.385 99.0312 158.385C99.4844 158.385 99.9004 158.277 100.279 158.062C100.658 157.844 100.959 157.535 101.182 157.137C101.404 156.738 101.516 156.309 101.516 155.848C101.516 155.133 101.27 154.523 100.777 154.02C100.289 153.516 99.707 153.264 99.0312 153.264ZM103.754 150.164H104.574V159H103.754V150.164ZM106.279 150.164H107.1V153.768C107.432 153.33 107.797 153.004 108.195 152.789C108.594 152.57 109.025 152.461 109.49 152.461C109.967 152.461 110.389 152.582 110.756 152.824C111.127 153.066 111.4 153.393 111.576 153.803C111.752 154.209 111.84 154.848 111.84 155.719V159H111.02V155.959C111.02 155.225 110.99 154.734 110.932 154.488C110.83 154.066 110.645 153.75 110.375 153.539C110.109 153.324 109.76 153.217 109.326 153.217C108.83 153.217 108.385 153.381 107.99 153.709C107.6 154.037 107.342 154.443 107.217 154.928C107.139 155.24 107.1 155.818 107.1 156.662V159H106.279V150.164ZM119.955 152.625V159H119.146V157.904C118.803 158.322 118.416 158.637 117.986 158.848C117.561 159.059 117.094 159.164 116.586 159.164C115.684 159.164 114.912 158.838 114.271 158.186C113.635 157.529 113.316 156.732 113.316 155.795C113.316 154.877 113.639 154.092 114.283 153.439C114.928 152.787 115.703 152.461 116.609 152.461C117.133 152.461 117.605 152.572 118.027 152.795C118.453 153.018 118.826 153.352 119.146 153.797V152.625H119.955ZM116.674 153.252C116.217 153.252 115.795 153.365 115.408 153.592C115.021 153.814 114.713 154.129 114.482 154.535C114.256 154.941 114.143 155.371 114.143 155.824C114.143 156.273 114.258 156.703 114.488 157.113C114.719 157.523 115.027 157.844 115.414 158.074C115.805 158.301 116.223 158.414 116.668 158.414C117.117 158.414 117.543 158.301 117.945 158.074C118.348 157.848 118.656 157.541 118.871 157.154C119.09 156.768 119.199 156.332 119.199 155.848C119.199 155.109 118.955 154.492 118.467 153.996C117.982 153.5 117.385 153.252 116.674 153.252ZM125.012 153.322L124.484 153.867C124.047 153.441 123.619 153.229 123.201 153.229C122.936 153.229 122.707 153.316 122.516 153.492C122.328 153.668 122.234 153.873 122.234 154.107C122.234 154.314 122.312 154.512 122.469 154.699C122.625 154.891 122.953 155.115 123.453 155.373C124.062 155.689 124.477 155.994 124.695 156.287C124.91 156.584 125.018 156.918 125.018 157.289C125.018 157.812 124.834 158.256 124.467 158.619C124.1 158.982 123.641 159.164 123.09 159.164C122.723 159.164 122.371 159.084 122.035 158.924C121.703 158.764 121.428 158.543 121.209 158.262L121.725 157.676C122.143 158.148 122.586 158.385 123.055 158.385C123.383 158.385 123.662 158.279 123.893 158.068C124.123 157.857 124.238 157.609 124.238 157.324C124.238 157.09 124.162 156.881 124.01 156.697C123.857 156.518 123.514 156.291 122.979 156.018C122.404 155.721 122.014 155.428 121.807 155.139C121.6 154.85 121.496 154.52 121.496 154.148C121.496 153.664 121.66 153.262 121.988 152.941C122.32 152.621 122.738 152.461 123.242 152.461C123.828 152.461 124.418 152.748 125.012 153.322ZM68.1992 165.381H69.916C70.9004 165.381 71.5645 165.424 71.9082 165.51C72.4004 165.631 72.8027 165.881 73.1152 166.26C73.4277 166.635 73.584 167.107 73.584 167.678C73.584 168.252 73.4316 168.727 73.127 169.102C72.8223 169.473 72.4023 169.723 71.8672 169.852C71.4766 169.945 70.7461 169.992 69.6758 169.992H69.0605V174H68.1992V165.381ZM69.0605 166.219V169.148L70.5195 169.166C71.1094 169.166 71.541 169.113 71.8145 169.008C72.0879 168.898 72.3027 168.725 72.459 168.486C72.6152 168.244 72.6934 167.975 72.6934 167.678C72.6934 167.389 72.6152 167.125 72.459 166.887C72.3027 166.645 72.0957 166.473 71.8379 166.371C71.584 166.27 71.166 166.219 70.584 166.219H69.0605ZM80.5391 171.885L81.2305 172.248C81.0039 172.693 80.7422 173.053 80.4453 173.326C80.1484 173.6 79.8145 173.809 79.4434 173.953C79.0723 174.094 78.6523 174.164 78.1836 174.164C77.1445 174.164 76.332 173.824 75.7461 173.145C75.1602 172.461 74.8672 171.689 74.8672 170.83C74.8672 170.021 75.1152 169.301 75.6113 168.668C76.2402 167.863 77.082 167.461 78.1367 167.461C79.2227 167.461 80.0898 167.873 80.7383 168.697C81.1992 169.279 81.4336 170.006 81.4414 170.877H75.7109C75.7266 171.619 75.9629 172.229 76.4199 172.705C76.877 173.178 77.4414 173.414 78.1133 173.414C78.4375 173.414 78.752 173.357 79.0566 173.244C79.3652 173.131 79.627 172.98 79.8418 172.793C80.0566 172.605 80.2891 172.303 80.5391 171.885ZM80.5391 170.168C80.4297 169.73 80.2695 169.381 80.0586 169.119C79.8516 168.857 79.5762 168.646 79.2324 168.486C78.8887 168.326 78.5273 168.246 78.1484 168.246C77.5234 168.246 76.9863 168.447 76.5371 168.85C76.209 169.143 75.9609 169.582 75.793 170.168H80.5391ZM82.9883 167.625H83.8027V168.797C84.127 168.352 84.5 168.018 84.9219 167.795C85.3438 167.572 85.8145 167.461 86.334 167.461C87.2402 167.461 88.0156 167.787 88.6602 168.439C89.3047 169.092 89.627 169.877 89.627 170.795C89.627 171.732 89.3066 172.529 88.666 173.186C88.0293 173.838 87.2598 174.164 86.3574 174.164C85.8496 174.164 85.3828 174.059 84.957 173.848C84.5312 173.637 84.1465 173.322 83.8027 172.904V176.332H82.9883V167.625ZM86.2695 168.252C85.5586 168.252 84.959 168.5 84.4707 168.996C83.9863 169.492 83.7441 170.109 83.7441 170.848C83.7441 171.332 83.8516 171.768 84.0664 172.154C84.2852 172.541 84.5957 172.848 84.998 173.074C85.4043 173.301 85.832 173.414 86.2812 173.414C86.7227 173.414 87.1367 173.301 87.5234 173.074C87.9141 172.844 88.2246 172.523 88.4551 172.113C88.6855 171.703 88.8008 171.273 88.8008 170.824C88.8008 170.371 88.6855 169.941 88.4551 169.535C88.2285 169.129 87.9219 168.814 87.5352 168.592C87.1484 168.365 86.7266 168.252 86.2695 168.252ZM91.4551 165C91.6426 165 91.8027 165.066 91.9355 165.199C92.0684 165.332 92.1348 165.492 92.1348 165.68C92.1348 165.863 92.0684 166.021 91.9355 166.154C91.8027 166.287 91.6426 166.354 91.4551 166.354C91.2715 166.354 91.1133 166.287 90.9805 166.154C90.8477 166.021 90.7812 165.863 90.7812 165.68C90.7812 165.492 90.8477 165.332 90.9805 165.199C91.1133 165.066 91.2715 165 91.4551 165ZM91.0449 167.625H91.8711V174H91.0449V167.625ZM93.5703 167.625H94.3906V168.768C94.7188 168.33 95.082 168.004 95.4805 167.789C95.8789 167.57 96.3125 167.461 96.7812 167.461C97.2578 167.461 97.6797 167.582 98.0469 167.824C98.418 168.066 98.6914 168.393 98.8672 168.803C99.043 169.213 99.1309 169.852 99.1309 170.719V174H98.3164V170.959C98.3164 170.225 98.2852 169.734 98.2227 169.488C98.125 169.066 97.9414 168.75 97.6719 168.539C97.4023 168.324 97.0508 168.217 96.6172 168.217C96.1211 168.217 95.6758 168.381 95.2812 168.709C94.8906 169.037 94.6328 169.443 94.5078 169.928C94.4297 170.244 94.3906 170.822 94.3906 171.662V174H93.5703V167.625ZM103.912 167.461C104.893 167.461 105.705 167.816 106.35 168.527C106.936 169.176 107.229 169.943 107.229 170.83C107.229 171.721 106.918 172.5 106.297 173.168C105.68 173.832 104.885 174.164 103.912 174.164C102.936 174.164 102.137 173.832 101.516 173.168C100.898 172.5 100.59 171.721 100.59 170.83C100.59 169.947 100.883 169.182 101.469 168.533C102.113 167.818 102.928 167.461 103.912 167.461ZM103.912 168.264C103.232 168.264 102.648 168.516 102.16 169.02C101.672 169.523 101.428 170.133 101.428 170.848C101.428 171.309 101.539 171.738 101.762 172.137C101.984 172.535 102.285 172.844 102.664 173.062C103.043 173.277 103.459 173.385 103.912 173.385C104.365 173.385 104.781 173.277 105.16 173.062C105.539 172.844 105.84 172.535 106.062 172.137C106.285 171.738 106.396 171.309 106.396 170.848C106.396 170.133 106.15 169.523 105.658 169.02C105.17 168.516 104.588 168.264 103.912 168.264ZM49.1973 181.98L48.5176 182.502C48.1426 182.014 47.6914 181.645 47.1641 181.395C46.6406 181.141 46.0645 181.014 45.4355 181.014C44.748 181.014 44.1113 181.18 43.5254 181.512C42.9395 181.84 42.4844 182.283 42.1602 182.842C41.8398 183.396 41.6797 184.021 41.6797 184.717C41.6797 185.768 42.0391 186.645 42.7578 187.348C43.4805 188.051 44.3906 188.402 45.4883 188.402C46.6953 188.402 47.7051 187.93 48.5176 186.984L49.1973 187.5C48.7676 188.047 48.2305 188.471 47.5859 188.771C46.9453 189.068 46.2285 189.217 45.4355 189.217C43.9277 189.217 42.7383 188.715 41.8672 187.711C41.1367 186.863 40.7715 185.84 40.7715 184.641C40.7715 183.379 41.2129 182.318 42.0957 181.459C42.9824 180.596 44.0918 180.164 45.4238 180.164C46.2285 180.164 46.9551 180.324 47.6035 180.645C48.252 180.961 48.7832 181.406 49.1973 181.98ZM56.1641 186.885L56.8555 187.248C56.6289 187.693 56.3672 188.053 56.0703 188.326C55.7734 188.6 55.4395 188.809 55.0684 188.953C54.6973 189.094 54.2773 189.164 53.8086 189.164C52.7695 189.164 51.957 188.824 51.3711 188.145C50.7852 187.461 50.4922 186.689 50.4922 185.83C50.4922 185.021 50.7402 184.301 51.2363 183.668C51.8652 182.863 52.707 182.461 53.7617 182.461C54.8477 182.461 55.7148 182.873 56.3633 183.697C56.8242 184.279 57.0586 185.006 57.0664 185.877H51.3359C51.3516 186.619 51.5879 187.229 52.0449 187.705C52.502 188.178 53.0664 188.414 53.7383 188.414C54.0625 188.414 54.377 188.357 54.6816 188.244C54.9902 188.131 55.252 187.98 55.4668 187.793C55.6816 187.605 55.9141 187.303 56.1641 186.885ZM56.1641 185.168C56.0547 184.73 55.8945 184.381 55.6836 184.119C55.4766 183.857 55.2012 183.646 54.8574 183.486C54.5137 183.326 54.1523 183.246 53.7734 183.246C53.1484 183.246 52.6113 183.447 52.1621 183.85C51.834 184.143 51.5859 184.582 51.418 185.168H56.1641ZM58.6016 182.625H59.4219V183.768C59.75 183.33 60.1133 183.004 60.5117 182.789C60.9102 182.57 61.3438 182.461 61.8125 182.461C62.2891 182.461 62.7109 182.582 63.0781 182.824C63.4492 183.066 63.7227 183.393 63.8984 183.803C64.0742 184.213 64.1621 184.852 64.1621 185.719V189H63.3477V185.959C63.3477 185.225 63.3164 184.734 63.2539 184.488C63.1562 184.066 62.9727 183.75 62.7031 183.539C62.4336 183.324 62.082 183.217 61.6484 183.217C61.1523 183.217 60.707 183.381 60.3125 183.709C59.9219 184.037 59.6641 184.443 59.5391 184.928C59.4609 185.244 59.4219 185.822 59.4219 186.662V189H58.6016V182.625ZM68.9434 182.461C69.9238 182.461 70.7363 182.816 71.3809 183.527C71.9668 184.176 72.2598 184.943 72.2598 185.83C72.2598 186.721 71.9492 187.5 71.3281 188.168C70.7109 188.832 69.916 189.164 68.9434 189.164C67.9668 189.164 67.168 188.832 66.5469 188.168C65.9297 187.5 65.6211 186.721 65.6211 185.83C65.6211 184.947 65.9141 184.182 66.5 183.533C67.1445 182.818 67.959 182.461 68.9434 182.461ZM68.9434 183.264C68.2637 183.264 67.6797 183.516 67.1914 184.02C66.7031 184.523 66.459 185.133 66.459 185.848C66.459 186.309 66.5703 186.738 66.793 187.137C67.0156 187.535 67.3164 187.844 67.6953 188.062C68.0742 188.277 68.4902 188.385 68.9434 188.385C69.3965 188.385 69.8125 188.277 70.1914 188.062C70.5703 187.844 70.8711 187.535 71.0938 187.137C71.3164 186.738 71.4277 186.309 71.4277 185.848C71.4277 185.133 71.1816 184.523 70.6895 184.02C70.2012 183.516 69.6191 183.264 68.9434 183.264ZM73.6836 182.625H74.5098V185.602C74.5098 186.328 74.5488 186.828 74.627 187.102C74.7441 187.492 74.9668 187.801 75.2949 188.027C75.627 188.254 76.0215 188.367 76.4785 188.367C76.9355 188.367 77.3223 188.258 77.6387 188.039C77.959 187.816 78.1797 187.525 78.3008 187.166C78.3828 186.92 78.4238 186.398 78.4238 185.602V182.625H79.2617V185.754C79.2617 186.633 79.1582 187.295 78.9512 187.74C78.748 188.186 78.4395 188.535 78.0254 188.789C77.6152 189.039 77.0996 189.164 76.4785 189.164C75.8574 189.164 75.3379 189.039 74.9199 188.789C74.5059 188.535 74.1953 188.184 73.9883 187.734C73.7852 187.281 73.6836 186.602 73.6836 185.695V182.625ZM80.7793 182.625H81.6172V183.557C81.8672 183.189 82.1309 182.916 82.4082 182.736C82.6855 182.553 82.9746 182.461 83.2754 182.461C83.502 182.461 83.7441 182.533 84.002 182.678L83.5742 183.369C83.4023 183.295 83.2578 183.258 83.1406 183.258C82.8672 183.258 82.6035 183.371 82.3496 183.598C82.0957 183.82 81.9023 184.168 81.7695 184.641C81.668 185.004 81.6172 185.738 81.6172 186.844V189H80.7793V182.625ZM91.0508 182.625V189H90.2422V187.904C89.8984 188.322 89.5117 188.637 89.082 188.848C88.6562 189.059 88.1895 189.164 87.6816 189.164C86.7793 189.164 86.0078 188.838 85.3672 188.186C84.7305 187.529 84.4121 186.732 84.4121 185.795C84.4121 184.877 84.7344 184.092 85.3789 183.439C86.0234 182.787 86.7988 182.461 87.7051 182.461C88.2285 182.461 88.7012 182.572 89.123 182.795C89.5488 183.018 89.9219 183.352 90.2422 183.797V182.625H91.0508ZM87.7695 183.252C87.3125 183.252 86.8906 183.365 86.5039 183.592C86.1172 183.814 85.8086 184.129 85.5781 184.535C85.3516 184.941 85.2383 185.371 85.2383 185.824C85.2383 186.273 85.3535 186.703 85.584 187.113C85.8145 187.523 86.123 187.844 86.5098 188.074C86.9004 188.301 87.3184 188.414 87.7637 188.414C88.2129 188.414 88.6387 188.301 89.041 188.074C89.4434 187.848 89.752 187.541 89.9668 187.154C90.1855 186.768 90.2949 186.332 90.2949 185.848C90.2949 185.109 90.0508 184.492 89.5625 183.996C89.0781 183.5 88.4805 183.252 87.7695 183.252ZM102.418 183.949L101.768 184.354C101.205 183.607 100.438 183.234 99.4648 183.234C98.6875 183.234 98.041 183.484 97.5254 183.984C97.0137 184.484 96.7578 185.092 96.7578 185.807C96.7578 186.271 96.875 186.709 97.1094 187.119C97.3477 187.529 97.6719 187.848 98.082 188.074C98.4961 188.301 98.959 188.414 99.4707 188.414C100.408 188.414 101.174 188.041 101.768 187.295L102.418 187.723C102.113 188.18 101.703 188.535 101.188 188.789C100.676 189.039 100.092 189.164 99.4355 189.164C98.4277 189.164 97.5918 188.844 96.9277 188.203C96.2637 187.562 95.9316 186.783 95.9316 185.865C95.9316 185.248 96.0859 184.676 96.3945 184.148C96.707 183.617 97.1348 183.203 97.6777 182.906C98.2207 182.609 98.8281 182.461 99.5 182.461C99.9219 182.461 100.328 182.525 100.719 182.654C101.113 182.783 101.447 182.951 101.721 183.158C101.994 183.365 102.227 183.629 102.418 183.949ZM107.018 182.461C107.998 182.461 108.811 182.816 109.455 183.527C110.041 184.176 110.334 184.943 110.334 185.83C110.334 186.721 110.023 187.5 109.402 188.168C108.785 188.832 107.99 189.164 107.018 189.164C106.041 189.164 105.242 188.832 104.621 188.168C104.004 187.5 103.695 186.721 103.695 185.83C103.695 184.947 103.988 184.182 104.574 183.533C105.219 182.818 106.033 182.461 107.018 182.461ZM107.018 183.264C106.338 183.264 105.754 183.516 105.266 184.02C104.777 184.523 104.533 185.133 104.533 185.848C104.533 186.309 104.645 186.738 104.867 187.137C105.09 187.535 105.391 187.844 105.77 188.062C106.148 188.277 106.564 188.385 107.018 188.385C107.471 188.385 107.887 188.277 108.266 188.062C108.645 187.844 108.945 187.535 109.168 187.137C109.391 186.738 109.502 186.309 109.502 185.848C109.502 185.133 109.256 184.523 108.764 184.02C108.275 183.516 107.693 183.264 107.018 183.264ZM111.342 182.625H116.023L112.414 188.273H115.906V189H111.002L114.611 183.346H111.342V182.625ZM117.248 180C117.436 180 117.596 180.066 117.729 180.199C117.861 180.332 117.928 180.492 117.928 180.68C117.928 180.863 117.861 181.021 117.729 181.154C117.596 181.287 117.436 181.354 117.248 181.354C117.064 181.354 116.906 181.287 116.773 181.154C116.641 181.021 116.574 180.863 116.574 180.68C116.574 180.492 116.641 180.332 116.773 180.199C116.906 180.066 117.064 180 117.248 180ZM116.838 182.625H117.664V189H116.838V182.625ZM125.727 180.164V189H124.918V187.904C124.574 188.322 124.188 188.637 123.758 188.848C123.332 189.059 122.865 189.164 122.357 189.164C121.455 189.164 120.684 188.838 120.043 188.186C119.406 187.529 119.088 186.732 119.088 185.795C119.088 184.877 119.41 184.092 120.055 183.439C120.699 182.787 121.475 182.461 122.381 182.461C122.904 182.461 123.377 182.572 123.799 182.795C124.225 183.018 124.598 183.352 124.918 183.797V180.164H125.727ZM122.445 183.252C121.988 183.252 121.566 183.365 121.18 183.592C120.793 183.814 120.484 184.129 120.254 184.535C120.027 184.941 119.914 185.371 119.914 185.824C119.914 186.273 120.029 186.703 120.26 187.113C120.49 187.523 120.799 187.844 121.186 188.074C121.576 188.301 121.994 188.414 122.439 188.414C122.889 188.414 123.314 188.301 123.717 188.074C124.119 187.848 124.428 187.541 124.643 187.154C124.861 186.768 124.971 186.332 124.971 185.848C124.971 185.109 124.727 184.492 124.238 183.996C123.754 183.5 123.156 183.252 122.445 183.252ZM133.941 182.625V189H133.133V187.904C132.789 188.322 132.402 188.637 131.973 188.848C131.547 189.059 131.08 189.164 130.572 189.164C129.67 189.164 128.898 188.838 128.258 188.186C127.621 187.529 127.303 186.732 127.303 185.795C127.303 184.877 127.625 184.092 128.27 183.439C128.914 182.787 129.689 182.461 130.596 182.461C131.119 182.461 131.592 182.572 132.014 182.795C132.439 183.018 132.812 183.352 133.133 183.797V182.625H133.941ZM130.66 183.252C130.203 183.252 129.781 183.365 129.395 183.592C129.008 183.814 128.699 184.129 128.469 184.535C128.242 184.941 128.129 185.371 128.129 185.824C128.129 186.273 128.244 186.703 128.475 187.113C128.705 187.523 129.014 187.844 129.4 188.074C129.791 188.301 130.209 188.414 130.654 188.414C131.104 188.414 131.529 188.301 131.932 188.074C132.334 187.848 132.643 187.541 132.857 187.154C133.076 186.768 133.186 186.332 133.186 185.848C133.186 185.109 132.941 184.492 132.453 183.996C131.969 183.5 131.371 183.252 130.66 183.252Z" fill="#E57D25"/>
<path d="M52.544 139.104C52.5547 138.88 52.6133 138.704 52.72 138.576C52.8373 138.448 52.992 138.384 53.184 138.384C53.28 138.384 53.3813 138.4 53.488 138.432C54.0747 138.613 54.6933 138.768 55.344 138.896C56.0053 139.024 56.6027 139.088 57.136 139.088C57.4773 139.088 57.7013 139.024 57.808 138.896C57.9147 138.757 57.968 138.64 57.968 138.544C57.9787 138.448 57.936 138.325 57.84 138.176C57.744 138.027 57.552 137.947 57.264 137.936C55.6427 137.883 54.4107 137.563 53.568 136.976C52.7253 136.379 52.304 135.477 52.304 134.272C52.304 133.579 52.4373 133.003 52.704 132.544C52.9707 132.085 53.328 131.717 53.776 131.44C54.224 131.163 54.736 130.965 55.312 130.848C55.888 130.731 56.4853 130.672 57.104 130.672C57.7547 130.672 58.336 130.725 58.848 130.832C59.36 130.939 59.8933 131.088 60.448 131.28C60.7253 131.376 60.944 131.541 61.104 131.776C61.264 132.011 61.3333 132.277 61.312 132.576L61.28 133.696C61.2587 134.165 61.0507 134.4 60.656 134.4C60.56 134.4 60.4533 134.384 60.336 134.352C59.7707 134.171 59.1787 134.021 58.56 133.904C57.952 133.776 57.3867 133.712 56.864 133.712C56.5333 133.712 56.3093 133.781 56.192 133.92C56.0853 134.048 56.032 134.16 56.032 134.256C56.032 134.352 56.0747 134.475 56.16 134.624C56.2453 134.773 56.4373 134.859 56.736 134.88C58.3573 134.933 59.5893 135.253 60.432 135.84C61.2747 136.416 61.696 137.301 61.696 138.496C61.696 139.211 61.5467 139.803 61.248 140.272C60.96 140.731 60.576 141.099 60.096 141.376C59.6267 141.653 59.0987 141.851 58.512 141.968C57.9253 142.075 57.3387 142.128 56.752 142.128C56.1653 142.128 55.5947 142.075 55.04 141.968C54.4853 141.851 53.9307 141.701 53.376 141.52C53.0987 141.424 52.88 141.259 52.72 141.024C52.56 140.789 52.4907 140.523 52.512 140.224L52.544 139.104ZM62.7435 142C62.3595 142 62.1142 141.936 62.0075 141.808C61.9115 141.68 61.9062 141.429 61.9915 141.056L64.0075 131.744C64.0715 131.456 64.2102 131.227 64.4235 131.056C64.6368 130.885 64.8875 130.8 65.1755 130.8H69.4315C69.7195 130.8 69.9702 130.885 70.1835 131.056C70.3968 131.227 70.5355 131.456 70.5995 131.744L72.6155 141.056C72.7008 141.429 72.6902 141.68 72.5835 141.808C72.4875 141.936 72.2475 142 71.8635 142H69.8635C69.5648 142 69.3462 141.947 69.2075 141.84C69.0688 141.733 68.9782 141.536 68.9355 141.248C68.8715 140.939 68.7755 140.736 68.6475 140.64C68.5195 140.544 68.3008 140.496 67.9915 140.496H66.6155C66.3062 140.496 66.0875 140.544 65.9595 140.64C65.8422 140.736 65.7515 140.939 65.6875 141.248C65.6128 141.536 65.5222 141.733 65.4155 141.84C65.3088 141.947 65.0848 142 64.7435 142H62.7435ZM67.3675 137.456C67.8688 137.456 68.0608 137.195 67.9435 136.672L67.5115 134.688C67.4795 134.539 67.4102 134.464 67.3035 134.464C67.1968 134.464 67.1275 134.539 67.0955 134.688L66.6795 136.672C66.5622 137.195 66.7488 137.456 67.2395 137.456H67.3675ZM79.5779 138.96C79.8659 138.96 80.0952 139.051 80.2659 139.232C80.4472 139.403 80.5379 139.632 80.5379 139.92V141.04C80.5379 141.328 80.4472 141.563 80.2659 141.744C80.0952 141.915 79.8659 142 79.5779 142H74.2979C74.0099 142 73.7752 141.915 73.5939 141.744C73.4232 141.563 73.3379 141.328 73.3379 141.04V131.76C73.3379 131.472 73.4232 131.243 73.5939 131.072C73.7752 130.891 74.0099 130.8 74.2979 130.8H76.1059C76.3939 130.8 76.6232 130.891 76.7939 131.072C76.9752 131.243 77.0659 131.472 77.0659 131.76V138C77.0659 138.384 77.1299 138.64 77.2579 138.768C77.3859 138.896 77.6419 138.96 78.0259 138.96H79.5779ZM81.8372 142C81.4533 142 81.2079 141.936 81.1013 141.808C81.0053 141.68 80.9999 141.429 81.0853 141.056L83.1013 131.744C83.1653 131.456 83.3039 131.227 83.5173 131.056C83.7306 130.885 83.9813 130.8 84.2693 130.8H88.5253C88.8133 130.8 89.0639 130.885 89.2773 131.056C89.4906 131.227 89.6293 131.456 89.6933 131.744L91.7093 141.056C91.7946 141.429 91.7839 141.68 91.6773 141.808C91.5813 141.936 91.3413 142 90.9573 142H88.9573C88.6586 142 88.4399 141.947 88.3013 141.84C88.1626 141.733 88.0719 141.536 88.0293 141.248C87.9653 140.939 87.8693 140.736 87.7413 140.64C87.6133 140.544 87.3946 140.496 87.0853 140.496H85.7093C85.3999 140.496 85.1813 140.544 85.0533 140.64C84.9359 140.736 84.8453 140.939 84.7812 141.248C84.7066 141.536 84.6159 141.733 84.5093 141.84C84.4026 141.947 84.1786 142 83.8373 142H81.8372ZM86.4613 137.456C86.9626 137.456 87.1546 137.195 87.0373 136.672L86.6053 134.688C86.5733 134.539 86.5039 134.464 86.3973 134.464C86.2906 134.464 86.2213 134.539 86.1893 134.688L85.7733 136.672C85.6559 137.195 85.8426 137.456 86.3333 137.456H86.4613ZM92.4156 131.76C92.4156 131.472 92.501 131.243 92.6716 131.072C92.853 130.891 93.0876 130.8 93.3756 130.8H97.6636C99.349 130.8 100.608 131.243 101.44 132.128C102.272 133.013 102.688 134.437 102.688 136.4C102.688 138.363 102.266 139.787 101.424 140.672C100.581 141.557 99.285 142 97.5356 142H93.3756C93.0876 142 92.853 141.915 92.6716 141.744C92.501 141.563 92.4156 141.328 92.4156 141.04V131.76ZM96.1436 134.64V138.16C96.1436 138.469 96.2343 138.709 96.4156 138.88C96.6076 139.04 96.853 139.12 97.1516 139.12C97.5036 139.12 97.7863 139.029 97.9996 138.848C98.213 138.667 98.3783 138.437 98.4956 138.16C98.6236 137.883 98.7036 137.584 98.7356 137.264C98.7783 136.944 98.7996 136.651 98.7996 136.384C98.7996 136.117 98.7783 135.829 98.7356 135.52C98.693 135.2 98.613 134.907 98.4956 134.64C98.3783 134.363 98.213 134.133 97.9996 133.952C97.7863 133.771 97.5036 133.68 97.1516 133.68C96.853 133.68 96.6076 133.765 96.4156 133.936C96.2343 134.096 96.1436 134.331 96.1436 134.64ZM103.478 142C103.094 142 102.849 141.936 102.742 141.808C102.646 141.68 102.641 141.429 102.726 141.056L104.742 131.744C104.806 131.456 104.945 131.227 105.158 131.056C105.371 130.885 105.622 130.8 105.91 130.8H110.166C110.454 130.8 110.705 130.885 110.918 131.056C111.131 131.227 111.27 131.456 111.334 131.744L113.35 141.056C113.435 141.429 113.425 141.68 113.318 141.808C113.222 141.936 112.982 142 112.598 142H110.598C110.299 142 110.081 141.947 109.942 141.84C109.803 141.733 109.713 141.536 109.67 141.248C109.606 140.939 109.51 140.736 109.382 140.64C109.254 140.544 109.035 140.496 108.726 140.496H107.35C107.041 140.496 106.822 140.544 106.694 140.64C106.577 140.736 106.486 140.939 106.422 141.248C106.347 141.536 106.257 141.733 106.15 141.84C106.043 141.947 105.819 142 105.478 142H103.478ZM108.102 137.456C108.603 137.456 108.795 137.195 108.678 136.672L108.246 134.688C108.214 134.539 108.145 134.464 108.038 134.464C107.931 134.464 107.862 134.539 107.83 134.688L107.414 136.672C107.297 137.195 107.483 137.456 107.974 137.456H108.102ZM113.716 139.104C113.727 138.88 113.785 138.704 113.892 138.576C114.009 138.448 114.164 138.384 114.356 138.384C114.452 138.384 114.553 138.4 114.66 138.432C115.247 138.613 115.865 138.768 116.516 138.896C117.177 139.024 117.775 139.088 118.308 139.088C118.649 139.088 118.873 139.024 118.98 138.896C119.087 138.757 119.14 138.64 119.14 138.544C119.151 138.448 119.108 138.325 119.012 138.176C118.916 138.027 118.724 137.947 118.436 137.936C116.815 137.883 115.583 137.563 114.74 136.976C113.897 136.379 113.476 135.477 113.476 134.272C113.476 133.579 113.609 133.003 113.876 132.544C114.143 132.085 114.5 131.717 114.948 131.44C115.396 131.163 115.908 130.965 116.484 130.848C117.06 130.731 117.657 130.672 118.276 130.672C118.927 130.672 119.508 130.725 120.02 130.832C120.532 130.939 121.065 131.088 121.62 131.28C121.897 131.376 122.116 131.541 122.276 131.776C122.436 132.011 122.505 132.277 122.484 132.576L122.452 133.696C122.431 134.165 122.223 134.4 121.828 134.4C121.732 134.4 121.625 134.384 121.508 134.352C120.943 134.171 120.351 134.021 119.732 133.904C119.124 133.776 118.559 133.712 118.036 133.712C117.705 133.712 117.481 133.781 117.364 133.92C117.257 134.048 117.204 134.16 117.204 134.256C117.204 134.352 117.247 134.475 117.332 134.624C117.417 134.773 117.609 134.859 117.908 134.88C119.529 134.933 120.761 135.253 121.604 135.84C122.447 136.416 122.868 137.301 122.868 138.496C122.868 139.211 122.719 139.803 122.42 140.272C122.132 140.731 121.748 141.099 121.268 141.376C120.799 141.653 120.271 141.851 119.684 141.968C119.097 142.075 118.511 142.128 117.924 142.128C117.337 142.128 116.767 142.075 116.212 141.968C115.657 141.851 115.103 141.701 114.548 141.52C114.271 141.424 114.052 141.259 113.892 141.024C113.732 140.789 113.663 140.523 113.684 140.224L113.716 139.104Z" fill="#E57D25"/>
<path d="M170.848 98.24C168.384 98.24 166.56 97.52 165.376 96.08C164.192 94.64 163.6 92.48 163.6 89.6C163.6 86.656 164.232 84.48 165.496 83.072C166.776 81.664 168.728 80.96 171.352 80.96C173.992 80.96 175.944 81.664 177.208 83.072C178.488 84.464 179.128 86.624 179.128 89.552C179.128 92.368 178.536 94.488 177.352 95.912C177.144 96.168 176.984 96.384 176.872 96.56C176.776 96.736 176.72 96.904 176.704 97.064C176.688 97.224 176.72 97.384 176.8 97.544C176.88 97.704 177 97.896 177.16 98.12L177.184 98.144C177.456 98.496 177.552 98.832 177.472 99.152C177.392 99.488 177.16 99.76 176.776 99.968L175.312 100.76C175.184 100.84 175.056 100.888 174.928 100.904C174.816 100.936 174.696 100.952 174.568 100.952C174.328 100.952 174.096 100.888 173.872 100.76C173.664 100.632 173.496 100.432 173.368 100.16L173.056 99.512C172.928 99.256 172.8 99.04 172.672 98.864C172.544 98.704 172.4 98.576 172.24 98.48C172.08 98.384 171.888 98.32 171.664 98.288C171.456 98.256 171.184 98.24 170.848 98.24ZM171.376 93.68C171.744 93.68 172.048 93.624 172.288 93.512C172.528 93.4 172.72 93.192 172.864 92.888C173.008 92.584 173.104 92.168 173.152 91.64C173.216 91.096 173.248 90.4 173.248 89.552C173.248 88.752 173.216 88.096 173.152 87.584C173.104 87.056 173.008 86.64 172.864 86.336C172.72 86.032 172.528 85.824 172.288 85.712C172.048 85.584 171.736 85.52 171.352 85.52C170.984 85.52 170.68 85.576 170.44 85.688C170.2 85.8 170.008 86.008 169.864 86.312C169.72 86.616 169.616 87.032 169.552 87.56C169.504 88.088 169.48 88.768 169.48 89.6C169.48 90.432 169.504 91.112 169.552 91.64C169.616 92.168 169.72 92.584 169.864 92.888C170.008 93.192 170.2 93.4 170.44 93.512C170.696 93.624 171.008 93.68 171.376 93.68ZM180.217 82.64C180.217 82.208 180.345 81.864 180.601 81.608C180.873 81.336 181.225 81.2 181.657 81.2H184.369C184.801 81.2 185.145 81.336 185.401 81.608C185.673 81.864 185.809 82.208 185.809 82.64V91.568C185.809 92.224 185.937 92.744 186.193 93.128C186.449 93.496 186.945 93.68 187.681 93.68C188.417 93.68 188.913 93.496 189.169 93.128C189.425 92.744 189.553 92.224 189.553 91.568V82.64C189.553 82.208 189.681 81.864 189.937 81.608C190.209 81.336 190.561 81.2 190.993 81.2H193.705C194.137 81.2 194.481 81.336 194.737 81.608C195.009 81.864 195.145 82.208 195.145 82.64V91.568C195.145 92.592 195.009 93.52 194.737 94.352C194.465 95.168 194.033 95.864 193.441 96.44C192.849 97.016 192.073 97.464 191.113 97.784C190.169 98.088 189.025 98.24 187.681 98.24C186.321 98.24 185.169 98.088 184.225 97.784C183.281 97.464 182.513 97.016 181.921 96.44C181.329 95.864 180.897 95.168 180.625 94.352C180.353 93.52 180.217 92.592 180.217 91.568V82.64ZM196.6 98C196.024 98 195.656 97.904 195.496 97.712C195.352 97.52 195.344 97.144 195.472 96.584L198.496 82.616C198.592 82.184 198.8 81.84 199.12 81.584C199.44 81.328 199.816 81.2 200.248 81.2H206.632C207.064 81.2 207.44 81.328 207.76 81.584C208.08 81.84 208.288 82.184 208.384 82.616L211.408 96.584C211.536 97.144 211.52 97.52 211.36 97.712C211.216 97.904 210.856 98 210.28 98H207.28C206.832 98 206.504 97.92 206.296 97.76C206.088 97.6 205.952 97.304 205.888 96.872C205.792 96.408 205.648 96.104 205.456 95.96C205.264 95.816 204.936 95.744 204.472 95.744H202.408C201.944 95.744 201.616 95.816 201.424 95.96C201.248 96.104 201.112 96.408 201.016 96.872C200.904 97.304 200.768 97.6 200.608 97.76C200.448 97.92 200.112 98 199.6 98H196.6ZM203.536 91.184C204.288 91.184 204.576 90.792 204.4 90.008L203.752 87.032C203.704 86.808 203.6 86.696 203.44 86.696C203.28 86.696 203.176 86.808 203.128 87.032L202.504 90.008C202.328 90.792 202.608 91.184 203.344 91.184H203.536ZM213.931 98.168C213.499 98.168 213.147 98.04 212.875 97.784C212.619 97.512 212.491 97.16 212.491 96.728V82.64C212.491 82.208 212.619 81.864 212.875 81.608C213.147 81.336 213.499 81.2 213.931 81.2H220.243C221.155 81.2 222.011 81.304 222.811 81.512C223.627 81.704 224.339 82.04 224.947 82.52C225.555 83 226.035 83.632 226.387 84.416C226.739 85.2 226.915 86.176 226.915 87.344C226.915 88.416 226.779 89.288 226.507 89.96C226.235 90.632 225.907 91.152 225.523 91.52C225.091 91.92 224.971 92.328 225.163 92.744L226.651 96.224C226.891 96.768 226.907 97.2 226.699 97.52C226.491 97.84 226.091 98 225.499 98H222.859C222.491 98 222.155 97.904 221.851 97.712C221.547 97.504 221.323 97.232 221.179 96.896L219.667 93.344C219.523 93.024 219.275 92.864 218.923 92.864H218.779C218.555 92.864 218.379 92.928 218.251 93.056C218.139 93.184 218.083 93.36 218.083 93.584V96.728C218.083 97.16 217.947 97.512 217.675 97.784C217.419 98.04 217.075 98.168 216.643 98.168H213.931ZM219.211 89.504C219.883 89.504 220.403 89.376 220.771 89.12C221.155 88.864 221.347 88.368 221.347 87.632C221.347 86.88 221.155 86.384 220.771 86.144C220.403 85.888 219.883 85.76 219.211 85.76H218.803C218.579 85.76 218.403 85.824 218.275 85.952C218.147 86.08 218.083 86.256 218.083 86.48V88.784C218.083 89.008 218.147 89.184 218.275 89.312C218.403 89.44 218.579 89.504 218.803 89.504H219.211ZM232.886 98C232.454 98 232.102 97.872 231.83 97.616C231.574 97.344 231.446 96.992 231.446 96.56V87.2C231.446 86.768 231.31 86.424 231.038 86.168C230.782 85.896 230.438 85.76 230.006 85.76H228.902C228.47 85.76 228.118 85.632 227.846 85.376C227.59 85.104 227.462 84.752 227.462 84.32V82.64C227.462 82.208 227.59 81.864 227.846 81.608C228.118 81.336 228.47 81.2 228.902 81.2H239.582C240.014 81.2 240.358 81.336 240.614 81.608C240.886 81.864 241.022 82.208 241.022 82.64V84.32C241.022 84.752 240.886 85.104 240.614 85.376C240.358 85.632 240.014 85.76 239.582 85.76H238.478C238.046 85.76 237.694 85.896 237.422 86.168C237.166 86.424 237.038 86.768 237.038 87.2V96.56C237.038 96.992 236.902 97.344 236.63 97.616C236.374 97.872 236.03 98 235.598 98H232.886ZM240.803 98C240.227 98 239.859 97.904 239.699 97.712C239.555 97.52 239.547 97.144 239.675 96.584L242.699 82.616C242.795 82.184 243.003 81.84 243.323 81.584C243.643 81.328 244.019 81.2 244.451 81.2H250.835C251.267 81.2 251.643 81.328 251.963 81.584C252.283 81.84 252.491 82.184 252.587 82.616L255.611 96.584C255.739 97.144 255.723 97.52 255.563 97.712C255.419 97.904 255.059 98 254.483 98H251.483C251.035 98 250.707 97.92 250.499 97.76C250.291 97.6 250.155 97.304 250.091 96.872C249.995 96.408 249.851 96.104 249.659 95.96C249.467 95.816 249.139 95.744 248.675 95.744H246.611C246.147 95.744 245.819 95.816 245.627 95.96C245.451 96.104 245.315 96.408 245.219 96.872C245.107 97.304 244.971 97.6 244.811 97.76C244.651 97.92 244.315 98 243.803 98H240.803ZM247.739 91.184C248.491 91.184 248.779 90.792 248.603 90.008L247.955 87.032C247.907 86.808 247.803 86.696 247.643 86.696C247.483 86.696 247.379 86.808 247.331 87.032L246.707 90.008C246.531 90.792 246.811 91.184 247.547 91.184H247.739ZM264.854 87.32C265.814 87.32 266.294 87.8 266.294 88.76V90.44C266.294 91.4 265.814 91.88 264.854 91.88H258.134C257.174 91.88 256.694 91.4 256.694 90.44V88.76C256.694 87.8 257.174 87.32 258.134 87.32H264.854ZM267.546 82.64C267.546 82.208 267.674 81.864 267.93 81.608C268.202 81.336 268.554 81.2 268.986 81.2H277.626C278.058 81.2 278.402 81.336 278.658 81.608C278.93 81.864 279.066 82.208 279.066 82.64V84.32C279.066 84.752 278.93 85.104 278.658 85.376C278.402 85.632 278.058 85.76 277.626 85.76H274.578C274.146 85.76 273.794 85.896 273.522 86.168C273.266 86.424 273.138 86.768 273.138 87.2V87.32C273.138 87.752 273.266 88.104 273.522 88.376C273.794 88.632 274.146 88.76 274.578 88.76H276.258C276.69 88.76 277.034 88.896 277.29 89.168C277.562 89.424 277.698 89.768 277.698 90.2V91.88C277.698 92.312 277.562 92.664 277.29 92.936C277.034 93.192 276.69 93.32 276.258 93.32H274.578C274.146 93.32 273.794 93.456 273.522 93.728C273.266 93.984 273.138 94.328 273.138 94.76V96.56C273.138 96.992 273.002 97.344 272.73 97.616C272.474 97.872 272.13 98 271.698 98H268.986C268.554 98 268.202 97.872 267.93 97.616C267.674 97.344 267.546 96.992 267.546 96.56V82.64ZM280.062 82.64C280.062 82.208 280.19 81.864 280.446 81.608C280.718 81.336 281.07 81.2 281.502 81.2H290.142C290.574 81.2 290.918 81.336 291.174 81.608C291.446 81.864 291.582 82.208 291.582 82.64V84.32C291.582 84.752 291.446 85.104 291.174 85.376C290.918 85.632 290.574 85.76 290.142 85.76H286.542C286.27 85.76 286.054 85.84 285.894 86C285.734 86.144 285.654 86.352 285.654 86.624V86.696C285.654 86.968 285.734 87.184 285.894 87.344C286.054 87.488 286.27 87.56 286.542 87.56H288.774C289.206 87.56 289.55 87.696 289.806 87.968C290.078 88.224 290.214 88.568 290.214 89V90.2C290.214 90.632 290.078 90.984 289.806 91.256C289.55 91.512 289.206 91.64 288.774 91.64H286.542C286.27 91.64 286.054 91.72 285.894 91.88C285.734 92.024 285.654 92.232 285.654 92.504V92.576C285.654 92.848 285.734 93.064 285.894 93.224C286.054 93.368 286.27 93.44 286.542 93.44H290.142C290.574 93.44 290.918 93.576 291.174 93.848C291.446 94.104 291.582 94.448 291.582 94.88V96.56C291.582 96.992 291.446 97.344 291.174 97.616C290.918 97.872 290.574 98 290.142 98H281.502C281.07 98 280.718 97.872 280.446 97.616C280.19 97.344 280.062 96.992 280.062 96.56V82.64ZM293.993 98C293.561 98 293.209 97.872 292.937 97.616C292.681 97.344 292.553 96.992 292.553 96.56V82.64C292.553 82.208 292.681 81.864 292.937 81.608C293.209 81.336 293.561 81.2 293.993 81.2H296.705C297.137 81.2 297.481 81.336 297.737 81.608C298.009 81.864 298.145 82.208 298.145 82.64V96.56C298.145 96.992 298.009 97.344 297.737 97.616C297.481 97.872 297.137 98 296.705 98H293.993ZM300.837 98.168C300.405 98.168 300.053 98.04 299.781 97.784C299.525 97.512 299.397 97.16 299.397 96.728V82.64C299.397 82.208 299.525 81.864 299.781 81.608C300.053 81.336 300.405 81.2 300.837 81.2H307.149C308.061 81.2 308.917 81.304 309.717 81.512C310.533 81.704 311.245 82.04 311.853 82.52C312.461 83 312.941 83.632 313.293 84.416C313.645 85.2 313.821 86.176 313.821 87.344C313.821 88.416 313.685 89.288 313.413 89.96C313.141 90.632 312.813 91.152 312.429 91.52C311.997 91.92 311.877 92.328 312.069 92.744L313.557 96.224C313.797 96.768 313.813 97.2 313.605 97.52C313.397 97.84 312.997 98 312.405 98H309.765C309.397 98 309.061 97.904 308.757 97.712C308.453 97.504 308.229 97.232 308.085 96.896L306.573 93.344C306.429 93.024 306.181 92.864 305.829 92.864H305.685C305.461 92.864 305.285 92.928 305.157 93.056C305.045 93.184 304.989 93.36 304.989 93.584V96.728C304.989 97.16 304.853 97.512 304.581 97.784C304.325 98.04 303.981 98.168 303.549 98.168H300.837ZM306.117 89.504C306.789 89.504 307.309 89.376 307.677 89.12C308.061 88.864 308.253 88.368 308.253 87.632C308.253 86.88 308.061 86.384 307.677 86.144C307.309 85.888 306.789 85.76 306.117 85.76H305.709C305.485 85.76 305.309 85.824 305.181 85.952C305.053 86.08 304.989 86.256 304.989 86.48V88.784C304.989 89.008 305.053 89.184 305.181 89.312C305.309 89.44 305.485 89.504 305.709 89.504H306.117ZM316.037 98C315.461 98 315.093 97.904 314.933 97.712C314.789 97.52 314.781 97.144 314.909 96.584L317.933 82.616C318.029 82.184 318.237 81.84 318.557 81.584C318.877 81.328 319.253 81.2 319.685 81.2H326.069C326.501 81.2 326.877 81.328 327.197 81.584C327.517 81.84 327.725 82.184 327.821 82.616L330.845 96.584C330.973 97.144 330.957 97.52 330.797 97.712C330.653 97.904 330.293 98 329.717 98H326.717C326.269 98 325.941 97.92 325.733 97.76C325.525 97.6 325.389 97.304 325.325 96.872C325.229 96.408 325.085 96.104 324.893 95.96C324.701 95.816 324.373 95.744 323.909 95.744H321.845C321.381 95.744 321.053 95.816 320.861 95.96C320.685 96.104 320.549 96.408 320.453 96.872C320.341 97.304 320.205 97.6 320.045 97.76C319.885 97.92 319.549 98 319.037 98H316.037ZM322.973 91.184C323.725 91.184 324.013 90.792 323.837 90.008L323.189 87.032C323.141 86.808 323.037 86.696 322.877 86.696C322.717 86.696 322.613 86.808 322.565 87.032L321.941 90.008C321.765 90.792 322.045 91.184 322.781 91.184H322.973Z" fill="#638439"/>
<path d="M107.549 17.3316C69.6559 -2.3109 20.0609 12.7236 0 22.6961V0H494V17.3316C475.518 10.3852 429.192 0.660248 391.745 17.3316C354.298 34.0029 315.216 24.278 300.356 17.3316C258.674 -3.96154 220.391 8.45945 206.46 17.3316C171.465 40.2753 125.938 26.8915 107.549 17.3316Z" fill="#638439"/>
</svg>
