<svg width="1067" height="1080" viewBox="0 0 1067 1080" fill="none" xmlns="http://www.w3.org/2000/svg">
<rect width="1067" height="1080" fill="#FFFAF1"/>
<rect x="721" y="810" width="132" height="64" rx="5" fill="#E57D25"/>
<path d="M729.849 823.04C729.849 821.888 730.19 820.971 730.873 820.288C731.598 819.563 732.537 819.2 733.689 819.2H740.921C742.073 819.2 742.99 819.563 743.673 820.288C744.398 820.971 744.76 821.888 744.76 823.04V846.848C744.76 848.597 745.102 849.984 745.785 851.008C746.467 851.989 747.79 852.48 749.753 852.48C751.715 852.48 753.038 851.989 753.721 851.008C754.403 849.984 754.745 848.597 754.745 846.848V823.04C754.745 821.888 755.086 820.971 755.769 820.288C756.494 819.563 757.433 819.2 758.585 819.2H765.817C766.969 819.2 767.886 819.563 768.569 820.288C769.294 820.971 769.657 821.888 769.657 823.04V846.848C769.657 849.579 769.294 852.053 768.569 854.272C767.843 856.448 766.691 858.304 765.113 859.84C763.534 861.376 761.465 862.571 758.905 863.424C756.387 864.235 753.337 864.64 749.753 864.64C746.126 864.64 743.054 864.235 740.537 863.424C738.019 862.571 735.971 861.376 734.393 859.84C732.814 858.304 731.662 856.448 730.937 854.272C730.211 852.053 729.849 849.579 729.849 846.848V823.04ZM776.503 864.448C775.351 864.448 774.412 864.107 773.687 863.424C773.004 862.699 772.663 861.76 772.663 860.608V823.04C772.663 821.888 773.004 820.971 773.687 820.288C774.412 819.563 775.351 819.2 776.503 819.2H793.335C795.895 819.2 798.263 819.456 800.439 819.968C802.615 820.437 804.492 821.312 806.071 822.592C807.692 823.872 808.951 825.621 809.847 827.84C810.743 830.059 811.191 832.896 811.191 836.352C811.191 839.765 810.743 842.581 809.847 844.8C808.951 847.019 807.692 848.768 806.071 850.048C804.492 851.328 802.615 852.224 800.439 852.736C798.263 853.248 795.895 853.504 793.335 853.504H789.495C788.897 853.504 788.428 853.675 788.087 854.016C787.745 854.357 787.575 854.827 787.575 855.424V860.608C787.575 861.76 787.212 862.699 786.487 863.424C785.804 864.107 784.887 864.448 783.735 864.448H776.503ZM787.575 839.424C787.575 840.021 787.745 840.491 788.087 840.832C788.428 841.173 788.897 841.344 789.495 841.344H790.583C792.375 841.344 793.761 841.003 794.743 840.32C795.767 839.637 796.279 838.315 796.279 836.352C796.279 834.347 795.767 833.024 794.743 832.384C793.761 831.701 792.375 831.36 790.583 831.36H789.495C788.897 831.36 788.428 831.531 788.087 831.872C787.745 832.213 787.575 832.683 787.575 833.28V839.424ZM813.913 823.04C813.913 821.888 814.254 820.971 814.937 820.288C815.662 819.563 816.601 819.2 817.753 819.2H840.793C841.945 819.2 842.862 819.563 843.545 820.288C844.27 820.971 844.632 821.888 844.632 823.04V827.52C844.632 828.672 844.27 829.611 843.545 830.336C842.862 831.019 841.945 831.36 840.793 831.36H832.665C831.513 831.36 830.574 831.723 829.849 832.448C829.166 833.131 828.825 834.048 828.825 835.2V835.52C828.825 836.672 829.166 837.611 829.849 838.336C830.574 839.019 831.513 839.36 832.665 839.36H837.145C838.297 839.36 839.214 839.723 839.897 840.448C840.622 841.131 840.985 842.048 840.985 843.2V847.68C840.985 848.832 840.622 849.771 839.897 850.496C839.214 851.179 838.297 851.52 837.145 851.52H832.665C831.513 851.52 830.574 851.883 829.849 852.608C829.166 853.291 828.825 854.208 828.825 855.36V860.16C828.825 861.312 828.462 862.251 827.737 862.976C827.054 863.659 826.137 864 824.985 864H817.753C816.601 864 815.662 863.659 814.937 862.976C814.254 862.251 813.913 861.312 813.913 860.16V823.04Z" fill="#F2E8B9"/>
<path d="M167.984 819.92C167.984 818.624 168.368 817.592 169.136 816.824C169.952 816.008 171.008 815.6 172.304 815.6H180.44C181.736 815.6 182.768 816.008 183.536 816.824C184.352 817.592 184.76 818.624 184.76 819.92V846.704C184.76 848.672 185.144 850.232 185.912 851.384C186.68 852.488 188.168 853.04 190.376 853.04C192.584 853.04 194.072 852.488 194.84 851.384C195.608 850.232 195.992 848.672 195.992 846.704V819.92C195.992 818.624 196.376 817.592 197.144 816.824C197.96 816.008 199.016 815.6 200.312 815.6H208.448C209.744 815.6 210.776 816.008 211.544 816.824C212.36 817.592 212.768 818.624 212.768 819.92V846.704C212.768 849.776 212.36 852.56 211.544 855.056C210.728 857.504 209.432 859.592 207.656 861.32C205.88 863.048 203.552 864.392 200.672 865.352C197.84 866.264 194.408 866.72 190.376 866.72C186.296 866.72 182.84 866.264 180.008 865.352C177.176 864.392 174.872 863.048 173.096 861.32C171.32 859.592 170.024 857.504 169.208 855.056C168.392 852.56 167.984 849.776 167.984 846.704V819.92ZM258.445 815.528C259.741 815.528 260.797 815.936 261.613 816.752C262.429 817.568 262.837 818.624 262.837 819.92V861.68C262.837 862.976 262.429 864.032 261.613 864.848C260.797 865.664 259.741 866.072 258.445 866.072H250.309C249.445 866.072 248.701 866.024 248.077 865.928C247.453 865.784 246.901 865.568 246.421 865.28C245.941 864.992 245.485 864.608 245.053 864.128C244.621 863.648 244.189 863.048 243.757 862.328L236.197 849.584C235.765 848.96 235.237 848.648 234.613 848.648C234.181 848.648 233.797 848.816 233.461 849.152C233.125 849.44 232.957 849.872 232.957 850.448V861.68C232.957 862.976 232.549 864.032 231.733 864.848C230.917 865.664 229.861 866.072 228.565 866.072H220.429C219.133 866.072 218.077 865.664 217.261 864.848C216.445 864.032 216.037 862.976 216.037 861.68V819.92C216.037 818.624 216.445 817.568 217.261 816.752C218.077 815.936 219.133 815.528 220.429 815.528H230.077C231.229 815.528 232.069 815.696 232.597 816.032C233.173 816.368 233.773 817.04 234.397 818.048L242.677 832.016C243.109 832.64 243.637 832.952 244.261 832.952C244.693 832.952 245.077 832.808 245.413 832.52C245.749 832.184 245.917 831.728 245.917 831.152V819.92C245.917 818.624 246.325 817.568 247.141 816.752C247.957 815.936 249.013 815.528 250.309 815.528H258.445ZM270.593 866C269.297 866 268.241 865.616 267.425 864.848C266.657 864.032 266.273 862.976 266.273 861.68V819.92C266.273 818.624 266.657 817.592 267.425 816.824C268.241 816.008 269.297 815.6 270.593 815.6H278.729C280.025 815.6 281.057 816.008 281.825 816.824C282.641 817.592 283.049 818.624 283.049 819.92V861.68C283.049 862.976 282.641 864.032 281.825 864.848C281.057 865.616 280.025 866 278.729 866H270.593ZM309.308 848.504C309.452 849.128 309.764 849.44 310.244 849.44C310.724 849.44 311.036 849.128 311.18 848.504L317.372 819.848C317.564 818.936 317.78 818.216 318.02 817.688C318.26 817.112 318.548 816.68 318.884 816.392C319.268 816.056 319.748 815.84 320.324 815.744C320.948 815.648 321.716 815.6 322.628 815.6H330.764C332.3 815.6 333.332 815.936 333.86 816.608C334.388 817.28 334.484 818.36 334.148 819.848L325.076 861.752C324.692 863.432 324.14 864.56 323.42 865.136C322.748 865.712 321.548 866 319.82 866H300.668C297.788 866 296.036 864.584 295.412 861.752L286.34 819.848C286.004 818.36 286.1 817.28 286.628 816.608C287.156 815.936 288.188 815.6 289.724 815.6H297.86C298.772 815.6 299.516 815.648 300.092 815.744C300.716 815.84 301.196 816.056 301.532 816.392C301.916 816.68 302.228 817.112 302.468 817.688C302.708 818.216 302.924 818.936 303.116 819.848L309.308 848.504ZM336.72 819.92C336.72 818.624 337.104 817.592 337.872 816.824C338.688 816.008 339.744 815.6 341.04 815.6H366.96C368.256 815.6 369.288 816.008 370.056 816.824C370.872 817.592 371.28 818.624 371.28 819.92V824.96C371.28 826.256 370.872 827.312 370.056 828.128C369.288 828.896 368.256 829.28 366.96 829.28H356.16C355.344 829.28 354.696 829.52 354.216 830C353.736 830.432 353.496 831.056 353.496 831.872V832.088C353.496 832.904 353.736 833.552 354.216 834.032C354.696 834.464 355.344 834.68 356.16 834.68H362.856C364.152 834.68 365.184 835.088 365.952 835.904C366.768 836.672 367.176 837.704 367.176 839V842.6C367.176 843.896 366.768 844.952 365.952 845.768C365.184 846.536 364.152 846.92 362.856 846.92H356.16C355.344 846.92 354.696 847.16 354.216 847.64C353.736 848.072 353.496 848.696 353.496 849.512V849.728C353.496 850.544 353.736 851.192 354.216 851.672C354.696 852.104 355.344 852.32 356.16 852.32H366.96C368.256 852.32 369.288 852.728 370.056 853.544C370.872 854.312 371.28 855.344 371.28 856.64V861.68C371.28 862.976 370.872 864.032 370.056 864.848C369.288 865.616 368.256 866 366.96 866H341.04C339.744 866 338.688 865.616 337.872 864.848C337.104 864.032 336.72 862.976 336.72 861.68V819.92ZM378.337 866.504C377.041 866.504 375.985 866.12 375.169 865.352C374.401 864.536 374.017 863.48 374.017 862.184V819.92C374.017 818.624 374.401 817.592 375.169 816.824C375.985 816.008 377.041 815.6 378.337 815.6H397.273C400.009 815.6 402.577 815.912 404.977 816.536C407.425 817.112 409.561 818.12 411.385 819.56C413.209 821 414.649 822.896 415.705 825.248C416.761 827.6 417.289 830.528 417.289 834.032C417.289 837.248 416.881 839.864 416.065 841.88C415.249 843.896 414.265 845.456 413.113 846.56C411.817 847.76 411.457 848.984 412.033 850.232L416.497 860.672C417.217 862.304 417.265 863.6 416.641 864.56C416.017 865.52 414.817 866 413.041 866H405.121C404.017 866 403.009 865.712 402.097 865.136C401.185 864.512 400.513 863.696 400.081 862.688L395.545 852.032C395.113 851.072 394.369 850.592 393.313 850.592H392.881C392.209 850.592 391.681 850.784 391.297 851.168C390.961 851.552 390.793 852.08 390.793 852.752V862.184C390.793 863.48 390.385 864.536 389.569 865.352C388.801 866.12 387.769 866.504 386.473 866.504H378.337ZM394.177 840.512C396.193 840.512 397.753 840.128 398.857 839.36C400.009 838.592 400.585 837.104 400.585 834.896C400.585 832.64 400.009 831.152 398.857 830.432C397.753 829.664 396.193 829.28 394.177 829.28H392.953C392.281 829.28 391.753 829.472 391.369 829.856C390.985 830.24 390.793 830.768 390.793 831.44V838.352C390.793 839.024 390.985 839.552 391.369 839.936C391.753 840.32 392.281 840.512 392.953 840.512H394.177ZM421.239 852.968C421.287 851.96 421.551 851.168 422.031 850.592C422.559 850.016 423.255 849.728 424.119 849.728C424.551 849.728 425.007 849.8 425.487 849.944C428.127 850.76 430.911 851.456 433.839 852.032C436.815 852.608 439.503 852.896 441.903 852.896C443.439 852.896 444.447 852.608 444.927 852.032C445.407 851.408 445.647 850.88 445.647 850.448C445.695 850.016 445.503 849.464 445.071 848.792C444.639 848.12 443.775 847.76 442.479 847.712C435.183 847.472 429.639 846.032 425.847 843.392C422.055 840.704 420.159 836.648 420.159 831.224C420.159 828.104 420.759 825.512 421.959 823.448C423.159 821.384 424.767 819.728 426.783 818.48C428.799 817.232 431.103 816.344 433.695 815.816C436.287 815.288 438.975 815.024 441.759 815.024C444.687 815.024 447.303 815.264 449.607 815.744C451.911 816.224 454.311 816.896 456.807 817.76C458.055 818.192 459.039 818.936 459.759 819.992C460.479 821.048 460.791 822.248 460.695 823.592L460.551 828.632C460.455 830.744 459.519 831.8 457.743 831.8C457.311 831.8 456.831 831.728 456.303 831.584C453.759 830.768 451.095 830.096 448.311 829.568C445.575 828.992 443.031 828.704 440.679 828.704C439.191 828.704 438.183 829.016 437.655 829.64C437.175 830.216 436.935 830.72 436.935 831.152C436.935 831.584 437.127 832.136 437.511 832.808C437.895 833.48 438.759 833.864 440.103 833.96C447.399 834.2 452.943 835.64 456.735 838.28C460.527 840.872 462.423 844.856 462.423 850.232C462.423 853.448 461.751 856.112 460.407 858.224C459.111 860.288 457.383 861.944 455.223 863.192C453.111 864.44 450.735 865.328 448.095 865.856C445.455 866.336 442.815 866.576 440.175 866.576C437.535 866.576 434.967 866.336 432.471 865.856C429.975 865.328 427.479 864.656 424.983 863.84C423.735 863.408 422.751 862.664 422.031 861.608C421.311 860.552 420.999 859.352 421.095 858.008L421.239 852.968ZM469.733 866C468.437 866 467.381 865.616 466.565 864.848C465.797 864.032 465.413 862.976 465.413 861.68V819.92C465.413 818.624 465.797 817.592 466.565 816.824C467.381 816.008 468.437 815.6 469.733 815.6H477.869C479.165 815.6 480.197 816.008 480.965 816.824C481.781 817.592 482.189 818.624 482.189 819.92V861.68C482.189 862.976 481.781 864.032 480.965 864.848C480.197 865.616 479.165 866 477.869 866H469.733ZM501.176 866C499.88 866 498.824 865.616 498.008 864.848C497.24 864.032 496.856 862.976 496.856 861.68V833.6C496.856 832.304 496.448 831.272 495.632 830.504C494.864 829.688 493.832 829.28 492.536 829.28H489.224C487.928 829.28 486.872 828.896 486.056 828.128C485.288 827.312 484.904 826.256 484.904 824.96V819.92C484.904 818.624 485.288 817.592 486.056 816.824C486.872 816.008 487.928 815.6 489.224 815.6H521.264C522.56 815.6 523.592 816.008 524.36 816.824C525.176 817.592 525.584 818.624 525.584 819.92V824.96C525.584 826.256 525.176 827.312 524.36 828.128C523.592 828.896 522.56 829.28 521.264 829.28H517.952C516.656 829.28 515.6 829.688 514.784 830.504C514.016 831.272 513.632 832.304 513.632 833.6V861.68C513.632 862.976 513.224 864.032 512.408 864.848C511.64 865.616 510.608 866 509.312 866H501.176ZM525.036 866C523.308 866 522.204 865.712 521.724 865.136C521.292 864.56 521.268 863.432 521.652 861.752L530.724 819.848C531.012 818.552 531.636 817.52 532.596 816.752C533.556 815.984 534.684 815.6 535.98 815.6H555.132C556.428 815.6 557.556 815.984 558.516 816.752C559.476 817.52 560.1 818.552 560.388 819.848L569.46 861.752C569.844 863.432 569.796 864.56 569.316 865.136C568.884 865.712 567.804 866 566.076 866H557.076C555.732 866 554.748 865.76 554.124 865.28C553.5 864.8 553.092 863.912 552.9 862.616C552.612 861.224 552.18 860.312 551.604 859.88C551.028 859.448 550.044 859.232 548.652 859.232H542.46C541.068 859.232 540.084 859.448 539.508 859.88C538.98 860.312 538.572 861.224 538.284 862.616C537.948 863.912 537.54 864.8 537.06 865.28C536.58 865.76 535.572 866 534.036 866H525.036ZM545.844 845.552C548.1 845.552 548.964 844.376 548.436 842.024L546.492 833.096C546.348 832.424 546.036 832.088 545.556 832.088C545.076 832.088 544.764 832.424 544.62 833.096L542.748 842.024C542.22 844.376 543.06 845.552 545.268 845.552H545.844ZM537.42 812.36C536.46 812.6 535.98 812.24 535.98 811.28V808.4C535.98 807.44 536.46 806.816 537.42 806.528L553.764 801.56C554.676 801.272 555.132 801.608 555.132 802.568V806.672C555.132 807.632 554.676 808.208 553.764 808.4L537.42 812.36ZM576.493 866.504C575.197 866.504 574.141 866.12 573.325 865.352C572.557 864.536 572.173 863.48 572.173 862.184V819.92C572.173 818.624 572.557 817.592 573.325 816.824C574.141 816.008 575.197 815.6 576.493 815.6H595.429C598.165 815.6 600.733 815.912 603.133 816.536C605.581 817.112 607.717 818.12 609.541 819.56C611.365 821 612.805 822.896 613.861 825.248C614.917 827.6 615.445 830.528 615.445 834.032C615.445 837.248 615.037 839.864 614.221 841.88C613.405 843.896 612.421 845.456 611.269 846.56C609.973 847.76 609.613 848.984 610.189 850.232L614.653 860.672C615.373 862.304 615.421 863.6 614.797 864.56C614.173 865.52 612.973 866 611.197 866H603.277C602.173 866 601.165 865.712 600.253 865.136C599.341 864.512 598.669 863.696 598.237 862.688L593.701 852.032C593.269 851.072 592.525 850.592 591.469 850.592H591.037C590.365 850.592 589.837 850.784 589.453 851.168C589.117 851.552 588.949 852.08 588.949 852.752V862.184C588.949 863.48 588.541 864.536 587.725 865.352C586.957 866.12 585.925 866.504 584.629 866.504H576.493ZM592.333 840.512C594.349 840.512 595.909 840.128 597.013 839.36C598.165 838.592 598.741 837.104 598.741 834.896C598.741 832.64 598.165 831.152 597.013 830.432C595.909 829.664 594.349 829.28 592.333 829.28H591.109C590.437 829.28 589.909 829.472 589.525 829.856C589.141 830.24 588.949 830.768 588.949 831.44V838.352C588.949 839.024 589.141 839.552 589.525 839.936C589.909 840.32 590.437 840.512 591.109 840.512H592.333ZM623.14 866C621.844 866 620.788 865.616 619.972 864.848C619.204 864.032 618.82 862.976 618.82 861.68V819.92C618.82 818.624 619.204 817.592 619.972 816.824C620.788 816.008 621.844 815.6 623.14 815.6H631.276C632.572 815.6 633.604 816.008 634.372 816.824C635.188 817.592 635.596 818.624 635.596 819.92V861.68C635.596 862.976 635.188 864.032 634.372 864.848C633.604 865.616 632.572 866 631.276 866H623.14ZM661.422 866.72C653.55 866.72 647.694 864.608 643.854 860.384C640.062 856.16 638.166 849.632 638.166 840.8C638.166 831.968 640.062 825.44 643.854 821.216C647.694 816.992 653.55 814.88 661.422 814.88C669.342 814.88 675.198 816.992 678.99 821.216C682.83 825.392 684.75 831.92 684.75 840.8C684.75 849.68 682.83 856.232 678.99 860.456C675.198 864.632 669.342 866.72 661.422 866.72ZM661.494 853.04C662.598 853.04 663.51 852.872 664.23 852.536C664.95 852.2 665.526 851.576 665.958 850.664C666.39 849.752 666.678 848.504 666.822 846.92C667.014 845.288 667.11 843.2 667.11 840.656C667.11 838.256 667.014 836.288 666.822 834.752C666.678 833.168 666.39 831.92 665.958 831.008C665.526 830.096 664.95 829.472 664.23 829.136C663.51 828.752 662.574 828.56 661.422 828.56C660.318 828.56 659.406 828.728 658.686 829.064C657.966 829.4 657.39 830.024 656.958 830.936C656.526 831.848 656.214 833.096 656.022 834.68C655.878 836.264 655.806 838.304 655.806 840.8C655.806 843.296 655.878 845.336 656.022 846.92C656.214 848.504 656.526 849.752 656.958 850.664C657.39 851.576 657.966 852.2 658.686 852.536C659.454 852.872 660.39 853.04 661.494 853.04Z" fill="#638439"/>
<path d="M174.834 786.7C173.034 786.7 171.568 786.167 170.434 785.1C169.368 783.967 168.834 782.5 168.834 780.7V722C168.834 720.2 169.368 718.767 170.434 717.7C171.568 716.567 173.034 716 174.834 716H201.134C204.934 716 208.501 716.433 211.834 717.3C215.234 718.1 218.201 719.5 220.734 721.5C223.268 723.5 225.268 726.133 226.734 729.4C228.201 732.667 228.934 736.733 228.934 741.6C228.934 746.067 228.368 749.7 227.234 752.5C226.101 755.3 224.734 757.467 223.134 759C221.334 760.667 220.834 762.367 221.634 764.1L227.834 778.6C228.834 780.867 228.901 782.667 228.034 784C227.168 785.333 225.501 786 223.034 786H212.034C210.501 786 209.101 785.6 207.834 784.8C206.568 783.933 205.634 782.8 205.034 781.4L198.734 766.6C198.134 765.267 197.101 764.6 195.634 764.6H195.034C194.101 764.6 193.368 764.867 192.834 765.4C192.368 765.933 192.134 766.667 192.134 767.6V780.7C192.134 782.5 191.568 783.967 190.434 785.1C189.368 786.167 187.934 786.7 186.134 786.7H174.834ZM196.834 750.6C199.634 750.6 201.801 750.067 203.334 749C204.934 747.933 205.734 745.867 205.734 742.8C205.734 739.667 204.934 737.6 203.334 736.6C201.801 735.533 199.634 735 196.834 735H195.134C194.201 735 193.468 735.267 192.934 735.8C192.401 736.333 192.134 737.067 192.134 738V747.6C192.134 748.533 192.401 749.267 192.934 749.8C193.468 750.333 194.201 750.6 195.134 750.6H196.834ZM233.819 722C233.819 720.2 234.352 718.767 235.419 717.7C236.552 716.567 238.019 716 239.819 716H275.819C277.619 716 279.052 716.567 280.119 717.7C281.252 718.767 281.819 720.2 281.819 722V729C281.819 730.8 281.252 732.267 280.119 733.4C279.052 734.467 277.619 735 275.819 735H260.819C259.685 735 258.785 735.333 258.119 736C257.452 736.6 257.119 737.467 257.119 738.6V738.9C257.119 740.033 257.452 740.933 258.119 741.6C258.785 742.2 259.685 742.5 260.819 742.5H270.119C271.919 742.5 273.352 743.067 274.419 744.2C275.552 745.267 276.119 746.7 276.119 748.5V753.5C276.119 755.3 275.552 756.767 274.419 757.9C273.352 758.967 271.919 759.5 270.119 759.5H260.819C259.685 759.5 258.785 759.833 258.119 760.5C257.452 761.1 257.119 761.967 257.119 763.1V763.4C257.119 764.533 257.452 765.433 258.119 766.1C258.785 766.7 259.685 767 260.819 767H275.819C277.619 767 279.052 767.567 280.119 768.7C281.252 769.767 281.819 771.2 281.819 773V780C281.819 781.8 281.252 783.267 280.119 784.4C279.052 785.467 277.619 786 275.819 786H239.819C238.019 786 236.552 785.467 235.419 784.4C234.352 783.267 233.819 781.8 233.819 780V722ZM286.417 767.9C286.484 766.5 286.851 765.4 287.517 764.6C288.251 763.8 289.217 763.4 290.417 763.4C291.017 763.4 291.651 763.5 292.317 763.7C295.984 764.833 299.851 765.8 303.917 766.6C308.051 767.4 311.784 767.8 315.117 767.8C317.251 767.8 318.651 767.4 319.317 766.6C319.984 765.733 320.317 765 320.317 764.4C320.384 763.8 320.117 763.033 319.517 762.1C318.917 761.167 317.717 760.667 315.917 760.6C305.784 760.267 298.084 758.267 292.817 754.6C287.551 750.867 284.917 745.233 284.917 737.7C284.917 733.367 285.751 729.767 287.417 726.9C289.084 724.033 291.317 721.733 294.117 720C296.917 718.267 300.117 717.033 303.717 716.3C307.317 715.567 311.051 715.2 314.917 715.2C318.984 715.2 322.617 715.533 325.817 716.2C329.017 716.867 332.351 717.8 335.817 719C337.551 719.6 338.917 720.633 339.917 722.1C340.917 723.567 341.351 725.233 341.217 727.1L341.017 734.1C340.884 737.033 339.584 738.5 337.117 738.5C336.517 738.5 335.851 738.4 335.117 738.2C331.584 737.067 327.884 736.133 324.017 735.4C320.217 734.6 316.684 734.2 313.417 734.2C311.351 734.2 309.951 734.633 309.217 735.5C308.551 736.3 308.217 737 308.217 737.6C308.217 738.2 308.484 738.967 309.017 739.9C309.551 740.833 310.751 741.367 312.617 741.5C322.751 741.833 330.451 743.833 335.717 747.5C340.984 751.1 343.617 756.633 343.617 764.1C343.617 768.567 342.684 772.267 340.817 775.2C339.017 778.067 336.617 780.367 333.617 782.1C330.684 783.833 327.384 785.067 323.717 785.8C320.051 786.467 316.384 786.8 312.717 786.8C309.051 786.8 305.484 786.467 302.017 785.8C298.551 785.067 295.084 784.133 291.617 783C289.884 782.4 288.517 781.367 287.517 779.9C286.517 778.433 286.084 776.767 286.217 774.9L286.417 767.9ZM369.467 786C367.667 786 366.201 785.467 365.067 784.4C364.001 783.267 363.467 781.8 363.467 780V741C363.467 739.2 362.901 737.767 361.767 736.7C360.701 735.567 359.267 735 357.467 735H352.867C351.067 735 349.601 734.467 348.467 733.4C347.401 732.267 346.867 730.8 346.867 729V722C346.867 720.2 347.401 718.767 348.467 717.7C349.601 716.567 351.067 716 352.867 716H397.367C399.167 716 400.601 716.567 401.667 717.7C402.801 718.767 403.367 720.2 403.367 722V729C403.367 730.8 402.801 732.267 401.667 733.4C400.601 734.467 399.167 735 397.367 735H392.767C390.967 735 389.501 735.567 388.367 736.7C387.301 737.767 386.767 739.2 386.767 741V780C386.767 781.8 386.201 783.267 385.067 784.4C384.001 785.467 382.567 786 380.767 786H369.467ZM402.703 786C400.303 786 398.77 785.6 398.103 784.8C397.503 784 397.47 782.433 398.003 780.1L410.603 721.9C411.003 720.1 411.87 718.667 413.203 717.6C414.536 716.533 416.103 716 417.903 716H444.503C446.303 716 447.87 716.533 449.203 717.6C450.536 718.667 451.403 720.1 451.803 721.9L464.403 780.1C464.936 782.433 464.87 784 464.203 784.8C463.603 785.6 462.103 786 459.703 786H447.203C445.336 786 443.97 785.667 443.103 785C442.236 784.333 441.67 783.1 441.403 781.3C441.003 779.367 440.403 778.1 439.603 777.5C438.803 776.9 437.436 776.6 435.503 776.6H426.903C424.97 776.6 423.603 776.9 422.803 777.5C422.07 778.1 421.503 779.367 421.103 781.3C420.636 783.1 420.07 784.333 419.403 785C418.736 785.667 417.336 786 415.203 786H402.703ZM431.603 757.6C434.736 757.6 435.936 755.967 435.203 752.7L432.503 740.3C432.303 739.367 431.87 738.9 431.203 738.9C430.536 738.9 430.103 739.367 429.903 740.3L427.303 752.7C426.57 755.967 427.736 757.6 430.803 757.6H431.603ZM465.041 722C465.041 720.2 465.574 718.767 466.641 717.7C467.774 716.567 469.241 716 471.041 716H482.341C484.141 716 485.574 716.567 486.641 717.7C487.774 718.767 488.341 720.2 488.341 722V759.2C488.341 761.933 488.874 764.1 489.941 765.7C491.007 767.233 493.074 768 496.141 768C499.207 768 501.274 767.233 502.341 765.7C503.407 764.1 503.941 761.933 503.941 759.2V722C503.941 720.2 504.474 718.767 505.541 717.7C506.674 716.567 508.141 716 509.941 716H521.241C523.041 716 524.474 716.567 525.541 717.7C526.674 718.767 527.241 720.2 527.241 722V759.2C527.241 763.467 526.674 767.333 525.541 770.8C524.407 774.2 522.607 777.1 520.141 779.5C517.674 781.9 514.441 783.767 510.441 785.1C506.507 786.367 501.741 787 496.141 787C490.474 787 485.674 786.367 481.741 785.1C477.807 783.767 474.607 781.9 472.141 779.5C469.674 777.1 467.874 774.2 466.741 770.8C465.607 767.333 465.041 763.467 465.041 759.2V722ZM538.178 786.7C536.378 786.7 534.911 786.167 533.778 785.1C532.711 783.967 532.178 782.5 532.178 780.7V722C532.178 720.2 532.711 718.767 533.778 717.7C534.911 716.567 536.378 716 538.178 716H564.478C568.278 716 571.845 716.433 575.178 717.3C578.578 718.1 581.545 719.5 584.078 721.5C586.611 723.5 588.611 726.133 590.078 729.4C591.545 732.667 592.278 736.733 592.278 741.6C592.278 746.067 591.711 749.7 590.578 752.5C589.445 755.3 588.078 757.467 586.478 759C584.678 760.667 584.178 762.367 584.978 764.1L591.178 778.6C592.178 780.867 592.245 782.667 591.378 784C590.511 785.333 588.845 786 586.378 786H575.378C573.845 786 572.445 785.6 571.178 784.8C569.911 783.933 568.978 782.8 568.378 781.4L562.078 766.6C561.478 765.267 560.445 764.6 558.978 764.6H558.378C557.445 764.6 556.711 764.867 556.178 765.4C555.711 765.933 555.478 766.667 555.478 767.6V780.7C555.478 782.5 554.911 783.967 553.778 785.1C552.711 786.167 551.278 786.7 549.478 786.7H538.178ZM560.178 750.6C562.978 750.6 565.145 750.067 566.678 749C568.278 747.933 569.078 745.867 569.078 742.8C569.078 739.667 568.278 737.6 566.678 736.6C565.145 735.533 562.978 735 560.178 735H558.478C557.545 735 556.811 735.267 556.278 735.8C555.745 736.333 555.478 737.067 555.478 738V747.6C555.478 748.533 555.745 749.267 556.278 749.8C556.811 750.333 557.545 750.6 558.478 750.6H560.178ZM601.563 786C599.163 786 597.629 785.6 596.963 784.8C596.363 784 596.329 782.433 596.863 780.1L609.463 721.9C609.863 720.1 610.729 718.667 612.063 717.6C613.396 716.533 614.963 716 616.763 716H643.363C645.163 716 646.729 716.533 648.063 717.6C649.396 718.667 650.263 720.1 650.663 721.9L663.263 780.1C663.796 782.433 663.729 784 663.063 784.8C662.463 785.6 660.963 786 658.563 786H646.063C644.196 786 642.829 785.667 641.963 785C641.096 784.333 640.529 783.1 640.263 781.3C639.863 779.367 639.263 778.1 638.463 777.5C637.663 776.9 636.296 776.6 634.363 776.6H625.763C623.829 776.6 622.463 776.9 621.663 777.5C620.929 778.1 620.363 779.367 619.963 781.3C619.496 783.1 618.929 784.333 618.263 785C617.596 785.667 616.196 786 614.063 786H601.563ZM630.463 757.6C633.596 757.6 634.796 755.967 634.063 752.7L631.363 740.3C631.163 739.367 630.729 738.9 630.063 738.9C629.396 738.9 628.963 739.367 628.763 740.3L626.163 752.7C625.429 755.967 626.596 757.6 629.663 757.6H630.463ZM725.827 715.9C727.627 715.9 729.094 716.467 730.227 717.6C731.361 718.733 731.927 720.2 731.927 722V780C731.927 781.8 731.361 783.267 730.227 784.4C729.094 785.533 727.627 786.1 725.827 786.1H714.527C713.327 786.1 712.294 786.033 711.427 785.9C710.561 785.7 709.794 785.4 709.127 785C708.461 784.6 707.827 784.067 707.227 783.4C706.627 782.733 706.027 781.9 705.427 780.9L694.927 763.2C694.327 762.333 693.594 761.9 692.727 761.9C692.127 761.9 691.594 762.133 691.127 762.6C690.661 763 690.427 763.6 690.427 764.4V780C690.427 781.8 689.861 783.267 688.727 784.4C687.594 785.533 686.127 786.1 684.327 786.1H673.027C671.227 786.1 669.761 785.533 668.627 784.4C667.494 783.267 666.927 781.8 666.927 780V722C666.927 720.2 667.494 718.733 668.627 717.6C669.761 716.467 671.227 715.9 673.027 715.9H686.427C688.027 715.9 689.194 716.133 689.927 716.6C690.727 717.067 691.561 718 692.427 719.4L703.927 738.8C704.527 739.667 705.261 740.1 706.127 740.1C706.727 740.1 707.261 739.9 707.727 739.5C708.194 739.033 708.427 738.4 708.427 737.6V722C708.427 720.2 708.994 718.733 710.127 717.6C711.261 716.467 712.727 715.9 714.527 715.9H725.827ZM758.397 786C756.597 786 755.13 785.467 753.997 784.4C752.93 783.267 752.397 781.8 752.397 780V741C752.397 739.2 751.83 737.767 750.697 736.7C749.63 735.567 748.197 735 746.397 735H741.797C739.997 735 738.53 734.467 737.397 733.4C736.33 732.267 735.797 730.8 735.797 729V722C735.797 720.2 736.33 718.767 737.397 717.7C738.53 716.567 739.997 716 741.797 716H786.297C788.097 716 789.53 716.567 790.597 717.7C791.73 718.767 792.297 720.2 792.297 722V729C792.297 730.8 791.73 732.267 790.597 733.4C789.53 734.467 788.097 735 786.297 735H781.697C779.897 735 778.43 735.567 777.297 736.7C776.23 737.767 775.697 739.2 775.697 741V780C775.697 781.8 775.13 783.267 773.997 784.4C772.93 785.467 771.497 786 769.697 786H758.397ZM796.217 722C796.217 720.2 796.751 718.767 797.817 717.7C798.951 716.567 800.417 716 802.217 716H838.217C840.017 716 841.451 716.567 842.517 717.7C843.651 718.767 844.217 720.2 844.217 722V729C844.217 730.8 843.651 732.267 842.517 733.4C841.451 734.467 840.017 735 838.217 735H823.217C822.084 735 821.184 735.333 820.517 736C819.851 736.6 819.517 737.467 819.517 738.6V738.9C819.517 740.033 819.851 740.933 820.517 741.6C821.184 742.2 822.084 742.5 823.217 742.5H832.517C834.317 742.5 835.751 743.067 836.817 744.2C837.951 745.267 838.517 746.7 838.517 748.5V753.5C838.517 755.3 837.951 756.767 836.817 757.9C835.751 758.967 834.317 759.5 832.517 759.5H823.217C822.084 759.5 821.184 759.833 820.517 760.5C819.851 761.1 819.517 761.967 819.517 763.1V763.4C819.517 764.533 819.851 765.433 820.517 766.1C821.184 766.7 822.084 767 823.217 767H838.217C840.017 767 841.451 767.567 842.517 768.7C843.651 769.767 844.217 771.2 844.217 773V780C844.217 781.8 843.651 783.267 842.517 784.4C841.451 785.467 840.017 786 838.217 786H802.217C800.417 786 798.951 785.467 797.817 784.4C796.751 783.267 796.217 781.8 796.217 780V722Z" fill="#E57D25"/>
<path d="M501.916 543.918C495.764 530.008 497.488 518.253 508.367 507.471C517.849 498.072 523.876 486.442 527.137 473.589C534.331 445.192 534.603 416.558 527.755 388.133C521.061 360.362 505.024 339.361 478.969 326.939C458.907 317.373 437.399 313.202 415.335 311.541C373.215 308.371 331.089 310.783 288.969 311.381C259.098 311.812 252.334 318.666 252.202 348.482C252.028 389.148 252.16 429.815 252.16 479.887C252.981 518.531 250.284 566.629 254.156 614.643C255.414 630.277 263.29 638.897 278.889 639.398C297.86 640.009 316.9 639.968 335.864 639.161C352.319 638.459 361.217 628.511 361.397 612.008C361.564 596.875 361.126 581.734 361.036 566.601C360.994 559.475 361.404 552.434 363.511 545.475C364.824 541.123 367.251 539.379 371.547 538.621C383.705 536.487 390.976 541.089 396.364 554.804C404.393 575.228 411.831 595.902 421.508 615.644C427.84 628.567 438.567 634.671 452.685 636.012C468.389 637.507 484.106 637.472 499.831 637.354C528.645 637.138 535.951 626.447 526.483 599.169C519.844 580.045 510.084 562.333 501.923 543.897L501.916 543.918ZM411.49 462.87C400.465 472.185 387.466 474.11 373.862 471.364C366.187 469.814 361.634 464.142 361.175 456.154C360.779 449.363 361.091 442.529 361.091 435.717C361.14 435.717 361.182 435.717 361.231 435.717C361.231 429.495 360.89 423.253 361.3 417.059C362.308 401.598 371.241 393.973 386.493 395.134C402.467 396.35 416.447 408.682 422.342 426.742C426.436 439.29 422.168 453.853 411.497 462.87H411.49Z" fill="#E57D25"/>
<path d="M763.97 349.253C763.956 343.032 763.921 336.803 762.475 330.658C759.472 317.916 753.48 312.333 740.32 311.583C720.446 310.443 700.53 310.457 680.676 311.847C664.875 312.952 657.986 320.272 657.006 336.351C656.283 348.197 655.873 360.07 655.831 371.936C655.664 417.657 655.845 463.377 655.588 509.098C655.504 523.522 651.118 536.64 640.162 546.712C624.639 560.991 601.915 557.341 591.585 538.989C587.615 531.94 584.96 524.398 584.251 516.285C581.477 484.579 582.144 452.832 583.152 421.07C583.987 394.661 584.8 368.238 583.632 341.829C582.756 321.954 574.47 313.682 554.811 311.27C535.812 308.934 516.869 310.283 497.912 311.541C493.234 311.847 486.887 312.028 485.921 317.165C485.024 321.927 491.28 323.519 494.965 325.507C509.869 333.543 522.736 343.622 531.224 358.673C555.151 401.098 555.944 474.833 517.599 515.917C512.073 521.84 510.794 527.881 514.13 535.367C518.711 545.663 522.889 556.139 527.06 566.615C533.838 583.646 543.223 600.073 543.23 618.939C543.23 627.17 546.177 630.583 553.427 632.529C599.523 644.882 645.605 645.445 691.201 630.938C716.476 622.895 735.899 606.67 748.322 582.84C758.526 563.264 763.233 542.131 763.643 520.255C764.192 491.169 763.782 462.07 763.782 432.978C763.851 432.978 763.921 432.978 763.99 432.978C763.99 405.074 764.025 377.164 763.963 349.26L763.97 349.253Z" fill="#638439"/>
<path d="M701.357 208.707C701.03 197.494 693.46 191.877 684.235 196.785C667.711 205.585 647.955 208.54 635.483 225.175C630.374 231.987 626.46 239.502 621.719 245.897C611.64 259.481 612.495 274.531 612.787 288.643C613.03 300.481 616.2 313.335 622.581 325.083C625.153 318.361 627.552 312.104 629.943 305.848C634.469 291.083 641.33 277.332 648.393 263.673C649.609 261.038 650.694 258.334 652.091 255.79C653.05 254.031 654.433 252.508 657.325 251.598C655.136 256.123 652.946 260.649 650.756 265.181C650.652 265.675 650.36 266.266 649.915 266.919C643.944 281.615 637.965 296.31 631.994 311.006C630.902 314.593 629.894 318.208 628.692 321.76C627.865 324.193 625.355 326.786 627.552 329.087C630.054 331.708 633.259 329.497 635.706 328.287C651.048 320.675 665.688 313.105 678.305 300.05C695.281 282.491 700.147 262.234 703.546 239.801C705.201 228.887 701.662 219.092 701.357 208.714V208.707Z" fill="#638439"/>
<path d="M596.186 260.579C584.682 246.189 569.291 238.139 550.153 238.55C544.724 238.668 539.017 234.511 533.893 238.55C527.825 243.339 532.67 249.464 532.788 255.011C533.073 268.872 539.677 280.28 547.449 290.957C559.135 307.002 577.515 311.353 595.178 316.435C598.049 317.262 602.234 318.006 605.279 315.17C598.056 305.125 590.834 295.073 583.611 285.028C579.086 279.779 574.56 274.524 570.035 269.275C576.673 272.418 581.678 277.207 585.676 283.088C594.073 290.957 599.287 301.406 607.156 309.699C609.944 291.875 607.545 274.788 596.186 260.579Z" fill="#638439"/>
</svg>
