<svg width="216" height="176" viewBox="0 0 216 176" fill="none" xmlns="http://www.w3.org/2000/svg">
<path d="M106.11 79.6524C104.704 76.477 105.098 73.7935 107.584 71.3321C109.751 69.1866 111.128 66.5317 111.873 63.5974C113.517 57.1148 113.579 50.5782 112.014 44.0892C110.485 37.7494 106.82 32.9553 100.866 30.1194C96.2814 27.9358 91.3664 26.9836 86.3244 26.6043C76.6994 25.8807 67.0729 26.4314 57.4479 26.5678C50.6219 26.6662 49.0763 28.231 49.0461 35.0373C49.0064 44.3209 49.0366 53.6045 49.0366 65.0352C49.224 73.8569 48.6077 84.837 49.4925 95.7979C49.78 99.3669 51.5798 101.335 55.1445 101.449C59.4797 101.589 63.8307 101.579 68.1642 101.395C71.9243 101.235 73.9576 98.9639 73.9989 95.1965C74.037 91.7417 73.937 88.2854 73.9163 84.8306C73.9068 83.204 74.0005 81.5964 74.4818 80.0079C74.7821 79.0145 75.3365 78.6162 76.3182 78.4432C79.0965 77.956 80.7582 79.0065 81.9893 82.1376C83.824 86.8 85.5238 91.5195 87.735 96.0264C89.1822 98.9765 91.6333 100.37 94.8596 100.676C98.4482 101.017 102.04 101.009 105.633 100.982C112.218 100.933 113.887 98.4925 111.724 92.2654C110.207 87.8997 107.976 83.8562 106.111 79.6477L106.11 79.6524ZM85.4459 61.1503C82.9265 63.2768 79.9559 63.7164 76.8472 63.0896C75.0934 62.7357 74.0529 61.4408 73.9481 59.6174C73.8575 58.0669 73.929 56.507 73.929 54.9518C73.9401 54.9518 73.9497 54.9518 73.9608 54.9518C73.9608 53.5315 73.883 52.1064 73.9767 50.6924C74.207 47.1631 76.2483 45.4222 79.7336 45.6872C83.384 45.965 86.5786 48.7802 87.9257 52.903C88.8613 55.7675 87.8859 59.0921 85.4475 61.1503H85.4459Z" fill="#E57D25"/>
<path d="M165.993 35.2138C165.99 33.7935 165.982 32.3716 165.651 30.9687C164.965 28.0599 163.596 26.7856 160.589 26.6142C156.047 26.3539 151.496 26.3571 146.959 26.6745C143.348 26.9268 141.774 28.5978 141.55 32.2684C141.385 34.9726 141.291 37.683 141.282 40.3919C141.244 50.8292 141.285 61.2665 141.226 71.7038C141.207 74.9967 140.205 77.9912 137.701 80.2907C134.154 83.5503 128.961 82.7171 126.6 78.5276C125.693 76.9184 125.086 75.1966 124.924 73.3447C124.291 66.1067 124.443 58.8591 124.673 51.6084C124.864 45.5796 125.05 39.5477 124.783 33.5189C124.583 28.9819 122.689 27.0934 118.197 26.5428C113.855 26.0095 109.527 26.3174 105.195 26.6046C104.126 26.6745 102.675 26.7157 102.454 27.8885C102.25 28.9755 103.679 29.3389 104.521 29.7928C107.927 31.6273 110.867 33.9284 112.807 37.3641C118.275 47.0491 118.456 63.8818 109.693 73.2606C108.431 74.6126 108.138 75.9917 108.901 77.7008C109.948 80.0511 110.902 82.4426 111.855 84.8341C113.404 88.7221 115.549 92.472 115.55 96.7789C115.55 98.6579 116.224 99.4371 117.881 99.8814C128.414 102.701 138.945 102.83 149.364 99.518C155.14 97.6819 159.578 93.978 162.417 88.538C164.749 84.0692 165.825 79.2449 165.918 74.2508C166.044 67.6111 165.95 60.9682 165.95 54.3268C165.966 54.3268 165.982 54.3268 165.998 54.3268C165.998 47.9569 166.006 41.5853 165.991 35.2154L165.993 35.2138Z" fill="#638439"/>
<path d="M151.685 3.12901C151.61 0.569279 149.88 -0.712965 147.772 0.407411C143.996 2.41647 139.482 3.09092 136.632 6.88846C135.464 8.44365 134.57 10.1591 133.487 11.6191C131.183 14.72 131.379 18.1557 131.445 21.3772C131.501 24.0797 132.225 27.014 133.684 29.6959C134.271 28.1613 134.819 26.7331 135.366 25.3048C136.4 21.9342 137.968 18.7952 139.582 15.6769C139.86 15.0755 140.108 14.4581 140.427 13.8773C140.646 13.4758 140.962 13.1283 141.623 12.9204C141.123 13.9535 140.622 14.9866 140.122 16.0213C140.098 16.1339 140.031 16.2688 139.93 16.418C138.565 19.7728 137.199 23.1276 135.834 26.4823C135.585 27.3012 135.355 28.1264 135.08 28.9373C134.891 29.4928 134.317 30.0847 134.819 30.61C135.391 31.2082 136.124 30.7036 136.683 30.4275C140.189 28.6898 143.534 26.9616 146.417 23.9813C150.297 19.9727 151.409 15.3484 152.185 10.2274C152.563 7.73588 151.755 5.49989 151.685 3.13059V3.12901Z" fill="#638439"/>
<path d="M127.652 14.9707C125.023 11.6857 121.506 9.84806 117.133 9.94169C115.892 9.96867 114.588 9.01968 113.417 9.94169C112.03 11.0351 113.137 12.4332 113.164 13.6996C113.23 16.8639 114.739 19.4681 116.515 21.9056C119.185 25.5682 123.385 26.5617 127.422 27.7217C128.078 27.9106 129.034 28.0804 129.73 27.4329C128.079 25.1398 126.429 22.8451 124.778 20.5519C123.744 19.3538 122.71 18.1541 121.676 16.9559C123.193 17.6732 124.337 18.7666 125.25 20.1092C127.169 21.9056 128.36 24.2908 130.159 26.184C130.796 22.1151 130.248 18.2144 127.652 14.9707Z" fill="#638439"/>
<rect x="169" y="153" width="47" height="23" rx="5" fill="#E57D25"/>
<path d="M178.4 159.76C178.4 159.472 178.485 159.243 178.656 159.072C178.837 158.891 179.072 158.8 179.36 158.8H181.168C181.456 158.8 181.685 158.891 181.856 159.072C182.037 159.243 182.128 159.472 182.128 159.76V165.712C182.128 166.149 182.213 166.496 182.384 166.752C182.554 166.997 182.885 167.12 183.376 167.12C183.866 167.12 184.197 166.997 184.368 166.752C184.538 166.496 184.624 166.149 184.624 165.712V159.76C184.624 159.472 184.709 159.243 184.88 159.072C185.061 158.891 185.296 158.8 185.584 158.8H187.392C187.68 158.8 187.909 158.891 188.08 159.072C188.261 159.243 188.352 159.472 188.352 159.76V165.712C188.352 166.395 188.261 167.013 188.08 167.568C187.898 168.112 187.61 168.576 187.216 168.96C186.821 169.344 186.304 169.643 185.664 169.856C185.034 170.059 184.272 170.16 183.376 170.16C182.469 170.16 181.701 170.059 181.072 169.856C180.442 169.643 179.93 169.344 179.536 168.96C179.141 168.576 178.853 168.112 178.672 167.568C178.49 167.013 178.4 166.395 178.4 165.712V159.76ZM189.876 170.112C189.588 170.112 189.353 170.027 189.172 169.856C189.001 169.675 188.916 169.44 188.916 169.152V159.76C188.916 159.472 189.001 159.243 189.172 159.072C189.353 158.891 189.588 158.8 189.876 158.8H194.084C194.724 158.8 195.316 158.864 195.86 158.992C196.404 159.109 196.873 159.328 197.268 159.648C197.673 159.968 197.988 160.405 198.212 160.96C198.436 161.515 198.548 162.224 198.548 163.088C198.548 163.941 198.436 164.645 198.212 165.2C197.988 165.755 197.673 166.192 197.268 166.512C196.873 166.832 196.404 167.056 195.86 167.184C195.316 167.312 194.724 167.376 194.084 167.376H193.124C192.974 167.376 192.857 167.419 192.772 167.504C192.686 167.589 192.644 167.707 192.644 167.856V169.152C192.644 169.44 192.553 169.675 192.372 169.856C192.201 170.027 191.972 170.112 191.684 170.112H189.876ZM192.644 163.856C192.644 164.005 192.686 164.123 192.772 164.208C192.857 164.293 192.974 164.336 193.124 164.336H193.396C193.844 164.336 194.19 164.251 194.436 164.08C194.692 163.909 194.82 163.579 194.82 163.088C194.82 162.587 194.692 162.256 194.436 162.096C194.19 161.925 193.844 161.84 193.396 161.84H193.124C192.974 161.84 192.857 161.883 192.772 161.968C192.686 162.053 192.644 162.171 192.644 162.32V163.856ZM199.041 159.76C199.041 159.472 199.126 159.243 199.297 159.072C199.478 158.891 199.713 158.8 200.001 158.8H205.761C206.049 158.8 206.278 158.891 206.449 159.072C206.63 159.243 206.721 159.472 206.721 159.76V160.88C206.721 161.168 206.63 161.403 206.449 161.584C206.278 161.755 206.049 161.84 205.761 161.84H203.729C203.441 161.84 203.206 161.931 203.025 162.112C202.854 162.283 202.769 162.512 202.769 162.8V162.88C202.769 163.168 202.854 163.403 203.025 163.584C203.206 163.755 203.441 163.84 203.729 163.84H204.849C205.137 163.84 205.366 163.931 205.537 164.112C205.718 164.283 205.809 164.512 205.809 164.8V165.92C205.809 166.208 205.718 166.443 205.537 166.624C205.366 166.795 205.137 166.88 204.849 166.88H203.729C203.441 166.88 203.206 166.971 203.025 167.152C202.854 167.323 202.769 167.552 202.769 167.84V169.04C202.769 169.328 202.678 169.563 202.497 169.744C202.326 169.915 202.097 170 201.809 170H200.001C199.713 170 199.478 169.915 199.297 169.744C199.126 169.563 199.041 169.328 199.041 169.04V159.76Z" fill="#F2E8B9"/>
<path d="M0.70332 156.92C0.70332 156.524 0.820654 156.209 1.05532 155.974C1.30465 155.725 1.62732 155.6 2.02332 155.6H4.50932C4.90532 155.6 5.22065 155.725 5.45532 155.974C5.70465 156.209 5.82932 156.524 5.82932 156.92V165.104C5.82932 165.705 5.94665 166.182 6.18132 166.534C6.41599 166.871 6.87065 167.04 7.54532 167.04C8.21999 167.04 8.67465 166.871 8.90932 166.534C9.14399 166.182 9.26132 165.705 9.26132 165.104V156.92C9.26132 156.524 9.37865 156.209 9.61332 155.974C9.86265 155.725 10.1853 155.6 10.5813 155.6H13.0673C13.4633 155.6 13.7787 155.725 14.0133 155.974C14.2627 156.209 14.3873 156.524 14.3873 156.92V165.104C14.3873 166.043 14.2627 166.893 14.0133 167.656C13.764 168.404 13.368 169.042 12.8253 169.57C12.2827 170.098 11.5713 170.509 10.6913 170.802C9.82599 171.081 8.77732 171.22 7.54532 171.22C6.29865 171.22 5.24265 171.081 4.37732 170.802C3.51199 170.509 2.80799 170.098 2.26532 169.57C1.72265 169.042 1.32665 168.404 1.07732 167.656C0.827987 166.893 0.70332 166.043 0.70332 165.104V156.92ZM28.1706 155.578C28.5666 155.578 28.8892 155.703 29.1386 155.952C29.3879 156.201 29.5126 156.524 29.5126 156.92V169.68C29.5126 170.076 29.3879 170.399 29.1386 170.648C28.8892 170.897 28.5666 171.022 28.1706 171.022H25.6846C25.4206 171.022 25.1932 171.007 25.0026 170.978C24.8119 170.934 24.6432 170.868 24.4966 170.78C24.3499 170.692 24.2106 170.575 24.0786 170.428C23.9466 170.281 23.8146 170.098 23.6826 169.878L21.3726 165.984C21.2406 165.793 21.0792 165.698 20.8886 165.698C20.7566 165.698 20.6392 165.749 20.5366 165.852C20.4339 165.94 20.3826 166.072 20.3826 166.248V169.68C20.3826 170.076 20.2579 170.399 20.0086 170.648C19.7592 170.897 19.4366 171.022 19.0406 171.022H16.5546C16.1586 171.022 15.8359 170.897 15.5866 170.648C15.3372 170.399 15.2126 170.076 15.2126 169.68V156.92C15.2126 156.524 15.3372 156.201 15.5866 155.952C15.8359 155.703 16.1586 155.578 16.5546 155.578H19.5026C19.8546 155.578 20.1112 155.629 20.2726 155.732C20.4486 155.835 20.6319 156.04 20.8226 156.348L23.3526 160.616C23.4846 160.807 23.6459 160.902 23.8366 160.902C23.9686 160.902 24.0859 160.858 24.1886 160.77C24.2912 160.667 24.3426 160.528 24.3426 160.352V156.92C24.3426 156.524 24.4672 156.201 24.7166 155.952C24.9659 155.703 25.2886 155.578 25.6846 155.578H28.1706ZM31.7089 171C31.3129 171 30.9902 170.883 30.7409 170.648C30.5062 170.399 30.3889 170.076 30.3889 169.68V156.92C30.3889 156.524 30.5062 156.209 30.7409 155.974C30.9902 155.725 31.3129 155.6 31.7089 155.6H34.1949C34.5909 155.6 34.9062 155.725 35.1409 155.974C35.3902 156.209 35.5149 156.524 35.5149 156.92V169.68C35.5149 170.076 35.3902 170.399 35.1409 170.648C34.9062 170.883 34.5909 171 34.1949 171H31.7089ZM43.3648 165.654C43.4088 165.845 43.5042 165.94 43.6508 165.94C43.7975 165.94 43.8928 165.845 43.9368 165.654L45.8288 156.898C45.8875 156.619 45.9535 156.399 46.0268 156.238C46.1002 156.062 46.1882 155.93 46.2908 155.842C46.4082 155.739 46.5548 155.673 46.7308 155.644C46.9215 155.615 47.1562 155.6 47.4348 155.6H49.9208C50.3902 155.6 50.7055 155.703 50.8668 155.908C51.0282 156.113 51.0575 156.443 50.9548 156.898L48.1828 169.702C48.0655 170.215 47.8968 170.56 47.6768 170.736C47.4715 170.912 47.1048 171 46.5768 171H40.7248C39.8448 171 39.3095 170.567 39.1188 169.702L36.3468 156.898C36.2442 156.443 36.2735 156.113 36.4348 155.908C36.5962 155.703 36.9115 155.6 37.3808 155.6H39.8668C40.1455 155.6 40.3728 155.615 40.5488 155.644C40.7395 155.673 40.8862 155.739 40.9888 155.842C41.1062 155.93 41.2015 156.062 41.2748 156.238C41.3482 156.399 41.4142 156.619 41.4728 156.898L43.3648 165.654ZM51.5671 156.92C51.5671 156.524 51.6845 156.209 51.9191 155.974C52.1685 155.725 52.4911 155.6 52.8871 155.6H60.8071C61.2031 155.6 61.5185 155.725 61.7531 155.974C62.0025 156.209 62.1271 156.524 62.1271 156.92V158.46C62.1271 158.856 62.0025 159.179 61.7531 159.428C61.5185 159.663 61.2031 159.78 60.8071 159.78H57.5071C57.2578 159.78 57.0598 159.853 56.9131 160C56.7665 160.132 56.6931 160.323 56.6931 160.572V160.638C56.6931 160.887 56.7665 161.085 56.9131 161.232C57.0598 161.364 57.2578 161.43 57.5071 161.43H59.5531C59.9491 161.43 60.2645 161.555 60.4991 161.804C60.7485 162.039 60.8731 162.354 60.8731 162.75V163.85C60.8731 164.246 60.7485 164.569 60.4991 164.818C60.2645 165.053 59.9491 165.17 59.5531 165.17H57.5071C57.2578 165.17 57.0598 165.243 56.9131 165.39C56.7665 165.522 56.6931 165.713 56.6931 165.962V166.028C56.6931 166.277 56.7665 166.475 56.9131 166.622C57.0598 166.754 57.2578 166.82 57.5071 166.82H60.8071C61.2031 166.82 61.5185 166.945 61.7531 167.194C62.0025 167.429 62.1271 167.744 62.1271 168.14V169.68C62.1271 170.076 62.0025 170.399 61.7531 170.648C61.5185 170.883 61.2031 171 60.8071 171H52.8871C52.4911 171 52.1685 170.883 51.9191 170.648C51.6845 170.399 51.5671 170.076 51.5671 169.68V156.92ZM64.1098 171.154C63.7138 171.154 63.3911 171.037 63.1418 170.802C62.9071 170.553 62.7898 170.23 62.7898 169.834V156.92C62.7898 156.524 62.9071 156.209 63.1418 155.974C63.3911 155.725 63.7138 155.6 64.1098 155.6H69.8958C70.7318 155.6 71.5164 155.695 72.2498 155.886C72.9978 156.062 73.6504 156.37 74.2078 156.81C74.7651 157.25 75.2051 157.829 75.5278 158.548C75.8504 159.267 76.0118 160.161 76.0118 161.232C76.0118 162.215 75.8871 163.014 75.6378 163.63C75.3884 164.246 75.0878 164.723 74.7358 165.06C74.3398 165.427 74.2298 165.801 74.4058 166.182L75.7698 169.372C75.9898 169.871 76.0044 170.267 75.8138 170.56C75.6231 170.853 75.2564 171 74.7138 171H72.2938C71.9564 171 71.6484 170.912 71.3698 170.736C71.0911 170.545 70.8858 170.296 70.7538 169.988L69.3678 166.732C69.2358 166.439 69.0084 166.292 68.6858 166.292H68.5538C68.3484 166.292 68.1871 166.351 68.0698 166.468C67.9671 166.585 67.9158 166.747 67.9158 166.952V169.834C67.9158 170.23 67.7911 170.553 67.5418 170.802C67.3071 171.037 66.9918 171.154 66.5958 171.154H64.1098ZM68.9498 163.212C69.5658 163.212 70.0424 163.095 70.3798 162.86C70.7318 162.625 70.9078 162.171 70.9078 161.496C70.9078 160.807 70.7318 160.352 70.3798 160.132C70.0424 159.897 69.5658 159.78 68.9498 159.78H68.5758C68.3704 159.78 68.2091 159.839 68.0918 159.956C67.9744 160.073 67.9158 160.235 67.9158 160.44V162.552C67.9158 162.757 67.9744 162.919 68.0918 163.036C68.2091 163.153 68.3704 163.212 68.5758 163.212H68.9498ZM77.0453 167.018C77.06 166.71 77.1407 166.468 77.2873 166.292C77.4487 166.116 77.6613 166.028 77.9253 166.028C78.0573 166.028 78.1967 166.05 78.3433 166.094C79.15 166.343 80.0007 166.556 80.8953 166.732C81.8047 166.908 82.626 166.996 83.3593 166.996C83.8287 166.996 84.1367 166.908 84.2833 166.732C84.43 166.541 84.5033 166.38 84.5033 166.248C84.518 166.116 84.4593 165.947 84.3273 165.742C84.1953 165.537 83.9313 165.427 83.5353 165.412C81.306 165.339 79.612 164.899 78.4533 164.092C77.2947 163.271 76.7153 162.031 76.7153 160.374C76.7153 159.421 76.8987 158.629 77.2653 157.998C77.632 157.367 78.1233 156.861 78.7393 156.48C79.3553 156.099 80.0593 155.827 80.8513 155.666C81.6433 155.505 82.4647 155.424 83.3153 155.424C84.21 155.424 85.0093 155.497 85.7133 155.644C86.4173 155.791 87.1507 155.996 87.9133 156.26C88.2947 156.392 88.5953 156.619 88.8153 156.942C89.0353 157.265 89.1307 157.631 89.1013 158.042L89.0573 159.582C89.028 160.227 88.742 160.55 88.1993 160.55C88.0673 160.55 87.9207 160.528 87.7593 160.484C86.982 160.235 86.168 160.029 85.3173 159.868C84.4813 159.692 83.704 159.604 82.9853 159.604C82.5307 159.604 82.2227 159.699 82.0613 159.89C81.9147 160.066 81.8413 160.22 81.8413 160.352C81.8413 160.484 81.9 160.653 82.0173 160.858C82.1347 161.063 82.3987 161.181 82.8093 161.21C85.0387 161.283 86.7327 161.723 87.8913 162.53C89.05 163.322 89.6293 164.539 89.6293 166.182C89.6293 167.165 89.424 167.979 89.0133 168.624C88.6173 169.255 88.0893 169.761 87.4293 170.142C86.784 170.523 86.058 170.795 85.2513 170.956C84.4447 171.103 83.638 171.176 82.8313 171.176C82.0247 171.176 81.24 171.103 80.4773 170.956C79.7147 170.795 78.952 170.589 78.1893 170.34C77.808 170.208 77.5073 169.981 77.2873 169.658C77.0673 169.335 76.972 168.969 77.0013 168.558L77.0453 167.018ZM91.6893 171C91.2933 171 90.9707 170.883 90.7213 170.648C90.4867 170.399 90.3693 170.076 90.3693 169.68V156.92C90.3693 156.524 90.4867 156.209 90.7213 155.974C90.9707 155.725 91.2933 155.6 91.6893 155.6H94.1753C94.5713 155.6 94.8867 155.725 95.1213 155.974C95.3707 156.209 95.4953 156.524 95.4953 156.92V169.68C95.4953 170.076 95.3707 170.399 95.1213 170.648C94.8867 170.883 94.5713 171 94.1753 171H91.6893ZM101.123 171C100.727 171 100.405 170.883 100.155 170.648C99.9206 170.399 99.8033 170.076 99.8033 169.68V161.1C99.8033 160.704 99.6786 160.389 99.4293 160.154C99.1946 159.905 98.8793 159.78 98.4833 159.78H97.4713C97.0753 159.78 96.7526 159.663 96.5033 159.428C96.2686 159.179 96.1513 158.856 96.1513 158.46V156.92C96.1513 156.524 96.2686 156.209 96.5033 155.974C96.7526 155.725 97.0753 155.6 97.4713 155.6H107.261C107.657 155.6 107.973 155.725 108.207 155.974C108.457 156.209 108.581 156.524 108.581 156.92V158.46C108.581 158.856 108.457 159.179 108.207 159.428C107.973 159.663 107.657 159.78 107.261 159.78H106.249C105.853 159.78 105.531 159.905 105.281 160.154C105.047 160.389 104.929 160.704 104.929 161.1V169.68C104.929 170.076 104.805 170.399 104.555 170.648C104.321 170.883 104.005 171 103.609 171H101.123ZM108.24 171C107.712 171 107.375 170.912 107.228 170.736C107.096 170.56 107.089 170.215 107.206 169.702L109.978 156.898C110.066 156.502 110.257 156.187 110.55 155.952C110.844 155.717 111.188 155.6 111.584 155.6H117.436C117.832 155.6 118.177 155.717 118.47 155.952C118.764 156.187 118.954 156.502 119.042 156.898L121.814 169.702C121.932 170.215 121.917 170.56 121.77 170.736C121.638 170.912 121.308 171 120.78 171H118.03C117.62 171 117.319 170.927 117.128 170.78C116.938 170.633 116.813 170.362 116.754 169.966C116.666 169.541 116.534 169.262 116.358 169.13C116.182 168.998 115.882 168.932 115.456 168.932H113.564C113.139 168.932 112.838 168.998 112.662 169.13C112.501 169.262 112.376 169.541 112.288 169.966C112.186 170.362 112.061 170.633 111.914 170.78C111.768 170.927 111.46 171 110.99 171H108.24ZM114.598 164.752C115.288 164.752 115.552 164.393 115.39 163.674L114.796 160.946C114.752 160.741 114.657 160.638 114.51 160.638C114.364 160.638 114.268 160.741 114.224 160.946L113.652 163.674C113.491 164.393 113.748 164.752 114.422 164.752H114.598ZM112.024 154.61C111.731 154.683 111.584 154.573 111.584 154.28V153.4C111.584 153.107 111.731 152.916 112.024 152.828L117.018 151.31C117.297 151.222 117.436 151.325 117.436 151.618V152.872C117.436 153.165 117.297 153.341 117.018 153.4L112.024 154.61ZM123.789 171.154C123.393 171.154 123.071 171.037 122.821 170.802C122.587 170.553 122.469 170.23 122.469 169.834V156.92C122.469 156.524 122.587 156.209 122.821 155.974C123.071 155.725 123.393 155.6 123.789 155.6H129.575C130.411 155.6 131.196 155.695 131.929 155.886C132.677 156.062 133.33 156.37 133.887 156.81C134.445 157.25 134.885 157.829 135.207 158.548C135.53 159.267 135.691 160.161 135.691 161.232C135.691 162.215 135.567 163.014 135.317 163.63C135.068 164.246 134.767 164.723 134.415 165.06C134.019 165.427 133.909 165.801 134.085 166.182L135.449 169.372C135.669 169.871 135.684 170.267 135.493 170.56C135.303 170.853 134.936 171 134.393 171H131.973C131.636 171 131.328 170.912 131.049 170.736C130.771 170.545 130.565 170.296 130.433 169.988L129.047 166.732C128.915 166.439 128.688 166.292 128.365 166.292H128.233C128.028 166.292 127.867 166.351 127.749 166.468C127.647 166.585 127.595 166.747 127.595 166.952V169.834C127.595 170.23 127.471 170.553 127.221 170.802C126.987 171.037 126.671 171.154 126.275 171.154H123.789ZM128.629 163.212C129.245 163.212 129.722 163.095 130.059 162.86C130.411 162.625 130.587 162.171 130.587 161.496C130.587 160.807 130.411 160.352 130.059 160.132C129.722 159.897 129.245 159.78 128.629 159.78H128.255C128.05 159.78 127.889 159.839 127.771 159.956C127.654 160.073 127.595 160.235 127.595 160.44V162.552C127.595 162.757 127.654 162.919 127.771 163.036C127.889 163.153 128.05 163.212 128.255 163.212H128.629ZM137.869 171C137.473 171 137.15 170.883 136.901 170.648C136.666 170.399 136.549 170.076 136.549 169.68V156.92C136.549 156.524 136.666 156.209 136.901 155.974C137.15 155.725 137.473 155.6 137.869 155.6H140.355C140.751 155.6 141.066 155.725 141.301 155.974C141.55 156.209 141.675 156.524 141.675 156.92V169.68C141.675 170.076 141.55 170.399 141.301 170.648C141.066 170.883 140.751 171 140.355 171H137.869ZM149.393 171.22C146.988 171.22 145.198 170.575 144.025 169.284C142.866 167.993 142.287 165.999 142.287 163.3C142.287 160.601 142.866 158.607 144.025 157.316C145.198 156.025 146.988 155.38 149.393 155.38C151.813 155.38 153.602 156.025 154.761 157.316C155.934 158.592 156.521 160.587 156.521 163.3C156.521 166.013 155.934 168.015 154.761 169.306C153.602 170.582 151.813 171.22 149.393 171.22ZM149.415 167.04C149.752 167.04 150.031 166.989 150.251 166.886C150.471 166.783 150.647 166.593 150.779 166.314C150.911 166.035 150.999 165.654 151.043 165.17C151.102 164.671 151.131 164.033 151.131 163.256C151.131 162.523 151.102 161.921 151.043 161.452C150.999 160.968 150.911 160.587 150.779 160.308C150.647 160.029 150.471 159.839 150.251 159.736C150.031 159.619 149.745 159.56 149.393 159.56C149.056 159.56 148.777 159.611 148.557 159.714C148.337 159.817 148.161 160.007 148.029 160.286C147.897 160.565 147.802 160.946 147.743 161.43C147.699 161.914 147.677 162.537 147.677 163.3C147.677 164.063 147.699 164.686 147.743 165.17C147.802 165.654 147.897 166.035 148.029 166.314C148.161 166.593 148.337 166.783 148.557 166.886C148.792 166.989 149.078 167.04 149.415 167.04Z" fill="#638439"/>
<path d="M2.877 146.224C2.301 146.224 1.83167 146.053 1.469 145.712C1.12767 145.349 0.957 144.88 0.957 144.304V125.52C0.957 124.944 1.12767 124.485 1.469 124.144C1.83167 123.781 2.301 123.6 2.877 123.6H11.293C12.509 123.6 13.6503 123.739 14.717 124.016C15.805 124.272 16.7543 124.72 17.565 125.36C18.3757 126 19.0157 126.843 19.485 127.888C19.9543 128.933 20.189 130.235 20.189 131.792C20.189 133.221 20.0077 134.384 19.645 135.28C19.2823 136.176 18.845 136.869 18.333 137.36C17.757 137.893 17.597 138.437 17.853 138.992L19.837 143.632C20.157 144.357 20.1783 144.933 19.901 145.36C19.6237 145.787 19.0903 146 18.301 146H14.781C14.2903 146 13.8423 145.872 13.437 145.616C13.0317 145.339 12.733 144.976 12.541 144.528L10.525 139.792C10.333 139.365 10.0023 139.152 9.533 139.152H9.341C9.04233 139.152 8.80767 139.237 8.637 139.408C8.48767 139.579 8.413 139.813 8.413 140.112V144.304C8.413 144.88 8.23167 145.349 7.869 145.712C7.52767 146.053 7.069 146.224 6.493 146.224H2.877ZM9.917 134.672C10.813 134.672 11.5063 134.501 11.997 134.16C12.509 133.819 12.765 133.157 12.765 132.176C12.765 131.173 12.509 130.512 11.997 130.192C11.5063 129.851 10.813 129.68 9.917 129.68H9.373C9.07433 129.68 8.83967 129.765 8.669 129.936C8.49833 130.107 8.413 130.341 8.413 130.64V133.712C8.413 134.011 8.49833 134.245 8.669 134.416C8.83967 134.587 9.07433 134.672 9.373 134.672H9.917ZM21.582 125.52C21.582 124.944 21.7527 124.485 22.094 124.144C22.4567 123.781 22.926 123.6 23.502 123.6H35.022C35.598 123.6 36.0567 123.781 36.398 124.144C36.7607 124.485 36.942 124.944 36.942 125.52V127.76C36.942 128.336 36.7607 128.805 36.398 129.168C36.0567 129.509 35.598 129.68 35.022 129.68H30.222C29.8593 129.68 29.5713 129.787 29.358 130C29.1447 130.192 29.038 130.469 29.038 130.832V130.928C29.038 131.291 29.1447 131.579 29.358 131.792C29.5713 131.984 29.8593 132.08 30.222 132.08H33.198C33.774 132.08 34.2327 132.261 34.574 132.624C34.9367 132.965 35.118 133.424 35.118 134V135.6C35.118 136.176 34.9367 136.645 34.574 137.008C34.2327 137.349 33.774 137.52 33.198 137.52H30.222C29.8593 137.52 29.5713 137.627 29.358 137.84C29.1447 138.032 29.038 138.309 29.038 138.672V138.768C29.038 139.131 29.1447 139.419 29.358 139.632C29.5713 139.824 29.8593 139.92 30.222 139.92H35.022C35.598 139.92 36.0567 140.101 36.398 140.464C36.7607 140.805 36.942 141.264 36.942 141.84V144.08C36.942 144.656 36.7607 145.125 36.398 145.488C36.0567 145.829 35.598 146 35.022 146H23.502C22.926 146 22.4567 145.829 22.094 145.488C21.7527 145.125 21.582 144.656 21.582 144.08V125.52ZM38.2435 140.208C38.2648 139.76 38.3822 139.408 38.5955 139.152C38.8302 138.896 39.1395 138.768 39.5235 138.768C39.7155 138.768 39.9182 138.8 40.1315 138.864C41.3048 139.227 42.5422 139.536 43.8435 139.792C45.1662 140.048 46.3608 140.176 47.4275 140.176C48.1102 140.176 48.5582 140.048 48.7715 139.792C48.9848 139.515 49.0915 139.28 49.0915 139.088C49.1128 138.896 49.0275 138.651 48.8355 138.352C48.6435 138.053 48.2595 137.893 47.6835 137.872C44.4408 137.765 41.9768 137.125 40.2915 135.952C38.6062 134.757 37.7635 132.955 37.7635 130.544C37.7635 129.157 38.0302 128.005 38.5635 127.088C39.0968 126.171 39.8115 125.435 40.7075 124.88C41.6035 124.325 42.6275 123.931 43.7795 123.696C44.9315 123.461 46.1262 123.344 47.3635 123.344C48.6648 123.344 49.8275 123.451 50.8515 123.664C51.8755 123.877 52.9422 124.176 54.0515 124.56C54.6062 124.752 55.0435 125.083 55.3635 125.552C55.6835 126.021 55.8222 126.555 55.7795 127.152L55.7155 129.392C55.6728 130.331 55.2568 130.8 54.4675 130.8C54.2755 130.8 54.0622 130.768 53.8275 130.704C52.6968 130.341 51.5128 130.043 50.2755 129.808C49.0595 129.552 47.9288 129.424 46.8835 129.424C46.2222 129.424 45.7742 129.563 45.5395 129.84C45.3262 130.096 45.2195 130.32 45.2195 130.512C45.2195 130.704 45.3048 130.949 45.4755 131.248C45.6462 131.547 46.0302 131.717 46.6275 131.76C49.8702 131.867 52.3342 132.507 54.0195 133.68C55.7048 134.832 56.5475 136.603 56.5475 138.992C56.5475 140.421 56.2488 141.605 55.6515 142.544C55.0755 143.461 54.3075 144.197 53.3475 144.752C52.4088 145.307 51.3528 145.701 50.1795 145.936C49.0062 146.149 47.8328 146.256 46.6595 146.256C45.4862 146.256 44.3448 146.149 43.2355 145.936C42.1262 145.701 41.0168 145.403 39.9075 145.04C39.3528 144.848 38.9155 144.517 38.5955 144.048C38.2755 143.579 38.1368 143.045 38.1795 142.448L38.2435 140.208ZM64.6495 146C64.0735 146 63.6042 145.829 63.2415 145.488C62.9002 145.125 62.7295 144.656 62.7295 144.08V131.6C62.7295 131.024 62.5482 130.565 62.1855 130.224C61.8442 129.861 61.3855 129.68 60.8095 129.68H59.3375C58.7615 129.68 58.2922 129.509 57.9295 129.168C57.5882 128.805 57.4175 128.336 57.4175 127.76V125.52C57.4175 124.944 57.5882 124.485 57.9295 124.144C58.2922 123.781 58.7615 123.6 59.3375 123.6H73.5775C74.1535 123.6 74.6122 123.781 74.9535 124.144C75.3162 124.485 75.4975 124.944 75.4975 125.52V127.76C75.4975 128.336 75.3162 128.805 74.9535 129.168C74.6122 129.509 74.1535 129.68 73.5775 129.68H72.1055C71.5295 129.68 71.0602 129.861 70.6975 130.224C70.3562 130.565 70.1855 131.024 70.1855 131.6V144.08C70.1855 144.656 70.0042 145.125 69.6415 145.488C69.3002 145.829 68.8415 146 68.2655 146H64.6495ZM75.115 146C74.347 146 73.8563 145.872 73.643 145.616C73.451 145.36 73.4403 144.859 73.611 144.112L77.643 125.488C77.771 124.912 78.0483 124.453 78.475 124.112C78.9017 123.771 79.403 123.6 79.979 123.6H88.491C89.067 123.6 89.5683 123.771 89.995 124.112C90.4217 124.453 90.699 124.912 90.827 125.488L94.859 144.112C95.0297 144.859 95.0083 145.36 94.795 145.616C94.603 145.872 94.123 146 93.355 146H89.355C88.7577 146 88.3203 145.893 88.043 145.68C87.7657 145.467 87.5843 145.072 87.499 144.496C87.371 143.877 87.179 143.472 86.923 143.28C86.667 143.088 86.2297 142.992 85.611 142.992H82.859C82.2403 142.992 81.803 143.088 81.547 143.28C81.3123 143.472 81.131 143.877 81.003 144.496C80.8537 145.072 80.6723 145.467 80.459 145.68C80.2457 145.893 79.7977 146 79.115 146H75.115ZM84.363 136.912C85.3657 136.912 85.7497 136.389 85.515 135.344L84.651 131.376C84.587 131.077 84.4483 130.928 84.235 130.928C84.0217 130.928 83.883 131.077 83.819 131.376L82.987 135.344C82.7523 136.389 83.1257 136.912 84.107 136.912H84.363ZM94.893 125.52C94.893 124.944 95.0637 124.485 95.405 124.144C95.7677 123.781 96.237 123.6 96.813 123.6H100.429C101.005 123.6 101.464 123.781 101.805 124.144C102.168 124.485 102.349 124.944 102.349 125.52V137.424C102.349 138.299 102.52 138.992 102.861 139.504C103.202 139.995 103.864 140.24 104.845 140.24C105.826 140.24 106.488 139.995 106.829 139.504C107.17 138.992 107.341 138.299 107.341 137.424V125.52C107.341 124.944 107.512 124.485 107.853 124.144C108.216 123.781 108.685 123.6 109.261 123.6H112.877C113.453 123.6 113.912 123.781 114.253 124.144C114.616 124.485 114.797 124.944 114.797 125.52V137.424C114.797 138.789 114.616 140.027 114.253 141.136C113.89 142.224 113.314 143.152 112.525 143.92C111.736 144.688 110.701 145.285 109.421 145.712C108.162 146.117 106.637 146.32 104.845 146.32C103.032 146.32 101.496 146.117 100.237 145.712C98.9783 145.285 97.9543 144.688 97.165 143.92C96.3757 143.152 95.7997 142.224 95.437 141.136C95.0743 140.027 94.893 138.789 94.893 137.424V125.52ZM118.127 146.224C117.551 146.224 117.082 146.053 116.719 145.712C116.378 145.349 116.207 144.88 116.207 144.304V125.52C116.207 124.944 116.378 124.485 116.719 124.144C117.082 123.781 117.551 123.6 118.127 123.6H126.543C127.759 123.6 128.9 123.739 129.967 124.016C131.055 124.272 132.004 124.72 132.815 125.36C133.626 126 134.266 126.843 134.735 127.888C135.204 128.933 135.439 130.235 135.439 131.792C135.439 133.221 135.258 134.384 134.895 135.28C134.532 136.176 134.095 136.869 133.583 137.36C133.007 137.893 132.847 138.437 133.103 138.992L135.087 143.632C135.407 144.357 135.428 144.933 135.151 145.36C134.874 145.787 134.34 146 133.551 146H130.031C129.54 146 129.092 145.872 128.687 145.616C128.282 145.339 127.983 144.976 127.791 144.528L125.775 139.792C125.583 139.365 125.252 139.152 124.783 139.152H124.591C124.292 139.152 124.058 139.237 123.887 139.408C123.738 139.579 123.663 139.813 123.663 140.112V144.304C123.663 144.88 123.482 145.349 123.119 145.712C122.778 146.053 122.319 146.224 121.743 146.224H118.127ZM125.167 134.672C126.063 134.672 126.756 134.501 127.247 134.16C127.759 133.819 128.015 133.157 128.015 132.176C128.015 131.173 127.759 130.512 127.247 130.192C126.756 129.851 126.063 129.68 125.167 129.68H124.623C124.324 129.68 124.09 129.765 123.919 129.936C123.748 130.107 123.663 130.341 123.663 130.64V133.712C123.663 134.011 123.748 134.245 123.919 134.416C124.09 134.587 124.324 134.672 124.623 134.672H125.167ZM138.24 146C137.472 146 136.981 145.872 136.768 145.616C136.576 145.36 136.565 144.859 136.736 144.112L140.768 125.488C140.896 124.912 141.173 124.453 141.6 124.112C142.027 123.771 142.528 123.6 143.104 123.6H151.616C152.192 123.6 152.693 123.771 153.12 124.112C153.547 124.453 153.824 124.912 153.952 125.488L157.984 144.112C158.155 144.859 158.133 145.36 157.92 145.616C157.728 145.872 157.248 146 156.48 146H152.48C151.883 146 151.445 145.893 151.168 145.68C150.891 145.467 150.709 145.072 150.624 144.496C150.496 143.877 150.304 143.472 150.048 143.28C149.792 143.088 149.355 142.992 148.736 142.992H145.984C145.365 142.992 144.928 143.088 144.672 143.28C144.437 143.472 144.256 143.877 144.128 144.496C143.979 145.072 143.797 145.467 143.584 145.68C143.371 145.893 142.923 146 142.24 146H138.24ZM147.488 136.912C148.491 136.912 148.875 136.389 148.64 135.344L147.776 131.376C147.712 131.077 147.573 130.928 147.36 130.928C147.147 130.928 147.008 131.077 146.944 131.376L146.112 135.344C145.877 136.389 146.251 136.912 147.232 136.912H147.488ZM177.835 123.568C178.411 123.568 178.88 123.749 179.243 124.112C179.605 124.475 179.787 124.944 179.787 125.52V144.08C179.787 144.656 179.605 145.125 179.243 145.488C178.88 145.851 178.411 146.032 177.835 146.032H174.219C173.835 146.032 173.504 146.011 173.227 145.968C172.949 145.904 172.704 145.808 172.491 145.68C172.277 145.552 172.075 145.381 171.883 145.168C171.691 144.955 171.499 144.688 171.307 144.368L167.947 138.704C167.755 138.427 167.52 138.288 167.243 138.288C167.051 138.288 166.88 138.363 166.731 138.512C166.581 138.64 166.507 138.832 166.507 139.088V144.08C166.507 144.656 166.325 145.125 165.963 145.488C165.6 145.851 165.131 146.032 164.555 146.032H160.939C160.363 146.032 159.893 145.851 159.531 145.488C159.168 145.125 158.987 144.656 158.987 144.08V125.52C158.987 124.944 159.168 124.475 159.531 124.112C159.893 123.749 160.363 123.568 160.939 123.568H165.227C165.739 123.568 166.112 123.643 166.347 123.792C166.603 123.941 166.869 124.24 167.147 124.688L170.827 130.896C171.019 131.173 171.253 131.312 171.531 131.312C171.723 131.312 171.893 131.248 172.043 131.12C172.192 130.971 172.267 130.768 172.267 130.512V125.52C172.267 124.944 172.448 124.475 172.811 124.112C173.173 123.749 173.643 123.568 174.219 123.568H177.835ZM188.087 146C187.511 146 187.042 145.829 186.679 145.488C186.338 145.125 186.167 144.656 186.167 144.08V131.6C186.167 131.024 185.986 130.565 185.623 130.224C185.282 129.861 184.823 129.68 184.247 129.68H182.775C182.199 129.68 181.73 129.509 181.367 129.168C181.026 128.805 180.855 128.336 180.855 127.76V125.52C180.855 124.944 181.026 124.485 181.367 124.144C181.73 123.781 182.199 123.6 182.775 123.6H197.015C197.591 123.6 198.05 123.781 198.391 124.144C198.754 124.485 198.935 124.944 198.935 125.52V127.76C198.935 128.336 198.754 128.805 198.391 129.168C198.05 129.509 197.591 129.68 197.015 129.68H195.543C194.967 129.68 194.498 129.861 194.135 130.224C193.794 130.565 193.623 131.024 193.623 131.6V144.08C193.623 144.656 193.442 145.125 193.079 145.488C192.738 145.829 192.279 146 191.703 146H188.087ZM200.02 125.52C200.02 124.944 200.19 124.485 200.532 124.144C200.894 123.781 201.364 123.6 201.94 123.6H213.46C214.036 123.6 214.494 123.781 214.836 124.144C215.198 124.485 215.38 124.944 215.38 125.52V127.76C215.38 128.336 215.198 128.805 214.836 129.168C214.494 129.509 214.036 129.68 213.46 129.68H208.66C208.297 129.68 208.009 129.787 207.796 130C207.582 130.192 207.476 130.469 207.476 130.832V130.928C207.476 131.291 207.582 131.579 207.796 131.792C208.009 131.984 208.297 132.08 208.66 132.08H211.636C212.212 132.08 212.67 132.261 213.012 132.624C213.374 132.965 213.556 133.424 213.556 134V135.6C213.556 136.176 213.374 136.645 213.012 137.008C212.67 137.349 212.212 137.52 211.636 137.52H208.66C208.297 137.52 208.009 137.627 207.796 137.84C207.582 138.032 207.476 138.309 207.476 138.672V138.768C207.476 139.131 207.582 139.419 207.796 139.632C208.009 139.824 208.297 139.92 208.66 139.92H213.46C214.036 139.92 214.494 140.101 214.836 140.464C215.198 140.805 215.38 141.264 215.38 141.84V144.08C215.38 144.656 215.198 145.125 214.836 145.488C214.494 145.829 214.036 146 213.46 146H201.94C201.364 146 200.894 145.829 200.532 145.488C200.19 145.125 200.02 144.656 200.02 144.08V125.52Z" fill="#E57D25"/>
</svg>
