<svg width="79" height="69" viewBox="0 0 79 69" fill="none" xmlns="http://www.w3.org/2000/svg">
<path d="M38.4878 53.7344C37.5404 51.5922 37.8059 49.7819 39.4813 48.1214C40.9416 46.674 41.8697 44.883 42.3718 42.9035C43.4799 38.5303 43.5216 34.1206 42.4671 29.7431C41.4362 25.4662 38.9664 22.232 34.9539 20.3189C31.8643 18.8459 28.552 18.2035 25.154 17.9477C18.6675 17.4595 12.1799 17.831 5.69334 17.923C1.09313 17.9894 0.0514781 19.045 0.0311375 23.6366C0.00437345 29.8994 0.0247144 36.1622 0.0247144 43.8734C0.151041 49.8247 -0.264338 57.2319 0.331965 64.6263C0.525737 67.034 1.73868 68.3615 4.14102 68.4385C7.06258 68.5327 9.99485 68.5263 12.9153 68.4021C15.4494 68.294 16.8197 66.762 16.8475 64.2205C16.8732 61.8899 16.8058 59.5582 16.7918 57.2276C16.7854 56.1303 16.8486 55.0458 17.173 53.9742C17.3753 53.304 17.7489 53.0353 18.4105 52.9186C20.2829 52.59 21.4028 53.2987 22.2324 55.4109C23.4689 58.5562 24.6144 61.74 26.1047 64.7804C27.0799 66.7706 28.7318 67.7106 30.9061 67.9172C33.3245 68.1473 35.7451 68.142 38.1667 68.1238C42.6041 68.0906 43.7293 66.4441 42.2712 62.2432C41.2488 59.2981 39.7457 56.5703 38.4889 53.7312L38.4878 53.7344ZM24.562 41.2527C22.8641 42.6873 20.8621 42.9838 18.767 42.5609C17.5851 42.3222 16.8839 41.4486 16.8133 40.2185C16.7522 39.1726 16.8004 38.1202 16.8004 37.0711C16.8079 37.0711 16.8143 37.0711 16.8218 37.0711C16.8218 36.1129 16.7694 35.1516 16.8325 34.1977C16.9878 31.8168 18.3634 30.6424 20.7122 30.8212C23.1724 31.0085 25.3253 32.9077 26.2331 35.689C26.8637 37.6214 26.2064 39.8642 24.563 41.2527H24.562Z" fill="#E57D25"/>
<path d="M78.8447 23.7555C78.8425 22.7973 78.8372 21.8381 78.6145 20.8917C78.152 18.9294 77.2292 18.0697 75.2026 17.9541C72.1419 17.7785 69.0747 17.7807 66.0172 17.9948C63.5838 18.165 62.5229 19.2923 62.372 21.7685C62.2606 23.5927 62.1975 25.4212 62.191 27.2487C62.1653 34.2898 62.1932 41.3309 62.1536 48.3719C62.1407 50.5934 61.4652 52.6135 59.778 54.1648C57.3874 56.3637 53.8878 55.8016 52.2969 52.9754C51.6856 51.8898 51.2767 50.7282 51.1675 49.4789C50.7403 44.5961 50.8431 39.7068 50.9983 34.8154C51.1268 30.7484 51.252 26.6792 51.0722 22.6121C50.9373 19.5514 49.6612 18.2774 46.6336 17.9059C43.7078 17.5462 40.7905 17.7539 37.8711 17.9477C37.1506 17.9948 36.1732 18.0226 36.0244 18.8137C35.8863 19.5471 36.8498 19.7922 37.4172 20.0984C39.7125 21.336 41.6941 22.8883 43.0012 25.2061C46.6861 31.7397 46.8081 43.0951 40.9029 49.4222C40.0518 50.3343 39.8548 51.2646 40.3687 52.4176C41.0742 54.0031 41.7176 55.6164 42.36 57.2298C43.4038 59.8526 44.849 62.3824 44.8501 65.2879C44.8501 66.5554 45.304 67.0811 46.4206 67.3808C53.5195 69.2832 60.6162 69.3699 67.638 67.1357C71.5306 65.897 74.5218 63.3983 76.4348 59.7285C78.0064 56.7138 78.7312 53.4592 78.7944 50.0902C78.8789 45.611 78.8158 41.1296 78.8158 36.6493C78.8265 36.6493 78.8372 36.6493 78.8479 36.6493C78.8479 32.3521 78.8532 28.0538 78.8436 23.7565L78.8447 23.7555Z" fill="#638439"/>
<path d="M69.2023 2.11086C69.152 0.384041 67.9861 -0.480973 66.5655 0.274843C64.0208 1.63017 60.9782 2.08516 59.0576 4.64702C58.2708 5.69617 57.668 6.85344 56.9379 7.83836C55.3856 9.93024 55.5173 12.248 55.5622 14.4212C55.5997 16.2444 56.0879 18.2239 57.0707 20.0331C57.4668 18.9979 57.8361 18.0344 58.2044 17.0709C58.9013 14.797 59.958 12.6794 61.0457 10.5758C61.233 10.17 61.4 9.75359 61.6152 9.36177C61.7629 9.09092 61.976 8.85646 62.4213 8.71622C62.0841 9.41315 61.7469 10.1101 61.4097 10.8081C61.3936 10.8841 61.3486 10.9751 61.2801 11.0757C60.3605 13.3389 59.4398 15.6021 58.5202 17.8652C58.3521 18.4176 58.1969 18.9743 58.0117 19.5214C57.8843 19.8961 57.4978 20.2954 57.8361 20.6498C58.2215 21.0534 58.7151 20.7129 59.0919 20.5267C61.4546 19.3544 63.7092 18.1885 65.6523 16.178C68.2666 13.4738 69.016 10.3542 69.5395 6.89948C69.7943 5.2187 69.2494 3.71027 69.2023 2.11193V2.11086Z" fill="#638439"/>
<path d="M53.0057 10.0994C51.2339 7.88331 48.8637 6.6436 45.9164 6.70676C45.0803 6.72496 44.2014 6.08476 43.4124 6.70676C42.4778 7.44438 43.224 8.38754 43.2422 9.24185C43.2861 11.3766 44.3031 13.1333 45.5 14.7777C47.2996 17.2486 50.1302 17.9187 52.8505 18.7013C53.2926 18.8287 53.9371 18.9433 54.406 18.5065C53.2937 16.9595 52.1814 15.4115 51.0691 13.8645C50.3721 13.0563 49.6752 12.2469 48.9782 11.4386C50.0006 11.9225 50.7714 12.6602 51.387 13.5658C52.6802 14.7777 53.4832 16.3868 54.695 17.664C55.1243 14.919 54.755 12.2876 53.0057 10.0994Z" fill="#638439"/>
</svg>
