<svg width="96" height="96" viewBox="0 0 96 96" fill="none" xmlns="http://www.w3.org/2000/svg">
<path d="M5.98089 47.4682C6.69321 47.9069 7.79817 47.4893 7.65705 48.7286C7.59561 49.2701 7.39017 49.5763 6.81129 49.5264C5.66889 49.4285 4.52553 49.3325 3.38409 49.223C2.98569 49.1846 2.49897 49.2096 2.47881 48.6259C2.46153 48.1094 2.34537 47.5421 2.95305 47.2157C3.36777 46.993 3.88041 46.8979 4.16073 46.3123C3.59721 46.0282 2.49033 46.415 2.67081 45.1987C2.74185 44.7187 2.88681 44.4125 3.41385 44.4451C4.68105 44.5229 5.94825 44.6083 7.21545 44.6909C7.58697 44.7149 7.85481 44.8762 7.86729 45.2784C7.88265 45.7622 7.98249 46.2922 7.47177 46.6118C7.03017 46.8883 6.56841 47.1322 5.97801 47.4682H5.98089Z" fill="white"/>
<path d="M13.3094 69.049C12.5116 69.6739 11.7148 70.2989 10.9161 70.9219C10.584 71.1811 10.2105 71.4643 9.84955 71.04C9.52795 70.6608 9.03739 70.3238 9.29563 69.6691C9.48187 69.1968 9.84859 68.7686 9.76507 68.1936C9.31675 68.1264 9.10171 68.495 8.78779 68.6419C8.27227 68.8838 8.04283 68.5498 7.78267 68.2224C7.41691 67.7626 7.55131 67.4016 7.98619 67.0886C8.91451 66.4224 9.84091 65.7552 10.7683 65.088C11.1177 64.8365 11.4998 64.6224 11.8579 65.017C12.2025 65.3981 12.6508 65.7773 12.3897 66.4022C12.2035 66.8467 12.0038 67.2864 11.8012 67.7482C12.5126 68.1034 12.8985 66.815 13.5743 67.5149C13.9055 68.0986 13.8336 68.6122 13.3084 69.048L13.3094 69.049Z" fill="white"/>
<path d="M4.61963 54.8362C4.29227 54.8362 3.96395 54.8208 3.63755 54.8391C3.04715 54.8717 2.71211 54.6759 2.70251 54.0163C2.69387 53.3789 3.00203 53.1322 3.58955 53.1072C4.16267 53.0832 4.73675 53.0659 5.30603 53.0035C5.75723 52.9536 6.44747 53.0957 6.36203 52.3402C6.28043 51.6211 5.61899 51.8602 5.16779 51.8707C4.59659 51.8842 4.02731 51.9725 3.45611 52.0263C2.86379 52.0819 2.52875 51.8717 2.50955 51.2179C2.49227 50.6275 2.64875 50.2867 3.31499 50.2723C4.05035 50.257 4.78379 50.1418 5.52011 50.1207C7.11371 50.0746 7.83371 50.7744 7.89707 52.3863C7.95659 53.9031 7.30187 54.6173 5.72363 54.745C5.35595 54.7747 4.98731 54.7815 4.61867 54.7987C4.61867 54.8112 4.61867 54.8237 4.61867 54.8362H4.61963Z" fill="white"/>
<path d="M25.6156 78.4148C25.3324 79.5476 24.6585 80.6295 24.0316 81.7258C23.7858 82.1559 23.3826 81.9226 23.0514 81.7575C22.6348 81.5501 22.3938 81.2477 22.63 80.7696C22.9737 80.0708 23.3375 79.3834 23.6879 78.6874C23.8646 78.336 23.9798 77.9674 23.5343 77.7351C23.0812 77.4989 22.8575 77.8234 22.6761 78.1661C22.3881 78.7095 22.102 79.2538 21.8322 79.8068C21.5634 80.3588 21.3014 80.8407 20.5372 80.4816C19.7778 80.1245 19.9372 79.6167 20.2348 79.0647C20.6418 78.3082 21.0172 77.5287 21.4838 76.8096C21.9993 76.0148 22.7788 75.8266 23.6438 76.1789C24.6095 76.5725 25.5359 77.0353 25.6166 78.4157L25.6156 78.4148Z" fill="white"/>
<path d="M43.6982 19.153C41.6861 19.1722 40.8384 18.1767 41.2022 16.2163C41.3145 15.6125 41.4806 15.0173 41.5536 14.4096C41.6313 13.7655 41.9501 13.5946 42.5549 13.6771C43.1971 13.7655 43.3843 14.1043 43.271 14.6976C43.1328 15.4205 42.9917 16.1434 42.8822 16.8711C42.8323 17.2013 42.8544 17.5603 43.2835 17.6448C43.7693 17.7408 43.9353 17.4087 44.0102 17.0151C44.1485 16.2922 44.2685 15.5655 44.4086 14.8435C44.5133 14.3031 44.8387 14.1111 45.3888 14.1984C45.9533 14.2877 46.1654 14.5834 46.0742 15.1315C45.9331 15.9792 45.8457 16.8394 45.6422 17.6707C45.3734 18.7719 44.832 19.1424 43.6982 19.153Z" fill="white"/>
<path d="M7.25484 39.2602C6.54348 38.8186 5.85228 38.3376 5.11404 37.945C4.38828 37.5581 4.54284 37.0752 4.82028 36.5136C5.15916 35.8291 5.57484 36.2515 5.9262 36.4512C6.88716 36.9965 7.81068 37.6099 8.77932 38.1398C9.48588 38.5248 9.54732 39.0336 9.22092 39.6701C8.88588 40.3238 9.06828 41.4346 7.78476 41.2646C6.64908 41.1139 5.50476 41.0314 4.36908 40.8835C4.00524 40.8355 3.43212 40.8989 3.5694 40.2461C3.67596 39.7392 3.78156 39.1421 4.53132 39.2045C5.4126 39.2774 6.29196 39.3677 7.17228 39.4502C7.19916 39.3869 7.227 39.3245 7.25388 39.2611L7.25484 39.2602Z" fill="white"/>
<path d="M36.6989 81.5079C37.1588 81.9937 37.7127 81.8026 38.1437 82.0397C38.8301 82.418 39.2084 82.9191 39.097 83.7188C38.9943 84.4628 38.5268 84.8986 37.8241 85.0321C37.0973 85.1693 36.3581 85.1444 35.6324 84.9581C35.041 84.8065 34.8519 84.3994 34.9508 83.8426C35.0756 83.1428 35.5546 83.5172 35.9137 83.5537C36.3629 83.5997 36.8276 83.9079 37.2999 83.5258C36.9716 82.9642 36.4445 83.2033 36.0529 83.0525C35.354 82.7837 34.8125 82.3748 34.7924 81.5674C34.7722 80.7725 35.233 80.2551 35.9511 80.0084C36.7911 79.7194 37.6436 79.7991 38.4778 80.0861C38.9895 80.2628 39.193 80.6324 39.0692 81.1402C38.9185 81.7565 38.4797 81.5223 38.0842 81.4388C37.658 81.3485 37.2202 81.1853 36.698 81.506L36.6989 81.5079Z" fill="white"/>
<path d="M15.0825 27.0183C14.3875 27.0375 14.1139 27.5232 13.6771 27.7114C12.9945 28.0061 12.407 27.9284 11.8819 27.4032C11.3577 26.88 11.2435 26.2723 11.567 25.6099C11.9366 24.8525 12.5299 24.3005 13.2566 23.8877C13.7222 23.6227 14.1331 23.6986 14.4287 24.144C14.7763 24.6682 14.3251 24.8468 13.9929 25.081C13.6387 25.3306 13.1932 25.5101 13.1443 26.113C13.6886 26.2061 13.9065 25.7155 14.2617 25.5245C14.9702 25.1424 15.6518 25.0272 16.2854 25.6464C16.8988 26.2455 16.9334 26.9251 16.5311 27.6567C16.1452 28.3584 15.5807 28.8701 14.8934 29.2675C14.4124 29.545 14.0371 29.4288 13.7212 29.0122C13.3007 28.4573 13.8422 28.3296 14.1359 28.0983C14.4815 27.8266 14.8934 27.6183 15.0825 27.0183Z" fill="white"/>
<path d="M41.3357 83.2415C40.9162 82.9315 40.1367 83.2895 40.1194 82.4313C40.1021 81.599 40.9738 81.9907 41.305 81.4905C40.9651 81.1775 40.5523 81.3119 40.1895 81.2985C39.7277 81.2812 39.5299 81.0335 39.5011 80.6073C39.4714 80.1647 39.6739 79.9103 40.1232 79.8671C40.2048 79.8595 40.2864 79.8575 40.368 79.847C42.0455 79.6339 42.9815 80.3686 43.176 82.0511C43.1856 82.1327 43.2029 82.2124 43.2135 82.294C43.5485 84.9359 43.4007 85.1001 40.7904 85.0425C40.3267 85.0319 39.8621 85.0713 39.8343 84.4012C39.8093 83.7945 40.1674 83.6371 40.6762 83.5891C40.896 83.5679 41.1792 83.6428 41.3357 83.2406V83.2415Z" fill="white"/>
<path d="M7.45717 58.943C7.75477 58.4908 7.43029 58.176 7.36789 57.8342C7.28821 57.4051 7.40533 57.1315 7.82773 56.9731C8.25973 56.8108 8.54773 56.9356 8.69557 57.358C8.93845 58.0502 9.18037 58.7433 9.39157 59.4451C9.55669 59.9932 9.26293 60.2659 8.75893 60.4272C7.67221 60.7756 6.58741 61.1347 5.51701 61.5283C4.91701 61.7491 4.59349 61.5753 4.41589 60.9811C4.24117 60.3955 4.04149 59.8166 3.83221 59.2425C3.65077 58.7424 3.70261 58.3747 4.27285 58.1846C4.80277 58.008 5.02069 58.2864 5.17333 58.7241C5.27317 59.0102 5.25877 59.3952 5.73109 59.4374C6.07765 59.0198 5.30965 58.2739 6.14581 57.9974C6.98869 57.719 6.89269 58.6953 7.45717 58.944V58.943Z" fill="white"/>
<path d="M7.78068 34.08C8.31156 33.9226 8.43732 32.975 9.20532 33.433C9.97812 33.8938 8.99316 34.4621 9.31188 34.9661C9.86676 34.9574 9.87252 34.4458 10.0712 34.1395C10.3093 33.7709 10.5704 33.6317 10.9909 33.8304C11.4114 34.0291 11.5141 34.3594 11.3404 34.7405C11.0341 35.4096 10.6885 36.0614 10.3381 36.7094C10.0962 37.1578 9.70932 37.2 9.28788 36.983C8.1954 36.4205 7.10868 35.8454 6.01812 35.2781C5.60724 35.064 5.53908 34.7318 5.72244 34.3488C6.02388 33.7219 6.3474 33.1046 6.67284 32.4893C6.8946 32.0707 7.20084 31.8845 7.677 32.1427C8.16468 32.4077 8.11188 32.759 7.91028 33.1785C7.79316 33.4214 7.55604 33.6528 7.78068 34.08Z" fill="white"/>
<path d="M53.2435 20.9405C52.6444 20.6582 52.367 20.9136 52.1107 21.2813C51.7132 21.8525 51.2534 21.5664 50.8252 21.3254C50.3404 21.0528 50.4652 20.6803 50.6764 20.2809C51.2083 19.272 51.7382 18.2611 52.2374 17.2358C52.5014 16.6934 52.8163 16.4966 53.3894 16.8192C53.9567 17.1389 54.551 17.4105 55.1327 17.7053C55.4927 17.8877 55.7443 18.1257 55.5513 18.5741C55.3612 19.0166 55.078 19.1904 54.5836 18.9945C54.2332 18.8553 53.7935 18.4502 53.4825 18.8774C53.1235 19.3699 53.734 19.5331 53.9923 19.8009C54.2303 20.0467 54.19 20.3251 54.0441 20.5891C53.8358 20.9664 53.5295 21.095 53.2444 20.9405H53.2435Z" fill="white"/>
<path d="M33.0769 84.7632C32.1562 84.5961 31.2346 84.4329 30.314 84.2601C29.9982 84.2006 29.8004 84.0086 29.8081 83.6726C29.8148 83.3837 29.8522 82.9843 30.1575 82.9632C31.73 82.8537 31.25 81.5385 31.5534 80.6841C31.7271 80.1926 31.515 79.4323 32.3559 79.3862C33.0586 79.3478 33.5876 79.5581 33.3946 80.4432C33.291 80.9203 33.193 81.3984 33.1047 81.8784C32.9895 82.5053 32.7121 83.16 33.6481 83.4739C34.0849 83.6208 33.9898 84.0691 33.8727 84.4281C33.7431 84.8275 33.41 84.8294 33.0769 84.7632Z" fill="white"/>
<path d="M10.725 62.7015C10.8047 63.1469 10.5042 63.3101 10.2085 63.4503C9.65653 63.7123 9.09205 63.9475 8.53429 64.1991C8.04565 64.4199 7.51285 64.5994 7.76149 65.3395C7.92181 65.8157 7.59541 66.001 7.21045 66.1133C6.84469 66.2199 6.56149 66.0999 6.40309 65.7552C6.01141 64.9037 5.62357 64.0503 5.25109 63.1891C5.10901 62.8608 5.14261 62.5363 5.48437 62.3367C5.78005 62.1639 6.14581 62.0506 6.36277 62.3895C6.88597 63.2035 7.45717 62.8205 8.05045 62.5306C8.49013 62.3165 8.94805 62.1379 9.38005 61.9104C10.3007 61.4247 10.5119 62.0717 10.725 62.7024V62.7015Z" fill="white"/>
<path d="M17.9202 21.6662C17.7388 21.7459 17.5593 21.8573 17.3644 21.9043C16.9574 22.0022 16.7807 21.6873 16.6079 21.4137C16.4217 21.119 16.5206 20.8656 16.7894 20.6717C17.5871 20.0976 18.381 19.5187 19.1874 18.9581C19.4428 18.7805 19.7318 18.7747 19.9737 19.0109C20.229 19.2605 20.4114 19.6157 20.1474 19.8806C19.4706 20.5603 19.9468 21.047 20.3337 21.575C20.5996 21.9379 20.8511 22.3123 21.1266 22.6685C21.501 23.1504 21.6335 23.5709 21.045 24.0211C20.4566 24.4713 20.0927 24.264 19.7442 23.735C19.4054 23.2224 19.053 22.7184 18.6806 22.2307C18.4895 21.9801 18.3206 21.6662 17.9212 21.6662H17.9202Z" fill="white"/>
<path d="M30.9541 14.9837C30.9186 14.3913 31.2325 14.1744 31.7625 14.1139C32.2857 14.0544 32.6351 14.1859 32.7311 14.7619C32.925 15.9273 33.1218 17.0918 33.3465 18.2515C33.4569 18.8208 33.2217 19.08 32.6965 19.2096C32.1906 19.3344 31.7845 19.2931 31.6665 18.7017C31.4178 17.4643 31.1903 16.223 30.9532 14.9837H30.9541Z" fill="white"/>
<path d="M17.7668 26.353C17.4893 26.3299 17.3569 26.112 17.1985 25.9296C16.4516 25.0675 15.7287 24.1834 14.9492 23.352C14.5133 22.8874 14.5277 22.5437 14.978 22.1203C15.4205 21.7037 15.8036 21.6538 16.2164 22.1386C17.0084 23.0688 17.8071 23.9933 18.6077 24.9149C18.8497 25.1933 18.961 25.4727 18.6586 25.7693C18.4013 26.0208 18.1844 26.3434 17.7668 26.353Z" fill="white"/>
<path d="M4.18173 41.9194C5.30781 42.1296 6.43197 42.3447 7.55901 42.5482C8.19933 42.6643 8.29245 43.057 8.20221 43.6301C8.10237 44.2656 7.69629 44.3031 7.21437 44.2243C6.12381 44.0467 5.03709 43.849 3.94749 43.6656C3.42141 43.5773 2.98653 43.4429 3.09309 42.744C3.19293 42.0893 3.49821 41.7831 4.18173 41.9184V41.9194Z" fill="white"/>
<path d="M22.6463 16.0051C22.6761 16.3152 21.6277 17.3395 21.3215 17.2963C21.1237 17.2685 21.0095 17.088 21.0796 16.9584C21.3714 16.4198 21.8044 15.9936 22.3458 15.7104C22.4812 15.6394 22.6185 15.8275 22.6463 16.0051Z" fill="white"/>
<path d="M13.3093 69.049C13.3976 68.5383 13.4869 68.0275 13.5752 67.5159C14.2943 68.1667 14.469 68.7236 13.3093 69.049Z" fill="white"/>
<path d="M57.3465 59.065C56.4969 57.144 56.735 55.5206 58.2374 54.0317C59.5469 52.7338 60.3792 51.1277 60.8294 49.3526C61.823 45.431 61.8605 41.4768 60.9149 37.5514C59.9904 33.7162 57.7757 30.816 54.1776 29.1005C51.407 27.7795 48.4368 27.2035 45.3897 26.9741C39.5731 26.5363 33.7555 26.8694 27.9389 26.952C23.8137 27.0115 22.8797 27.9581 22.8614 32.0755C22.8374 37.6915 22.8557 43.3075 22.8557 50.2224C22.9689 55.559 22.5965 62.2013 23.1312 68.832C23.3049 70.991 24.3926 72.1814 26.5469 72.2506C29.1667 72.335 31.7961 72.3293 34.415 72.2179C36.6873 72.121 37.9161 70.7472 37.9411 68.4682C37.9641 66.3782 37.9037 64.2874 37.8912 62.1974C37.8854 61.2134 37.9421 60.241 38.2329 59.28C38.4144 58.679 38.7494 58.4381 39.3427 58.3334C41.0217 58.0387 42.0259 58.6742 42.7699 60.5683C43.8787 63.3888 44.9059 66.2438 46.2422 68.9702C47.1168 70.7549 48.5981 71.5978 50.5478 71.783C52.7165 71.9894 54.887 71.9846 57.0585 71.9683C61.0377 71.9386 62.0467 70.4621 60.7392 66.695C59.8224 64.0541 58.4745 61.608 57.3475 59.0621L57.3465 59.065ZM44.8589 47.8723C43.3363 49.1587 41.5411 49.4246 39.6624 49.0454C38.6025 48.8314 37.9737 48.048 37.9104 46.945C37.8557 46.007 37.8989 45.0634 37.8989 44.1226C37.9056 44.1226 37.9113 44.1226 37.9181 44.1226C37.9181 43.2634 37.871 42.4013 37.9277 41.5459C38.0669 39.4109 39.3005 38.3578 41.4067 38.5181C43.6128 38.6861 45.5433 40.3891 46.3574 42.8832C46.9229 44.616 46.3334 46.6272 44.8598 47.8723H44.8589Z" fill="white"/>
<path d="M93.5356 32.1821C93.5336 31.3229 93.5288 30.4627 93.3292 29.6141C92.9144 27.8544 92.0869 27.0835 90.2696 26.9799C87.525 26.8224 84.7746 26.8243 82.0328 27.0163C79.8508 27.169 78.8994 28.1799 78.764 30.4003C78.6642 32.0362 78.6076 33.6758 78.6018 35.3146C78.5788 41.6285 78.6037 47.9424 78.5682 54.2563C78.5567 56.2483 77.9509 58.0599 76.438 59.4509C74.2943 61.4227 71.156 60.9187 69.7295 58.3843C69.1813 57.4109 68.8146 56.3693 68.7167 55.249C68.3336 50.8704 68.4258 46.4861 68.565 42.0999C68.6802 38.4528 68.7925 34.8038 68.6312 31.1568C68.5103 28.4122 67.366 27.2698 64.6511 26.9366C62.0274 26.6141 59.4114 26.8003 56.7935 26.9741C56.1474 27.0163 55.2709 27.0413 55.1375 27.7507C55.0136 28.4083 55.8776 28.6282 56.3864 28.9027C58.4447 30.0125 60.2217 31.4045 61.3938 33.4829C64.6981 39.3418 64.8076 49.5245 59.5122 55.1981C58.749 56.016 58.5724 56.8503 59.0332 57.8842C59.6658 59.3059 60.2428 60.7526 60.8188 62.1994C61.7548 64.5514 63.0508 66.8198 63.0517 69.4253C63.0517 70.5619 63.4588 71.0333 64.4601 71.3021C70.8258 73.008 77.1897 73.0858 83.4863 71.0822C86.9769 69.9715 89.6591 67.7309 91.3746 64.44C92.7839 61.7366 93.4338 58.8182 93.4904 55.7971C93.5663 51.7805 93.5096 47.7619 93.5096 43.7443C93.5192 43.7443 93.5288 43.7443 93.5384 43.7443C93.5384 39.8909 93.5432 36.0365 93.5346 32.183L93.5356 32.1821Z" fill="#F2E8B9"/>
<path d="M84.8888 12.7728C84.8437 11.2243 83.7983 10.4486 82.5244 11.1264C80.2424 12.3418 77.5141 12.7498 75.7919 15.047C75.0863 15.9878 74.5458 17.0256 73.8911 17.9088C72.4991 19.7846 72.6172 21.863 72.6575 23.8118C72.6911 25.4467 73.1288 27.2218 74.0101 28.8442C74.3653 27.9158 74.6965 27.0518 75.0268 26.1878C75.6517 24.1488 76.5992 22.2499 77.5746 20.3635C77.7426 19.9997 77.8924 19.6262 78.0853 19.2749C78.2178 19.032 78.4088 18.8218 78.8082 18.696C78.5058 19.321 78.2034 19.9459 77.901 20.5718C77.8866 20.64 77.8463 20.7216 77.7848 20.8118C76.9602 22.8413 76.1346 24.8707 75.31 26.9002C75.1592 27.3955 75.02 27.8947 74.854 28.3853C74.7397 28.7213 74.3932 29.0794 74.6965 29.3971C75.0421 29.759 75.4847 29.4538 75.8226 29.2867C77.9413 28.2355 79.9631 27.1901 81.7055 25.3872C84.0498 22.9622 84.7218 20.1648 85.1912 17.0669C85.4197 15.5597 84.9311 14.207 84.8888 12.7738V12.7728Z" fill="#F2E8B9"/>
<path d="M70.3651 19.9363C68.7763 17.9491 66.6509 16.8374 64.008 16.8941C63.2583 16.9104 62.4701 16.3363 61.7626 16.8941C60.9245 17.5555 61.5936 18.4013 61.61 19.1674C61.6493 21.0816 62.5613 22.657 63.6346 24.1315C65.2483 26.3472 67.7866 26.9482 70.226 27.6499C70.6224 27.7642 71.2003 27.8669 71.6208 27.4752C70.6234 26.088 69.626 24.6998 68.6285 23.3126C68.0036 22.5878 67.3786 21.8621 66.7536 21.1373C67.6704 21.5712 68.3616 22.2326 68.9136 23.0448C70.0733 24.1315 70.7933 25.5744 71.88 26.7197C72.265 24.2582 71.9338 21.8986 70.3651 19.9363Z" fill="#F2E8B9"/>
<path d="M48.722 82.8912C48.4484 81.6547 48.1614 80.4201 47.8734 79.1865C47.7534 78.672 47.4001 78.6153 46.9336 78.6662C45.6404 78.8073 46.5015 79.8278 46.2049 80.4489C45.6539 80.3165 45.5521 79.8518 45.2545 79.5888C44.7764 79.1673 44.2129 79.2365 43.7819 79.5398C43.2846 79.8902 43.7742 80.2502 43.97 80.5718C44.1419 80.8531 44.3291 81.1123 44.2139 81.4771C43.8827 82.5321 44.1102 83.4259 45.0568 84.0518C45.5358 84.3686 47.9953 84.0413 48.5012 83.6602C48.7835 83.448 48.7825 83.1715 48.7211 82.8912H48.722ZM46.228 82.7002C45.962 82.6598 45.8075 82.4448 45.8123 82.1683C45.819 81.8352 46.0043 81.6173 46.3412 81.6153C46.7329 81.6134 46.754 81.9341 46.7896 82.2202C46.7742 82.585 46.5572 82.7491 46.227 82.6992L46.228 82.7002Z" fill="white"/>
<path d="M21.2401 74.6746C20.3175 73.7875 20.043 74.9895 19.3911 75.2266C19.1137 74.7677 19.347 74.4288 19.4027 74.0803C19.5198 73.3344 18.9841 73.0147 18.4455 72.8669C17.8206 72.6951 17.9281 73.3488 17.8062 73.681C17.6919 73.992 17.5921 74.2455 17.2974 74.4653C15.3284 75.9331 15.3601 76.9613 17.3819 78.3965C17.6151 78.5616 17.8763 78.6922 18.0875 78.8813C18.5761 79.3181 18.9582 79.1981 19.3057 78.7075C20.0132 77.7091 20.7265 76.7146 21.435 75.7162C21.7259 75.3053 21.6039 75.024 21.242 74.6755L21.2401 74.6746ZM18.1009 77.0583C17.8417 77.0429 17.6526 76.8307 17.6411 76.5658C17.6276 76.249 17.7956 76.0061 18.1316 75.9821C18.4398 75.96 18.6827 76.0887 18.7383 76.4439C18.6174 76.7472 18.5003 77.0823 18.1009 77.0583Z" fill="white"/>
<path d="M36.0652 13.4937C34.4572 13.4803 33.5654 14.3654 33.5423 15.9993C33.5164 17.8531 34.3862 18.8649 35.9865 18.8438C37.5503 18.8227 38.3817 17.9616 38.3778 16.3632C38.374 14.5305 37.5494 13.5062 36.0652 13.4937ZM36.0652 17.3347C35.2108 17.3376 35.5094 16.5264 35.3817 16.0473C35.4546 15.6211 35.2367 14.9673 35.9106 15.0105C36.6546 15.0576 36.4905 15.7709 36.5058 16.2614C36.5183 16.6685 36.695 17.3328 36.0652 17.3347Z" fill="white"/>
<path d="M13.2393 29.8464C12.9311 29.7379 12.6105 29.6774 12.4387 29.3434C11.95 28.391 11.207 27.6989 10.1011 27.984C8.8425 28.3085 8.41914 29.5728 7.76634 30.5357C7.54938 30.8563 7.8969 31.1395 8.16378 31.3325C9.12282 32.0266 10.1011 32.6966 11.0534 33.4003C11.6543 33.8438 12.0143 33.5606 12.3561 33.0605C12.9753 32.1533 11.8137 32.0573 11.6265 31.4131C12.095 31.1213 12.4713 31.4304 12.8591 31.4429C13.5292 31.464 13.8489 31.0291 14.0054 30.5242C14.2012 29.8925 13.5849 29.9683 13.2393 29.8464ZM10.486 30.745C10.1423 30.7344 9.87162 30.504 9.86298 30.1267C9.85722 29.8464 10.0694 29.6928 10.3391 29.6813C10.6934 29.6659 10.8268 29.905 10.8758 30.1651C10.8556 30.4762 10.7654 30.7546 10.487 30.7459L10.486 30.745Z" fill="white"/>
<path d="M30.7978 18.4666C30.6048 18.1584 30.3562 17.9338 30.4694 17.4864C30.7229 16.4842 30.479 15.6019 29.5382 15.0567C28.9795 14.7331 26.3866 15.2035 26.0131 15.6643C25.8998 15.8045 25.8144 16.056 25.8576 16.2183C26.209 17.5191 26.5862 18.8131 26.9722 20.1043C27.1037 20.5431 27.4416 20.6458 27.8496 20.5171C28.2442 20.3933 28.6454 20.2714 28.5907 19.7088C28.56 19.3949 28.343 19.0858 28.6858 18.5261C29.0218 18.9053 29.2762 19.2106 29.5507 19.4976C30.0336 20.0035 30.5846 19.7683 31.0032 19.4784C31.5398 19.1059 30.9878 18.7699 30.7978 18.4656V18.4666ZM28.3056 17.5229C27.9456 17.5066 27.8755 17.1917 27.8515 16.9056C27.8208 16.5466 28.0262 16.3776 28.3718 16.4064C28.7203 16.4362 28.8432 16.6762 28.8518 16.9968C28.8259 17.3338 28.6301 17.5363 28.3056 17.5219V17.5229Z" fill="white"/>
<path d="M17.6917 72.2169C17.5708 71.7849 17.2012 71.3404 16.7644 71.327C15.8303 71.2991 15.4165 70.9795 15.4895 69.9964C15.525 69.5183 15.0709 69.1612 14.6793 68.9942C14.1484 68.7676 14.0351 69.358 13.8201 69.6604C13.2268 70.4956 12.6623 71.3519 12.094 72.2044C11.8501 72.5702 11.4412 72.9571 11.83 73.4083C12.3503 74.0121 12.7804 74.7484 13.6415 74.9932C13.8805 74.879 14.1119 74.7926 14.3183 74.6678C15.2293 74.1148 16.1394 73.559 17.0389 72.9868C17.3327 72.7996 17.8194 72.6719 17.6917 72.2169ZM13.7826 73.0118C13.9439 72.3638 14.0485 71.9942 14.5333 71.9567C14.5957 71.9519 14.7388 72.1247 14.7292 72.2006C14.6745 72.6316 14.2857 72.6998 13.7817 73.0118H13.7826Z" fill="white"/>
<path d="M30.6787 79.1415C30.3523 78.8343 29.8617 78.5664 29.4499 78.8179C28.6003 79.3373 28.1375 79.1155 27.743 78.2602C27.5443 77.8301 27.0009 77.7207 26.566 77.7648C26.0947 77.8128 26.1513 78.2976 26.1091 78.6499C25.9766 79.7453 25.8547 80.8426 25.7289 81.9389C25.6895 82.2672 25.6694 82.5879 25.9295 82.8567C26.8262 83.784 28.4303 83.6295 29.0812 82.5475C29.566 81.7411 30.0537 80.9367 30.5308 80.1264C30.7103 79.8202 31.0348 79.4765 30.6787 79.1415ZM27.6863 81.4435C27.4492 81.0759 27.4761 80.7562 27.7439 80.4672C27.7862 80.4211 28.0223 80.4557 28.0588 80.5181C28.3055 80.9357 28.0377 81.1786 27.6863 81.4435Z" fill="white"/>
<path d="M26.1811 19.8595C25.5139 19.0358 24.7852 18.2592 24.1612 17.4058C23.4806 16.4746 22.8297 17.0064 22.1385 17.3261C21.4099 17.663 20.9049 18.048 21.238 19.0061C21.5712 19.9651 21.7545 20.977 22.0272 21.9581C22.1203 22.2941 22.0944 22.8307 22.5264 22.847C22.9996 22.8643 23.5804 22.6435 23.7369 22.1635C24.023 21.2842 24.4723 20.9568 25.4438 21.3667C25.8288 21.3667 26.2502 21.1891 26.5113 20.807C26.7849 20.4067 26.399 20.1312 26.1811 19.8614V19.8595ZM23.4355 20.0064C23.0342 19.7712 23.0275 19.3776 23.0515 18.936C23.566 19.057 23.7705 19.3757 23.7878 19.8077C23.7955 19.9939 23.5881 20.0966 23.4355 20.0064Z" fill="white"/>
<path d="M50.9838 16.2941C50.643 15.6701 48.0001 14.5037 47.5191 14.7927C47.3626 14.8867 47.2455 15.0989 47.1793 15.2823C46.754 16.4727 46.3479 17.6698 45.9342 18.864C45.8142 19.2115 45.8391 19.5312 46.1962 19.7021C46.5178 19.8557 47.0382 20.1629 47.2062 19.8663C47.7428 18.9168 48.4599 19.032 49.0474 19.2576C49.6148 19.3402 49.9153 19.2192 50.1918 19.0311C50.9886 18.4915 51.4004 17.0573 50.9838 16.2931V16.2941ZM48.8362 17.7159C48.5252 17.7178 48.267 17.5738 48.3466 17.1975C48.4033 16.9267 48.481 16.6339 48.8478 16.6071C49.1607 16.6647 49.3777 16.8394 49.3662 17.1677C49.3546 17.4807 49.1655 17.7139 48.8372 17.7159H48.8362Z" fill="white"/>
</svg>
