<svg width="80" height="80" viewBox="0 0 80 80" fill="none" xmlns="http://www.w3.org/2000/svg">
<path d="M29.6535 15.0616L19.2695 21.056V9.06561L29.6535 15.0616Z" fill="#007132"/>
<path d="M19.2695 21.056L29.6535 15.0616V27.052L19.2695 21.056Z" fill="#409D29"/>
<path d="M29.6535 27.052L19.2695 33.0472V21.056L29.6535 27.052Z" fill="#7DB713"/>
<path d="M19.2695 33.0472L29.6535 27.052V39.0424L19.2695 33.0472Z" fill="#C9D200"/>
<path d="M40.0368 33.0472L29.6536 39.0424V27.052L40.0368 33.0472Z" fill="#F2DE00"/>
<path d="M29.6536 39.0424L40.0368 33.0472V45.0376L29.6536 39.0424Z" fill="#FDCB0B"/>
<path d="M50.4199 15.0616L60.8031 21.056V9.06561L50.4199 15.0616Z" fill="#C30710"/>
<path d="M60.8031 21.056L50.4199 15.0616V27.052L60.8031 21.056Z" fill="#E0201C"/>
<path d="M50.4199 27.052L60.8031 33.0472V21.056L50.4199 27.052Z" fill="#E24200"/>
<path d="M60.8031 33.0472L50.4199 27.052V39.0424L60.8031 33.0472Z" fill="#EC6400"/>
<path d="M40.0369 33.0472L50.4201 39.0424V27.052L40.0369 33.0472Z" fill="#EE7900"/>
<path d="M50.4201 39.0424L40.0369 33.0472V45.0376L50.4201 39.0424Z" fill="#F5A400"/>
<path d="M50.4201 15.0608L40.0369 9.06561V21.056L50.4201 15.0608Z" fill="#E0201C"/>
<path d="M19.1055 62.5424C19.1055 63.8016 18.5791 64.7392 17.4999 65.408C16.3207 66.1384 14.5247 66.5088 12.1583 66.5088C9.79191 66.5088 7.98311 66.1376 6.78631 65.4056C5.69031 64.736 5.15831 63.7984 5.15831 62.5416V49.4208H0.518311V63.32C0.518311 65.5824 1.61431 67.4448 3.77351 68.8552C5.90151 70.2336 8.72391 70.9328 12.1591 70.9328C15.5943 70.9328 18.4007 70.2336 20.4903 68.856C22.6511 67.4648 23.7487 65.6024 23.7487 63.32V49.4208H19.1063V62.5416L19.1055 62.5424Z" fill="white"/>
<path d="M50.4127 51.2416C49.1295 50.008 47.3903 49.3816 45.2447 49.3816H29.6135V70.8944H34.2471V62.9304H44.6335C47.0807 62.9304 48.9935 62.3544 50.3159 61.22C51.6743 60.0536 52.3647 58.368 52.3647 56.2104C52.3647 54.0528 51.7071 52.4864 50.4127 51.2416ZM44.6871 58.5464H34.2479V53.7656H44.4759C47.2911 53.7656 47.6503 55.1008 47.6503 56.264C47.6503 57.3264 47.3135 58.5464 44.6871 58.5464Z" fill="white"/>
<path d="M79.4817 53.8056V49.4216H56.2993V70.9344H61.0057V62.9128H75.0361V58.5296H61.0057V53.8056H79.4817Z" fill="white"/>
</svg>
