<svg width="324" height="211" viewBox="0 0 324 211" fill="none" xmlns="http://www.w3.org/2000/svg">
<path d="M316.875 181.905C316.764 187.342 316.343 192.761 315.81 198.168C315.794 198.285 315.821 198.384 315.866 198.466C275.183 198.477 234.507 198.489 193.83 198.507C153.186 198.518 112.548 198.536 71.9104 198.547C49.1673 198.553 26.4242 198.565 3.67559 198.571C0.502658 190.873 1.80622 181.538 6.68212 174.936C12.0073 167.728 21.5428 166.505 26.6184 158.988C31.3278 152.03 32.0046 142.981 32.82 134.753C33.6243 126.613 35.0499 117.196 40.9687 111.276C48.0024 104.237 58.2701 106.504 67.0511 105.711C75.3385 104.96 82.0893 100.572 86.9762 93.5736C98.5364 76.9956 95.0362 54.9986 102.347 36.7132C105.792 28.0891 111.683 20.8518 120.226 17.624C128.535 14.4771 137.749 15.054 146.247 17.0066C155.649 19.1683 164.491 23.2942 173.566 26.5515C178.359 28.2705 183.246 29.7738 188.249 30.6419C193.231 31.4983 198.162 31.5044 203.182 31.1489C208.169 30.7994 213.156 30.4438 218.076 31.5566C222.092 32.4597 225.931 34.1321 229.414 36.4164C236.559 41.0954 242.162 48.3443 244.713 56.8053C249.545 72.8353 244.608 92.6705 255.591 106.428C265.975 119.435 284.32 119.137 296.939 128.606C312.915 140.597 317.275 162.495 316.875 181.905Z" fill="#E57D25" fill-opacity="0.2"/>
<path d="M0 198.171L324 197.758C324 197.758 287.033 210.178 155.106 210.178C23.1791 210.178 0 198.171 0 198.171Z" fill="#E8E8E8"/>
<path d="M318.309 197.897L318.293 197.998H176.682C177.787 194.282 180.875 191.277 184.39 189.494C188.349 187.494 192.826 186.816 197.22 186.163C193.563 182.012 190.91 176.982 189.554 171.617C188.507 167.516 188.591 162.394 192.073 160.001C194.382 158.41 197.471 158.578 200.199 159.206C205.137 160.336 209.774 162.746 213.523 166.152C212.494 158.779 212.862 151.221 214.586 143.982C215.641 139.596 217.8 134.725 222.169 133.595C226.12 132.566 230.128 135.135 232.94 138.098C237.058 142.442 239.946 147.94 241.193 153.799C245.611 145.948 250.207 137.889 257.287 132.323C261.028 129.385 266.242 127.209 270.46 129.418C273.448 130.983 275.08 134.415 275.382 137.78C275.674 141.136 274.854 144.483 274.034 147.748C272.938 152.133 271.841 156.519 270.745 160.896C276.084 157.548 282.085 155.263 288.296 154.209C290.815 153.782 293.56 153.598 295.787 154.853C298.866 156.594 299.963 160.678 299.277 164.144C298.599 167.617 296.523 170.622 294.498 173.518C292.59 176.246 290.682 178.966 288.773 181.695C294.766 179.954 301.428 180.682 306.893 183.678C312.367 186.682 316.56 191.913 318.309 197.897Z" fill="#638439"/>
<path d="M225.524 155.886V197.639C225.524 198.177 226.361 198.175 226.361 197.634V155.881C226.361 155.343 225.524 155.346 225.524 155.886Z" fill="#BBFFF5"/>
<path d="M266.408 177.721C263.845 180.94 261.406 184.255 259.087 187.654V174.836C259.123 174.767 259.138 174.691 259.134 174.615C261.051 171.523 263.094 168.512 265.262 165.59C265.582 165.158 264.854 164.743 264.537 165.172C262.621 167.754 260.807 170.41 259.087 173.126V153.625C259.087 153.086 258.25 153.089 258.25 153.629V173.978C255.278 172.548 252.067 171.664 249.167 170.076C248.695 169.818 248.275 170.542 248.749 170.801C251.786 172.463 255.164 173.351 258.25 174.906V187.574C255.592 186.068 252.974 184.495 250.411 182.834C249.958 182.541 249.541 183.267 249.993 183.559C252.691 185.308 255.447 186.965 258.25 188.542V197.075C258.25 197.613 259.087 197.61 259.087 197.07V189.101C259.105 189.082 259.127 189.069 259.144 189.045C261.616 185.365 264.234 181.785 266.996 178.317C267.328 177.901 266.743 177.3 266.408 177.721Z" fill="#44582A"/>
<path d="M233.104 160.782C230.404 164.089 227.895 167.547 225.595 171.144C225.305 171.598 226.03 172.015 226.32 171.562C228.58 168.028 231.039 164.627 233.692 161.379C234.03 160.965 233.445 160.366 233.104 160.782Z" fill="#BBFFF5"/>
<path d="M233.914 180.662C230.98 183.869 228.231 187.241 225.675 190.757C225.359 191.191 226.086 191.607 226.4 191.175C228.912 187.719 231.619 184.411 234.502 181.258C234.864 180.862 234.278 180.264 233.914 180.662Z" fill="#BBFFF5"/>
<path d="M226.012 181.267C225.151 179.897 223.896 178.758 222.8 177.579C221.632 176.325 220.465 175.07 219.297 173.816C218.929 173.421 218.335 174.01 218.701 174.404C219.836 175.623 220.97 176.842 222.105 178.061C222.664 178.662 223.223 179.263 223.782 179.864C224.319 180.441 224.864 181.011 225.285 181.681C225.571 182.137 226.299 181.723 226.012 181.267Z" fill="#BBFFF5"/>
<path d="M226.208 163.18C224.179 160.889 222.043 158.696 219.808 156.606C219.415 156.239 218.818 156.826 219.212 157.194C221.447 159.283 223.583 161.477 225.612 163.767C225.97 164.172 226.564 163.582 226.208 163.18Z" fill="#BBFFF5"/>
<path d="M134.855 197.979H1.79753H1.78921C1.15296 194.12 4.81903 190.631 8.48455 188.965C14.1759 186.37 20.7791 185.834 26.8138 187.466C23.4073 183.708 20.1684 179.599 18.7206 174.736C17.2728 169.874 17.9756 164.082 21.625 160.559C24.9311 157.37 30.0866 156.625 34.5226 157.83C38.9669 159.035 42.7667 161.931 45.9718 165.229C42.9336 157.57 42.9004 148.766 45.8797 141.083C47.2609 137.518 49.9135 133.776 53.7388 133.634C55.6637 133.567 57.5053 134.455 59.0784 135.576C63.2382 138.53 66.0167 143.116 67.6737 147.946C69.3306 152.767 69.9668 157.88 70.5864 162.944C72.4697 159.269 75.2066 156.048 78.5121 153.587C81.8936 151.085 86.5554 149.402 90.2459 151.419C93.8781 153.403 94.9997 158.073 95.2427 162.216C95.5522 167.522 95.0585 172.879 93.7611 178.034C98.105 174.703 103.252 172.301 108.692 171.69C114.132 171.071 119.857 172.343 124.209 175.666C130.921 180.788 133.365 189.659 134.855 197.979Z" fill="#638439"/>
<path d="M55.9504 184.479V173.555C56.0069 173.523 56.0596 173.478 56.1007 173.408C58.4931 169.329 61.1053 165.382 63.9265 161.585C64.2471 161.154 63.5199 160.739 63.2015 161.167C60.6016 164.666 58.1875 168.299 55.9504 172.041V146.351C55.9504 145.812 55.1133 145.815 55.1133 146.355V183.522C52.0979 180.413 49.1635 177.227 46.3334 173.948C45.9806 173.539 45.387 174.13 45.7371 174.535C48.7558 178.032 51.8838 181.434 55.1133 184.738V196.91C55.1133 197.449 55.9504 197.446 55.9504 196.906V193.962C58.0632 190.926 60.4086 188.06 62.9636 185.385C63.3352 184.995 62.7483 184.398 62.3761 184.788C60.0547 187.219 57.9163 189.817 55.9509 192.543V184.663C55.9648 184.603 55.967 184.541 55.9504 184.479Z" fill="#44582A"/>
<path d="M88.2973 172.006C86.0646 174.849 83.995 177.813 82.084 180.88C82.1406 178.517 82.19 176.154 82.2621 173.791C82.3286 171.605 82.4024 169.418 82.4829 167.232C82.5028 166.693 81.6652 166.698 81.6458 167.236C81.3823 174.431 81.1981 181.628 81.0794 188.827C78.3664 187.322 75.7653 185.624 73.3074 183.73C72.882 183.402 72.4681 184.13 72.8892 184.455C75.468 186.443 78.2011 188.22 81.06 189.777C81.0567 190.005 81.0495 190.232 81.0462 190.46C81.0134 192.647 80.9874 194.835 80.9679 197.022C80.963 197.561 81.8 197.558 81.805 197.018C81.8272 194.551 81.861 192.083 81.9026 189.617C81.9182 189.554 81.9209 189.491 81.9065 189.429C81.947 187.084 81.9936 184.738 82.0463 182.393C82.1106 182.361 82.1711 182.317 82.2177 182.24C84.2468 178.898 86.4701 175.677 88.8853 172.602C89.2137 172.184 88.629 171.583 88.2973 172.006Z" fill="#BBFFF5"/>
<path d="M39.0421 184.355C37.2359 186.507 35.5402 188.75 33.9354 191.057C34.0857 188.119 34.2139 185.18 34.3026 182.239C34.3187 181.701 33.4817 181.705 33.4656 182.244C33.3103 187.402 33.0595 192.555 32.7145 197.704C32.6785 198.241 33.5155 198.235 33.5516 197.699C33.6719 195.904 33.7657 194.106 33.8633 192.309C33.9848 192.303 34.1052 192.252 34.1911 192.127C35.8852 189.646 37.6991 187.252 39.6301 184.951C39.974 184.542 39.3882 183.943 39.0421 184.355Z" fill="#44582A"/>
<path d="M69.4793 197.984H240.863C240.863 197.984 263.954 131.276 209.51 135.089C209.51 135.089 204.955 89.324 157.819 89.324C110.683 89.324 103.986 139.114 103.986 139.114C103.986 139.114 47.4718 123.013 69.4793 197.984Z" fill="#FFFEFD"/>
<path d="M240.861 197.983H124.373C178.846 196.344 159.583 157.829 159.583 157.829C217.769 146.527 187.377 97.5004 187.377 97.5004C207.08 110.656 209.51 135.089 209.51 135.089C263.952 131.276 240.861 197.983 240.861 197.983Z" fill="#E4F4F4"/>
<path d="M192.959 113.006L188.172 116.212C188.066 116.057 187.284 114.942 185.809 113.389C184.943 112.474 183.834 111.403 182.48 110.299C182.414 110.244 182.347 110.188 182.281 110.133C180.139 108.402 177.405 106.588 174.065 105.09C171.469 103.931 168.507 102.96 165.168 102.372C165.112 102.367 165.051 102.356 164.979 102.345C162.916 101.99 160.713 101.784 158.356 101.773C158.262 101.768 158.167 101.768 158.084 101.768C156.631 101.768 155.244 101.818 153.918 101.912C151.844 102.051 149.913 102.3 148.116 102.633C147.589 102.727 147.068 102.833 146.563 102.949C145.709 103.132 144.882 103.343 144.083 103.565C142.17 104.109 140.428 104.735 138.858 105.429C137.405 106.067 136.095 106.749 134.919 107.454C134.731 107.564 134.548 107.675 134.37 107.786C133.255 108.485 132.262 109.201 131.386 109.894C130.498 110.604 129.739 111.298 129.084 111.947C128.934 112.091 128.79 112.235 128.657 112.379C126.71 114.398 125.889 115.907 125.867 115.957L120.774 113.261C120.891 113.017 122.045 110.909 124.635 108.241C125.29 107.57 126.033 106.86 126.882 106.139C127.952 105.218 129.184 104.27 130.593 103.349C131.147 102.983 131.724 102.622 132.335 102.267C132.978 101.89 133.655 101.518 134.359 101.163C137.038 99.793 140.184 98.5671 143.839 97.6574C144.083 97.5964 144.333 97.5353 144.594 97.4799C145.232 97.3301 145.886 97.1859 146.552 97.0583C148.288 96.7199 150.124 96.4537 152.077 96.2761C153.064 96.1818 154.096 96.1153 155.144 96.0709C155.427 96.0598 155.71 96.0487 156.004 96.0376C156.681 96.0154 157.369 96.0043 158.084 96.0043C158.328 96.0043 158.583 96.0043 158.827 96.0099C159.676 96.0265 160.503 96.0598 161.307 96.1153C161.862 96.1541 162.411 96.1985 162.949 96.254C163.049 96.2595 163.154 96.2706 163.254 96.2817C172.468 97.2913 179.457 100.869 184.344 104.464C185.093 105.018 185.797 105.568 186.446 106.117C187.756 107.204 188.865 108.263 189.775 109.206C191.766 111.27 192.82 112.801 192.959 113.006Z" fill="#C6D3D3"/>
<path d="M97.578 145.914C96.1169 145.278 94.4772 145.246 92.9018 145.29C91.469 145.33 90.0318 145.506 88.6283 145.798C85.7627 146.394 82.972 147.536 80.5124 149.123C75.5078 152.353 71.9177 157.395 70.4339 163.161C69.6029 166.391 69.4748 169.733 69.9957 173.022C70.1127 173.763 71.0241 174.182 71.6942 174.003C72.4808 173.792 72.7925 173.047 72.6749 172.305C71.8761 167.26 73.0726 161.97 75.794 157.67C78.5154 153.37 82.8666 150.258 87.7458 148.87C89.1132 148.482 90.5116 148.216 91.9294 148.113C92.66 148.06 93.3928 148.043 94.125 148.064C94.7768 148.083 95.5794 148.049 96.1913 148.316C96.878 148.615 97.6807 148.51 98.0856 147.809C98.4278 147.216 98.2686 146.216 97.578 145.914Z" fill="#E4F4F4"/>
<path d="M74.5995 189.974C73.6465 186.922 73.1284 183.778 73.0707 180.581C73.0574 179.833 72.4317 179.197 71.6761 179.201C70.9323 179.206 70.2833 179.844 70.2966 180.596C70.3582 184.015 70.9007 187.427 71.9202 190.692C72.1432 191.406 72.8743 191.871 73.6187 191.672C74.321 191.484 74.8236 190.691 74.5995 189.974Z" fill="#E4F4F4"/>
<path d="M118.291 120.379C113.415 125.783 110.196 132.609 109.259 139.836C109.163 140.578 109.462 141.321 110.252 141.528C110.906 141.699 111.847 141.282 111.944 140.535C112.817 133.797 115.68 127.408 120.238 122.355C121.431 121.033 119.488 119.053 118.291 120.379Z" fill="#E4F4F4"/>
<path d="M165.399 152.772H161.555V166.574C161.555 168.477 160.013 170.019 158.11 170.019H155.257C153.355 170.019 151.813 168.477 151.813 166.574V152.772H147.973C146.46 152.772 145.546 151.098 146.365 149.825L155.075 136.277C155.828 135.106 157.539 135.106 158.292 136.277L167.006 149.824C167.826 151.097 166.912 152.772 165.399 152.772Z" fill="#46C1B5"/>
<path d="M192.887 181.59H120.838V165.412C120.838 164.157 121.856 163.14 123.11 163.14H125.223C126.478 163.14 127.494 164.158 127.494 165.412V174.934H186.23V165.412C186.23 164.157 187.247 163.14 188.501 163.14H190.614C191.869 163.14 192.886 164.158 192.886 165.412V181.59H192.887Z" fill="#46C1B5"/>
<path d="M165.399 153.938H161.555V167.741C161.555 169.643 160.013 171.185 158.11 171.185H155.257C153.355 171.185 151.813 169.643 151.813 167.741V153.938H147.973C146.46 153.938 145.546 152.264 146.365 150.991L155.075 137.443C155.828 136.272 157.539 136.272 158.292 137.443L167.006 150.991C167.826 152.264 166.912 153.938 165.399 153.938Z" fill="#E4D79B"/>
<path d="M192.887 182.756H120.838V166.578C120.838 165.323 121.856 164.306 123.11 164.306H125.223C126.478 164.306 127.494 165.324 127.494 166.578V176.1H186.23V166.578C186.23 165.323 187.247 164.306 188.501 164.306H190.614C191.869 164.306 192.886 165.324 192.886 166.578V182.756H192.887Z" fill="#E4D79B"/>
<path d="M149.57 49.6473L122.417 78.2925C127.26 77.5048 132.247 77.5769 137.051 78.4977C139.403 78.9415 141.827 79.6515 143.496 81.3545C145.721 83.6233 146.109 87.0458 146.292 90.2187C146.425 92.4986 146.514 94.7785 146.553 97.0583C146.57 97.8793 146.575 98.7002 146.575 99.5212L146.908 99.5101C149.681 99.4158 152.461 99.3049 155.229 99.205C159.161 99.0664 163.15 98.9332 166.894 100.065C169.745 100.93 172.447 102.666 174.066 105.09C177.406 106.588 180.14 108.402 182.282 110.133C182.348 110.188 182.415 110.244 182.481 110.299L186.448 106.117L197.181 94.7896L149.57 49.6473ZM148.35 65.7228C151.839 62.0451 157.619 61.8898 161.286 65.3622C164.964 68.8514 165.119 74.6314 161.63 78.3091C158.152 81.9758 152.372 82.1311 148.694 78.642C145.027 75.1695 144.872 69.3894 148.35 65.7228Z" fill="#F2E8B9"/>
<path d="M151.861 47.2343L149.043 44.5606L110.957 84.7271L130.594 103.349L134.92 107.454C136.096 106.749 137.406 106.067 138.859 105.429L134.36 101.163L116.648 84.3721L122.417 78.2925L149.57 49.6473L197.181 94.7895L186.447 106.117L182.481 110.299C183.835 111.403 184.944 112.474 185.809 113.389L189.776 109.206L202.772 95.4995L151.861 47.2343Z" fill="#F6FAFD"/>
<path d="M174.066 105.09C171.47 103.931 168.508 102.96 165.169 102.372C165.113 102.367 165.052 102.356 164.98 102.345C162.917 101.99 160.715 101.784 158.357 101.773C158.263 101.768 158.168 101.768 158.085 101.768C156.632 101.768 155.245 101.818 153.919 101.912C151.845 102.051 149.914 102.3 148.117 102.633C147.59 102.727 147.069 102.833 146.564 102.949C146.581 101.807 146.586 100.664 146.575 99.5212L146.908 99.5101C149.681 99.4158 152.461 99.3048 155.229 99.205C159.161 99.0663 163.15 98.9332 166.894 100.065C169.745 100.93 172.447 102.666 174.066 105.09Z" fill="#638439"/>
<path d="M146.575 99.5212C146.586 100.664 146.581 101.807 146.564 102.949C145.71 103.132 144.883 103.343 144.084 103.565C142.171 104.109 140.429 104.735 138.859 105.429L134.36 101.163L116.648 84.3721L122.417 78.2925C127.26 77.5048 132.247 77.5769 137.051 78.4977C139.403 78.9415 141.827 79.6515 143.496 81.3545C145.721 83.6232 146.109 87.0458 146.292 90.2187C146.425 92.4986 146.514 94.7784 146.553 97.0583C146.569 97.8793 146.575 98.7002 146.575 99.5212Z" fill="#44582A"/>
<path d="M161.285 65.365C164.963 68.8525 165.117 74.6331 161.63 78.3114C158.154 81.9774 152.373 82.1316 148.695 78.6442C145.029 75.1684 144.875 69.3878 148.351 65.7217C151.838 62.0428 157.619 61.8892 161.285 65.365Z" fill="#FF5331"/>
<path d="M258.37 117.444L260.744 119.824L258.808 121.759L256.428 119.385L254.06 121.759L252.118 119.824L254.492 117.444L252.102 115.053L254.037 113.117L256.428 115.508L258.808 113.134L260.744 115.075L258.37 117.444Z" fill="#638439"/>
<path d="M288.712 124.434L301.696 135.049L291.081 148.034L278.097 137.419L288.712 124.434ZM300.412 135.178L288.841 125.72L279.382 137.29L290.953 146.749L300.412 135.178ZM295.948 135.627L289.289 130.183L283.845 136.841L290.504 142.285L295.948 135.627Z" fill="#638439"/>
<path d="M289.169 128.891L282.567 136.962L290.639 143.563L297.24 135.492L289.169 128.891Z" fill="#638439"/>
<path d="M304.274 102.652C299.292 102.652 295.245 98.6053 295.245 93.6313C295.245 88.6572 299.292 84.6023 304.274 84.6023C309.248 84.6023 313.295 88.6572 313.295 93.6313C313.295 98.6053 309.248 102.652 304.274 102.652ZM298.618 93.6313C298.618 96.7504 301.156 99.2799 304.275 99.2799C307.385 99.2799 309.923 96.7509 309.923 93.6313C309.923 90.5121 307.385 87.9743 304.275 87.9743C301.155 87.9743 298.618 90.5121 298.618 93.6313Z" fill="#E57D25"/>
<path d="M273.734 109.2C270.807 109.2 268.429 106.822 268.429 103.899C268.429 100.977 270.807 98.5948 273.734 98.5948C276.656 98.5948 279.034 100.977 279.034 103.899C279.034 106.822 276.656 109.2 273.734 109.2ZM270.41 103.899C270.41 105.732 271.901 107.218 273.734 107.218C275.562 107.218 277.053 105.732 277.053 103.899C277.053 102.067 275.562 100.576 273.734 100.576C271.901 100.576 270.41 102.067 270.41 103.899Z" fill="#E57D25"/>
<path d="M308.166 116.698L314.245 120.895L318.442 114.816L312.363 110.619L308.166 116.698Z" fill="#44582A"/>
<path d="M282.355 88.209C284.843 88.209 286.86 86.1919 286.86 83.7037C286.86 81.2154 284.843 79.1983 282.355 79.1983C279.867 79.1983 277.85 81.2154 277.85 83.7037C277.85 86.1919 279.867 88.209 282.355 88.209Z" fill="#44582A"/>
<path d="M24.3683 97.1542L19.7981 101.725L24.3317 106.266L20.6296 109.969L16.0959 105.427L11.5545 109.968L7.85352 106.266L12.3938 101.725L7.85352 97.1914L11.5545 93.4892L16.0959 98.0229L20.6662 93.4526L24.3683 97.1542ZM11.5551 94.7212L9.08663 97.1902L13.6269 101.724L9.08663 106.265L11.5551 108.735L16.0965 104.193L20.6301 108.735L23.0997 106.265L18.5661 101.724L23.1363 97.1542L20.6667 94.6846L16.0965 99.2549L11.5551 94.7212Z" fill="#E57D25"/>
<path d="M88.4334 124.261L76.0489 134.385L65.9238 122L78.3083 111.875L88.4334 124.261ZM76.1715 133.159L87.2075 124.137L78.1857 113.102L67.1497 122.124L76.1715 133.159ZM84.1765 123.833L76.4766 130.128L70.1812 122.427L77.8811 116.132L84.1765 123.833ZM76.5992 128.902L82.9512 123.709L77.7585 117.358L71.4066 122.551L76.5992 128.902Z" fill="#638439"/>
<path d="M28.4565 105.474C28.4565 101.518 31.6755 98.2913 35.6328 98.2913C39.5962 98.2913 42.8157 101.517 42.8157 105.474C42.8157 109.431 39.5968 112.651 35.6328 112.651C31.6761 112.651 28.4565 109.432 28.4565 105.474ZM35.6328 100.974C33.1583 100.974 31.1391 102.993 31.1391 105.475C31.1391 107.956 33.1577 109.969 35.6328 109.969C38.114 109.969 40.1332 107.957 40.1332 105.475C40.1332 102.993 38.114 100.974 35.6328 100.974Z" fill="#C75B00"/>
<path d="M2.79688 144.774C2.79688 141.986 5.06453 139.714 7.85194 139.714C10.6443 139.714 12.912 141.986 12.912 144.774C12.912 147.561 10.6443 149.829 7.85194 149.829C5.06453 149.829 2.79688 147.561 2.79688 144.774ZM7.85194 141.604C6.10849 141.604 4.68677 143.026 4.68677 144.774C4.68677 146.522 6.10904 147.939 7.85194 147.939C9.59983 147.939 11.0221 146.522 11.0221 144.774C11.0221 143.026 9.59983 141.604 7.85194 141.604Z" fill="#44582A"/>
<path d="M20.5769 118.822L14.7788 122.826L18.7823 128.624L24.5804 124.62L20.5769 118.822Z" fill="#E57D25"/>
<path d="M52.4704 127.66C53.7213 127.66 54.7353 126.646 54.7353 125.395C54.7353 124.144 53.7213 123.13 52.4704 123.13C51.2196 123.13 50.2056 124.144 50.2056 125.395C50.2056 126.646 51.2196 127.66 52.4704 127.66Z" fill="#E57D25"/>
<path d="M23.5622 146.852C25.3287 146.852 26.7607 145.42 26.7607 143.654C26.7607 141.887 25.3287 140.455 23.5622 140.455C21.7958 140.455 20.3638 141.887 20.3638 143.654C20.3638 145.42 21.7958 146.852 23.5622 146.852Z" fill="#C75B00"/>
<path d="M295.245 76.6333C296.946 76.6333 298.324 75.2547 298.324 73.5541C298.324 71.8535 296.946 70.4749 295.245 70.4749C293.545 70.4749 292.166 71.8535 292.166 73.5541C292.166 75.2547 293.545 76.6333 295.245 76.6333Z" fill="#C75B00"/>
<path d="M257.818 85.3955C259.442 85.3955 260.758 84.0792 260.758 82.4555C260.758 80.8318 259.442 79.5155 257.818 79.5155C256.195 79.5155 254.878 80.8318 254.878 82.4555C254.878 84.0792 256.195 85.3955 257.818 85.3955Z" fill="#44582A"/>
<path d="M277.307 210.136L263.352 210.158C263.394 208.871 263.776 207.601 264.449 206.475C265.031 206.025 265.892 205.964 266.668 205.97C269.547 206.009 272.427 206.602 275.046 207.712C277.313 201.654 279.775 195.663 282.424 189.739C282.914 190.105 283.363 190.516 283.612 191.043C283.988 191.836 283.848 192.746 283.63 193.589C283.327 194.759 282.885 195.891 282.442 197.017C280.732 201.394 279.017 205.765 277.307 210.136Z" fill="white"/>
<path d="M270.323 202.397C270.159 197.444 269.959 192.357 267.856 187.786C270.25 186.71 272.566 185.49 274.797 184.148C277.053 185.939 279.386 187.659 281.781 189.29C281.999 189.434 282.218 189.584 282.424 189.739C279.774 195.663 277.313 201.654 275.046 207.712C272.427 206.602 269.548 206.009 266.668 205.97C265.892 205.964 265.031 206.025 264.449 206.475C264.722 206.009 265.043 205.57 265.413 205.16C266.661 203.784 268.413 202.797 270.323 202.397Z" fill="#E57D25"/>
<path d="M245.54 193.855L245.619 193.794C245.679 193.866 245.746 193.938 245.813 194.01C246.049 194.265 246.286 194.532 246.383 194.853C246.583 195.547 246.062 196.229 245.558 196.778C243.704 198.803 241.678 200.683 239.884 202.747C238.126 204.766 236.587 206.996 235.798 209.476C234.907 209.498 234.016 209.526 233.125 209.553L233.076 208.189C232.992 208.167 232.907 208.144 232.822 208.111C236.022 202.642 239.829 197.2 245.54 193.855Z" fill="white"/>
<path d="M233.125 209.553C230.051 209.642 226.984 209.731 223.916 209.825L223.728 209.542C223.722 209.542 223.71 209.537 223.704 209.537C223.625 209.514 223.576 209.442 223.546 209.37C223.079 208.344 223.467 207.174 224.128 206.208C225.698 206.353 227.28 206.519 228.851 206.713C229.275 206.769 229.706 206.824 230.112 206.941C231.07 207.218 231.876 207.817 232.821 208.111C232.906 208.144 232.991 208.166 233.076 208.189L233.125 209.553Z" fill="white"/>
<path d="M231.403 202.109C232.252 198.021 232.876 193.888 233.276 189.739L233.288 189.611C236.004 189.867 238.769 189.722 241.436 189.201C242.824 190.738 244.224 192.263 245.619 193.794L245.54 193.855C239.83 197.2 236.023 202.642 232.821 208.111C231.876 207.817 231.07 207.218 230.112 206.941C229.706 206.824 229.275 206.769 228.851 206.713C227.28 206.519 225.698 206.353 224.128 206.208C224.225 206.059 224.334 205.909 224.449 205.77C226.062 203.773 228.584 202.409 231.275 202.087L231.403 202.109Z" fill="#C75B00"/>
<path d="M241.72 148.907C240.829 147.448 240.011 145.956 239.313 144.414C238.271 142.089 237.513 139.671 236.761 137.258C232.851 124.733 228.941 112.202 225.042 99.6764C234.542 98.8943 243.884 96.4702 252.402 92.5484C255.506 99.8262 255.597 107.908 254.784 115.696C253.96 123.568 252.25 131.378 251.99 139.288H252.014C253.645 140.076 254.881 141.402 255.985 142.755C265.745 154.687 268.188 170.335 276.033 183.382C275.627 183.643 275.215 183.898 274.797 184.148C272.565 185.49 270.25 186.71 267.855 187.786C267.382 188.003 266.903 188.208 266.418 188.413C260.61 176.088 252.378 164.866 244.66 153.45C243.649 151.952 242.648 150.449 241.72 148.907Z" fill="#1E1E1E"/>
<path d="M241.435 189.201C238.768 189.722 236.004 189.867 233.288 189.611C232.694 189.561 232.106 189.489 231.518 189.395C228.887 168.2 226.256 146.999 223.619 125.803C222.879 119.801 222.127 113.794 220.963 107.847C220.442 105.196 219.842 102.566 219.15 99.9538C221.115 99.9316 223.085 99.8428 225.043 99.6764C228.941 112.202 232.851 124.733 236.762 137.258C237.513 139.671 238.271 142.089 239.314 144.414C240.011 145.956 240.83 147.448 241.721 148.907C241.751 149.628 241.758 150.344 241.758 151.059C241.776 159.125 241.654 167.207 242.4 175.244C242.818 179.799 243.509 184.408 242.667 188.912V188.935C242.26 189.029 241.848 189.123 241.435 189.201Z" fill="#161515"/>
<path d="M264.278 5.78638C264.696 6.95681 264.799 8.21046 264.721 9.44191C264.526 12.576 263.048 15.7711 260.241 17.5739C257.028 19.6319 252.596 19.5376 249.007 18.0954C247.674 17.5628 246.425 16.8528 245.303 16.0041C244.479 15.3773 243.721 14.6784 243.011 13.9461C241.805 12.7036 240.708 11.3668 239.41 10.1963C238.119 9.03143 236.579 8.02186 234.815 7.62247C233.318 7.28409 231.626 7.44496 230.353 8.21045C229.728 7.87208 229.086 7.56144 228.419 7.29518C228.298 5.33151 229.474 3.37339 231.25 2.26397C233.105 1.10463 235.531 0.832827 237.713 1.32097C239.21 1.65934 240.605 2.33054 242.132 2.52469C245.454 2.95181 248.559 1.0658 251.82 0.333587C254.275 -0.221122 256.942 -0.104633 259.258 0.838372C261.568 1.78692 263.49 3.58418 264.278 5.78638Z" fill="#1E1E1E"/>
<path d="M234.978 30.8703C235.051 30.9369 235.118 31.0035 235.185 31.0756C233.014 29.9051 231.087 28.3575 229.541 26.5436C231.068 24.9017 231.747 22.6218 231.329 20.4973C231.214 19.9259 231.02 19.3546 230.619 18.8997C230.213 18.4504 229.577 18.1453 228.946 18.2396C228.443 18.3117 228.007 18.6224 227.704 18.9996C227.243 19.5709 227.031 20.3087 227.128 21.0132C223.557 21.9617 219.726 21.7287 216.046 21.1851C215.252 21.0686 214.452 20.9355 213.676 20.7192C213.034 20.5306 212.409 20.2865 211.815 19.9869C211.469 19.8094 211.13 19.6097 210.839 19.3657C209.675 17.9345 209.559 15.9431 210.19 14.2513C210.832 12.5261 212.154 11.0839 213.64 9.8746C216.022 7.92757 218.981 6.44095 222.17 6.21906C224.31 6.06929 226.444 6.50196 228.42 7.2952C229.087 7.56146 229.73 7.8721 230.354 8.21047C230.906 8.51001 231.439 8.83729 231.954 9.18676C233.676 10.3516 235.246 11.7883 236.131 13.569C236.816 14.9502 237.065 16.4867 237.107 18.0066C237.234 22.35 235.779 26.5824 234.978 30.8703Z" fill="#1E1E1E"/>
<path d="M229.541 26.5436C231.087 28.3575 233.014 29.9052 235.185 31.0756C235.264 31.1533 235.343 31.2365 235.421 31.3197C235.252 33.7438 234.13 36.1013 232.342 37.8985C231.414 38.2036 230.517 38.603 229.656 39.0246C227.868 39.8955 226.146 40.8718 224.491 41.9368C224.388 40.5611 224.212 39.191 223.952 37.832C223.879 37.4603 223.806 37.0831 223.721 36.7115C223.539 35.8849 223.309 35.0418 222.824 34.3318C222.054 34.72 221.224 35.0196 220.375 35.2193C220.157 35.2692 219.933 35.3136 219.715 35.2581C219.466 35.1915 219.284 35.0029 219.115 34.8199C218.235 33.8824 217.374 32.9339 216.526 31.9742C216.435 31.8688 216.338 31.7579 216.211 31.6858C215.987 31.5638 215.707 31.5804 215.447 31.5915C214.216 31.647 212.87 31.5582 211.93 30.826C211.688 30.6318 211.47 30.3767 211.463 30.0827C211.457 29.7554 211.712 29.4836 211.948 29.2395C212.282 28.9067 212.609 28.5683 212.942 28.2355C213.118 28.058 213.3 27.8694 213.373 27.6364C213.5 27.2426 213.282 26.8321 213.082 26.466C211.802 24.1307 210.929 21.6123 210.505 19.0329C210.608 19.1494 210.717 19.2603 210.838 19.3657C211.129 19.6098 211.469 19.8095 211.815 19.987C212.409 20.2865 213.033 20.5306 213.676 20.7192C214.452 20.9355 215.252 21.0687 216.046 21.1851C219.726 21.7288 223.557 21.9617 227.128 21.0132C227.031 20.3087 227.243 19.5709 227.704 18.9996C228.007 18.6224 228.443 18.3118 228.946 18.2396C229.577 18.1453 230.213 18.4504 230.619 18.8997C231.019 19.3546 231.213 19.926 231.329 20.4973C231.747 22.6218 231.068 24.9017 229.541 26.5436Z" fill="#F7B05C"/>
<path d="M252.433 92.5319C252.427 92.5374 252.415 92.543 252.402 92.5485C243.885 96.4703 234.542 98.8944 225.043 99.6766C223.085 99.843 221.115 99.9317 219.15 99.9539C218.841 99.9595 218.538 99.9594 218.229 99.9594C217.877 89.7029 217.496 77.8765 216.811 67.1595C216.556 65.2624 215.628 54.7784 216.641 51.5389C217.471 48.8763 218.642 46.1471 220.848 44.1724C222.091 43.0629 223.625 42.3751 225.183 41.715C226.723 41.0604 228.232 40.356 229.633 39.4684C232.13 37.8875 234.21 35.7241 235.131 33.0726C235.283 32.4957 235.38 31.9133 235.423 31.3198C235.538 31.4362 236.557 32.4846 236.538 32.5679C238.12 34.3984 239.503 36.3732 240.655 38.4589C242.692 42.1532 244.056 46.1749 244.747 50.2742C245.978 57.5519 245.165 65.0461 243.068 72.1574C242.928 72.6289 242.776 73.1171 242.831 73.6052C242.892 74.1766 243.213 74.6925 243.529 75.1861C247.019 80.7277 250.002 86.5355 252.433 92.5319Z" fill="#E57D25"/>
<path d="M204.158 54.3846C207.869 50.4461 211.585 46.5132 215.574 42.8133C217.95 40.6111 220.63 38.3867 223.952 37.832C224.213 39.1911 224.388 40.5612 224.492 41.9369C219.145 45.3428 214.453 49.6362 210.136 54.1405C209.202 55.1112 208.256 56.1263 207.008 56.7421C198.041 57.1026 189.045 56.9806 180.085 56.3871C187.947 54.7728 196.18 55.4829 204.158 54.3846Z" fill="#C75B00"/>
<path d="M216.501 62.6886L234.776 49.2346L218.229 99.9595L216.501 62.6886Z" fill="#C75B00"/>
<path d="M221.23 31.5466C221.23 32.266 220.841 33.3233 219.823 33.4764C219.279 33.5574 218.744 33.3638 218.3 33.1208C217.849 32.8734 217.471 32.5678 217.154 32.2078C217.076 32.1179 217.132 31.9781 217.237 31.9155C217.259 31.8927 217.287 31.875 217.315 31.8572C218.299 31.2997 219.284 30.7373 220.268 30.1798C220.29 30.1665 220.318 30.162 220.34 30.157C220.456 30.0627 220.673 30.0355 220.785 30.1886C221.075 30.6019 221.23 31.0695 221.23 31.5466Z" fill="white"/>
<path d="M217.052 25.695C216.949 25.9612 216.731 26.1886 216.427 26.2718C216.1 26.3606 215.797 26.2164 215.573 26.0056C215.482 25.9224 215.403 25.8281 215.33 25.7338C215.293 25.7116 214.487 24.408 215.045 23.8977C215.518 23.465 216.258 23.7757 216.651 24.1362C216.869 24.3359 217.009 24.5911 217.064 24.8684C217.125 25.1347 217.149 25.4287 217.052 25.695Z" fill="#272742"/>
<path d="M214.64 23.0439C214.632 23.0479 214.65 23.0405 214.692 23.0208C214.689 23.0219 214.686 23.023 214.683 23.0242C214.669 23.0309 214.655 23.0371 214.64 23.0439Z" fill="#272742"/>
<path d="M216.19 21.8259C215.332 21.6856 214.435 21.8182 213.693 22.247C213.425 22.4017 213.287 22.7423 213.467 23.0036C213.635 23.2488 214.008 23.3763 214.294 23.2105C214.405 23.1461 214.522 23.0962 214.64 23.043C214.646 23.0396 214.664 23.0313 214.682 23.0235C214.695 23.0174 214.707 23.0125 214.72 23.0064C214.704 23.0136 214.701 23.0152 214.691 23.0202C214.696 23.0186 214.701 23.0158 214.705 23.0147C214.748 23.0003 214.792 22.9869 214.835 22.9747C214.906 22.9548 214.978 22.937 215.051 22.922C215.124 22.9071 215.198 22.8976 215.271 22.8843C215.086 22.9176 215.244 22.8888 215.288 22.8849C215.322 22.8821 215.357 22.8799 215.391 22.8782C215.539 22.8716 215.687 22.8782 215.835 22.8921C215.852 22.8949 215.869 22.8965 215.885 22.8993C216.043 22.9254 216.195 22.9187 216.339 22.8444C216.469 22.7761 216.593 22.6391 216.625 22.5021C216.689 22.2275 216.525 21.8803 216.19 21.8259Z" fill="#272742"/>
<path d="M192.186 44.8491L185.086 74.9781C184.207 73.5558 183.343 72.1369 182.463 70.7146C181.667 69.3811 180.837 68.0398 179.699 66.9736C176.863 64.2744 172.491 63.7475 168.668 64.6522C164.86 65.5602 161.479 67.6798 158.155 69.7783C155.811 71.2566 153.462 72.7515 151.117 74.2304L150.833 74.4062C149.276 71.7308 147.621 69.1015 145.906 66.5099C144.152 63.8573 142.095 61.0987 139.03 60.255C136.731 59.6265 134.279 60.2295 132.024 61.0344C127.407 62.6541 123.063 65.1026 119.273 68.2195L128.326 29.802L192.186 44.8491ZM153.17 48.5013C154.333 43.5677 151.291 38.6496 146.357 37.487C141.439 36.3282 136.522 39.3702 135.359 44.3043C134.2 49.2218 137.242 54.1393 142.16 55.2981C147.094 56.4608 152.011 53.4188 153.17 48.5013Z" fill="#F2E8B9"/>
<path d="M185.086 74.9781L192.186 44.8491L128.326 29.8015L119.273 68.219L117.351 76.376L156.345 85.5642L181.211 91.4236L185.086 74.9781ZM197.373 42.6519L184.677 96.5285L112.611 79.5472L125.307 25.6706L197.373 42.6519Z" fill="#F6FAFD"/>
<path d="M185.086 74.9781L181.211 91.4241L156.345 85.5647L156.511 84.8575C154.742 81.3157 152.858 77.8171 150.833 74.4056L151.117 74.2298C153.462 72.7515 155.81 71.2566 158.155 69.7777C161.479 67.6792 164.861 65.5597 168.668 64.6516C172.491 63.7475 176.863 64.2739 179.699 66.9731C180.836 68.0398 181.666 69.3811 182.463 70.714C183.343 72.1374 184.207 73.5558 185.086 74.9781Z" fill="#638439"/>
<path d="M156.511 84.8575L156.345 85.5647L117.351 76.3765L119.273 68.2195C123.063 65.1026 127.407 62.6541 132.024 61.0344C134.28 60.229 136.73 59.6265 139.03 60.255C142.095 61.0987 144.153 63.8579 145.906 66.5099C147.622 69.1015 149.276 71.7309 150.833 74.4062C152.859 77.8171 154.742 81.3162 156.511 84.8575Z" fill="#44582A"/>
<path d="M146.357 37.4876C151.29 38.6502 154.333 43.5677 153.17 48.5019C152.011 53.4193 147.094 56.4614 142.16 55.2987C137.242 54.1399 134.2 49.2224 135.359 44.3049C136.522 39.3708 141.44 36.3288 146.357 37.4876Z" fill="#FFC533"/>
<path d="M179.229 56.9418C178.414 58.911 177.593 60.8747 176.778 62.8439C173.899 63.2266 170.97 63.2654 168.085 62.9493C167.359 62.8716 166.599 62.7607 166.011 62.328C164.901 61.507 164.801 59.9095 164.879 58.5338C164.957 57.0749 165.179 55.4829 166.255 54.4955C166.41 54.3513 166.593 54.2237 166.798 54.1959C166.981 54.1738 167.159 54.2348 167.331 54.3013C169.217 55.0447 170.881 56.6478 172.906 56.5479C172.662 55.5883 172.418 54.6231 172.179 53.6634C172.135 53.4915 172.096 53.3029 172.196 53.1586C172.346 52.9423 172.684 53.0089 172.928 53.1143C175.191 54.1072 176.861 56.2983 179.229 56.9418Z" fill="#F7B05C"/>
<path d="M204.718 56.7421C205.861 56.1263 206.726 55.1112 207.581 54.1405C211.53 49.6362 215.824 45.3428 220.716 41.9369C222.231 40.8718 223.806 39.8956 225.442 39.0247C226.23 38.6031 227.051 38.2037 227.9 37.8986C229.187 37.4382 230.523 37.1886 231.86 37.3994C232.537 37.5103 233.214 37.7433 233.752 38.176C233.968 38.3479 234.151 38.5476 234.312 38.7695C234.883 39.5627 235.1 40.6167 234.994 41.6041C234.861 42.8632 234.268 44.0281 233.58 45.0932C231.339 48.5657 228.044 51.2005 224.81 53.7744C222.469 55.6382 220.128 57.4965 217.793 59.3603C216.672 60.2478 215.557 61.1354 214.404 61.9785C214.071 62.2226 213.738 62.4556 213.405 62.6886C211.541 63.9977 209.594 65.1903 207.614 66.3108L207.559 66.2109C206.543 66.5382 205.462 66.566 204.397 66.5604C195.033 66.4883 185.847 63.8978 176.489 63.5373C176.584 63.3043 176.683 63.0768 176.778 62.8439C177.593 60.8747 178.414 58.911 179.23 56.9418C179.313 56.7421 179.396 56.5479 179.479 56.3482C179.679 56.3593 179.884 56.376 180.084 56.3871C188.282 56.9806 196.514 57.1026 204.718 56.7421Z" fill="#E57D25"/>
</svg>
